STARTFONT 2.3
FONT -FontForge-Pacifico-Book-R-Normal--16-160-72-72-P-94-ISO10646-1
SIZE 16 72 72  4
FONTBOUNDINGBOX 37 32 -10 -8
COMMENT "Generated by fontforge, http://fontforge.sourceforge.net"
COMMENT "Copyright 2018 The Pacifico Project Authors (https://github.com/googlefonts/Pacifico)"
STARTPROPERTIES 41
FOUNDRY "FontForge"
FAMILY_NAME "Pacifico"
WEIGHT_NAME "Book"
SLANT "R"
SETWIDTH_NAME "Normal"
ADD_STYLE_NAME ""
PIXEL_SIZE 16
POINT_SIZE 160
RESOLUTION_X 72
RESOLUTION_Y 72
SPACING "P"
AVERAGE_WIDTH 94
CHARSET_REGISTRY "ISO10646"
CHARSET_ENCODING "1"
FONTNAME_REGISTRY ""
CHARSET_COLLECTIONS "ISO8859-2 ISO8859-5 ISO8859-9 ISO8859-4 ISO10646-1"
BITS_PER_PIXEL 4
FONT_NAME "Pacifico-Regular"
FACE_NAME "Pacifico Regular"
COPYRIGHT "Copyright 2018 The Pacifico Project Authors (https://github.com/googlefonts/Pacifico)"
FONT_VERSION "3.001"
FONT_ASCENT 13
FONT_DESCENT 3
UNDERLINE_POSITION -2
UNDERLINE_THICKNESS 1
X_HEIGHT 7
CAP_HEIGHT 14
DEFAULT_CHAR 1
RAW_ASCENT 800
RAW_DESCENT 200
NORM_SPACE 4
RELATIVE_WEIGHT 40
RELATIVE_SETWIDTH 50
SUPERSCRIPT_X 0
SUPERSCRIPT_Y 5
SUPERSCRIPT_SIZE 9
SUBSCRIPT_X 0
SUBSCRIPT_Y 1
SUBSCRIPT_SIZE 9
AVG_LOWERCASE_WIDTH 75
AVG_UPPERCASE_WIDTH 130
ENDPROPERTIES
CHARS 1514
STARTCHAR NULL.dup1
ENCODING 0
SWIDTH 0 0
DWIDTH 0 0
BBX 1 1 0 0
BITMAP
00
ENDCHAR
STARTCHAR nonmarkingreturn
ENCODING 13
SWIDTH 265 0
DWIDTH 4 0
BBX 1 1 0 0
BITMAP
00
ENDCHAR
STARTCHAR space
ENCODING 32
SWIDTH 265 0
DWIDTH 4 0
BBX 1 1 0 0
BITMAP
00
ENDCHAR
STARTCHAR exclam
ENCODING 33
SWIDTH 340 0
DWIDTH 5 0
BBX 6 15 0 0
BITMAP
0004EB
0009FB
000DF7
001FF4
003FF0
006FB0
009F80
00BF40
00EE00
01FA00
01E500
000000
2DE300
6FF700
3ED200
ENDCHAR
STARTCHAR quotedbl
ENCODING 34
SWIDTH 510 0
DWIDTH 8 0
BBX 8 6 1 9
BITMAP
06E61CD0
0CF85FF1
0EF56FD0
1FF28FA0
2FE09F70
1E807D20
ENDCHAR
STARTCHAR numbersign
ENCODING 35
SWIDTH 700 0
DWIDTH 11 0
BBX 11 10 0 0
BITMAP
0001C902D700
0006F908F700
09FFFFFFFFB0
07DFFDDFED80
004FB06F9000
007F809F6000
4FFFFFFFFE20
3DFFDDFEDC10
05FA07F80000
04E306E20000
ENDCHAR
STARTCHAR dollar
ENCODING 36
SWIDTH 524 0
DWIDTH 8 0
BBX 8 15 0 -2
BITMAP
00002400
00007B00
00008900
007DFFA1
06FDEDF9
0BF2E4EA
0AF8F131
03EFF710
002AFFC1
1A26CBF7
5F9896F7
2EFEDEE1
03AFD810
000E4000
000E1000
ENDCHAR
STARTCHAR percent
ENCODING 37
SWIDTH 896 0
DWIDTH 14 0
BBX 15 13 0 0
BITMAP
01AEC20004D10000
0AFBFB001DF10000
1FA3FF15DF900000
3F91EFFFFF200000
1FC1BFCCF8000000
09FFF71EE1000000
0057408F70475000
000002FD08FFF800
00000AF52FB1DE00
00004FC05F60AF10
0000CF405F60CE00
0005FB002FDAF800
0004E30005DE9000
ENDCHAR
STARTCHAR ampersand
ENCODING 38
SWIDTH 851 0
DWIDTH 14 0
BBX 14 16 0 -1
BITMAP
00005CED600000
0005FFDFF30000
000CF606F80000
001FF004F90000
001FF009F60000
000DF46FE10000
0008FEFE300000
0007FFD2000000
00AFFFE20005A2
08FE3CFC003FE1
1FF403FF92DF60
4FF0006FFEF900
2FF6001DFFB000
0AFFEDFFFFE300
007CEEC73EFE10
0000000003DD10
ENDCHAR
STARTCHAR quotesingle
ENCODING 39
SWIDTH 290 0
DWIDTH 5 0
BBX 4 6 1 9
BITMAP
06E6
0CF8
0EF5
1FF2
2FE0
1E80
ENDCHAR
STARTCHAR parenleft
ENCODING 40
SWIDTH 613 0
DWIDTH 10 0
BBX 11 18 1 -2
BITMAP
000006CEDA20
0000AFFDFFB0
0009FD301850
004FF3000000
00BF80000000
03FF20000000
08FB00000000
0CF600000000
1FF200000000
4FE000000000
6FC000000000
7FA000000000
8F9000000000
8FA000000000
6FB000150000
3FE203DF0000
0BFFDFF70000
019EEB400000
ENDCHAR
STARTCHAR parenright
ENCODING 41
SWIDTH 613 0
DWIDTH 10 0
BBX 12 18 -2 -2
BITMAP
000018DFC400
0001DFEEFF30
0007F9109FA0
000250004FE0
000000002FF1
000000002FF1
000000003FF0
000000005FD0
000000007FB0
00000000AF80
00000000DF50
00000003FF10
00000009FA00
0000001EF400
000000AFB000
194008FE2000
4FFEEFE40000
06CED9200000
ENDCHAR
STARTCHAR asterisk
ENCODING 42
SWIDTH 520 0
DWIDTH 8 0
BBX 8 7 1 9
BITMAP
08B2E400
08FBF7D4
007FFFE3
1DFFFA10
1D9CBFB0
001F78B0
001D4000
ENDCHAR
STARTCHAR plus
ENCODING 43
SWIDTH 700 0
DWIDTH 11 0
BBX 9 10 1 0
BITMAP
00007D1000
0000CF0000
0000EE0000
0001FC0000
7FFFFFFFD0
7EEFFFEEC0
0006F70000
0008F50000
0009F30000
0008C00000
ENDCHAR
STARTCHAR comma
ENCODING 44
SWIDTH 257 0
DWIDTH 4 0
BBX 4 6 0 -3
BITMAP
1CD1
5FF2
6FE0
7F90
AF30
9A00
ENDCHAR
STARTCHAR hyphen
ENCODING 45
SWIDTH 403 0
DWIDTH 6 0
BBX 5 2 1 4
BITMAP
ADEFB0
EFEC70
ENDCHAR
STARTCHAR period
ENCODING 46
SWIDTH 257 0
DWIDTH 4 0
BBX 4 3 0 0
BITMAP
3DD2
8FF6
3ED1
ENDCHAR
STARTCHAR slash
ENCODING 47
SWIDTH 509 0
DWIDTH 8 0
BBX 9 16 0 0
BITMAP
0000000AA0
0000004FC0
000000CF60
000004FD00
00000CF600
00004FD000
0000CF6000
0004FD0000
000CF60000
004FD00000
00CF600000
04FD000000
0CF6000000
4FD0000000
BF60000000
AC00000000
ENDCHAR
STARTCHAR zero
ENCODING 48
SWIDTH 543 0
DWIDTH 9 0
BBX 9 10 0 0
BITMAP
002AEE8000
01DFEFF700
08F905FD00
0DF200EF00
1FE000EF10
2FD000FF00
2FD003FC00
0EF30AF700
08FFEFD100
009EEA2000
ENDCHAR
STARTCHAR one
ENCODING 49
SWIDTH 376 0
DWIDTH 6 0
BBX 6 10 0 0
BITMAP
039DE2
1FFFF3
065FF1
003FE0
005FC0
007FA0
009F80
00BF70
00CF50
00AE10
ENDCHAR
STARTCHAR two
ENCODING 50
SWIDTH 560 0
DWIDTH 9 0
BBX 9 10 0 0
BITMAP
003BEEA100
03FFDFFB00
09F803FF00
09F202FF00
014008FA00
00004FE200
0005FE3000
03BFC20000
2FFFDDDC20
2FFFFFFE20
ENDCHAR
STARTCHAR three
ENCODING 51
SWIDTH 520 0
DWIDTH 8 0
BBX 8 10 0 0
BITMAP
007DFD91
09FFDFF8
0FE108FB
08500AF7
0007DF90
000DFF90
27001CF6
8F600BF8
5FFDEFF4
06CEEB40
ENDCHAR
STARTCHAR four
ENCODING 52
SWIDTH 577 0
DWIDTH 9 0
BBX 9 10 0 0
BITMAP
0009E30000
003FE10000
00AF70BC00
02FE12FD00
09F805FA00
0EF208F700
3FFFFFFFA0
1CDDDFFD70
00000DF200
00000BD000
ENDCHAR
STARTCHAR five
ENCODING 53
SWIDTH 518 0
DWIDTH 8 0
BBX 8 10 0 0
BITMAP
06DFFFFC
09FFDDDA
03FB0000
06F80000
09FFDA30
05DEFFF3
05101BF8
3FA00AF8
1FFEEFF2
04BEEB30
ENDCHAR
STARTCHAR six
ENCODING 54
SWIDTH 541 0
DWIDTH 9 0
BBX 9 10 0 0
BITMAP
0018DEB300
00CFFEFE00
07FB10CF30
0DF3002600
1FF8EE9000
3FFFDFF700
2FF407FB00
0EF308FA00
08FFDFF300
009EEC4000
ENDCHAR
STARTCHAR seven
ENCODING 55
SWIDTH 497 0
DWIDTH 8 0
BBX 9 10 0 0
BITMAP
1CDDDDDC20
3FFFFFFF30
00004EE500
0003EE3000
000CF50000
005FD00000
00BF800000
00EF500000
00FF200000
00BC000000
ENDCHAR
STARTCHAR eight
ENCODING 56
SWIDTH 512 0
DWIDTH 8 0
BBX 8 10 0 0
BITMAP
005CEE91
05FFDFF9
0AF603FC
0AF708F8
03FFDF90
04EEFFB1
2EC12CF7
5FA008F8
2FFEEFF3
04CEEB40
ENDCHAR
STARTCHAR nine
ENCODING 57
SWIDTH 541 0
DWIDTH 9 0
BBX 9 10 0 0
BITMAP
005CFD7000
05FFDFF600
0BF605FD00
0DF506FF00
09FFDFFF10
01AED8FE00
162005FB00
5FB01DF500
1EFEFFA000
04CED70000
ENDCHAR
STARTCHAR colon
ENCODING 58
SWIDTH 257 0
DWIDTH 4 0
BBX 4 8 0 0
BITMAP
08EA
0EFE
09E8
0000
0000
3DD2
8FF6
3ED1
ENDCHAR
STARTCHAR semicolon
ENCODING 59
SWIDTH 257 0
DWIDTH 4 0
BBX 4 11 0 -3
BITMAP
08EA
0EFE
09E8
0000
0000
1CD1
5FF2
6FE0
7F90
AF30
9A00
ENDCHAR
STARTCHAR less
ENCODING 60
SWIDTH 700 0
DWIDTH 11 0
BBX 10 8 1 1
BITMAP
0000000261
000017CFF4
015BFFFA50
4EFFB61000
9FFA300000
29EFFC6100
0016CFFF60
0000038E80
ENDCHAR
STARTCHAR equal
ENCODING 61
SWIDTH 700 0
DWIDTH 11 0
BBX 10 6 1 2
BITMAP
4FFFFFFFE3
4CDDDDDDC1
0000000000
0000000000
AFFFFFFFB0
9DDDDDDD80
ENDCHAR
STARTCHAR greater
ENCODING 62
SWIDTH 700 0
DWIDTH 11 0
BBX 10 8 1 1
BITMAP
0640000000
3FFD710000
05BFFFA400
00028DFFC0
000017EFE1
016BFFEA30
8FFFB61000
BC72000000
ENDCHAR
STARTCHAR question
ENCODING 63
SWIDTH 476 0
DWIDTH 8 0
BBX 8 15 1 0
BITMAP
03BEEB30
1EFDEFD1
7F802FF3
8F401FF4
29106FE1
0002EF70
001DFA00
00AFB000
03FC0000
07F30000
07B00000
00000000
8EA00000
EFE00000
9E800000
ENDCHAR
STARTCHAR at
ENCODING 64
SWIDTH 1015 0
DWIDTH 16 0
BBX 16 18 0 -5
BITMAP
00000049BCB94000
00003CFFFFFFFA00
0005FFB51016DF90
003FF70000001DF2
00DF7000000006F8
05FD0007DC4002FA
0BF600AFFEF502FB
1FF205FD2BF303FA
3FD00BF50EF006F7
5FC00FF12FD00BF3
5FB00FF08FC06FB0
4FC00CFDFEFCFE20
2FF103DE73DEB200
0CF6000000000000
05FE300000002700
009FE831025AFF30
0007FFFFFFFFE600
000017ACCB950000
ENDCHAR
STARTCHAR A
ENCODING 65
SWIDTH 786 0
DWIDTH 13 0
BBX 15 15 0 0
BITMAP
0000006ADFED9200
00003DFFFFFFF500
0004EFC510146000
002FFA0006E80000
00BFB0000AF90000
04FF30000DF60000
09FC00001FF30000
0DF800005FF00000
0FF500008FD00000
1FF40000DFB00000
1FF50003FF900000
0EF8000BFF900670
09FE318FDFC15F80
02EFFFF95FFFFC10
003BED8008EE9100
ENDCHAR
STARTCHAR B
ENCODING 66
SWIDTH 827 0
DWIDTH 13 0
BBX 14 16 0 -1
BITMAP
00038BDEFEB600
05DFFFEDEFFFC1
7FFB6200017FF9
8C304200000AFD
0008FA000008FC
000CF700001DF8
000FF30015DFC1
003FF03FFFE810
006FC04DFFB200
009FA0001BFD00
00BF800004FF10
00DF600007FF00
00FF40017FF900
01FFEDEFFFA000
03FFFFEC940000
02EB0000000000
ENDCHAR
STARTCHAR C
ENCODING 67
SWIDTH 686 0
DWIDTH 11 0
BBX 12 15 1 0
BITMAP
00018DFD8100
003EFFDFF900
02EFA203FF10
0AFB0000EF30
3FF30000FF20
7FC00000C900
BF9000000000
DF7000000000
EF6000000000
DF7000000000
BFA000000000
6FF200000001
1DFD400016CE
02DFFEDEFFF9
0017CEFDB720
ENDCHAR
STARTCHAR D
ENCODING 68
SWIDTH 836 0
DWIDTH 13 0
BBX 14 15 0 0
BITMAP
0017BDFEC71000
07EFFFEFFFE300
3FE930004DFE10
1821510002EF80
000BF800008FD0
000EF500005FF0
002FF100005FF1
005FD000005FE0
009FA000008FD0
00BF800000CF90
00EF600004FF40
01FF40001DFB00
02FF2015DFD100
03FFEEFFFB1000
01BDFFDA500000
ENDCHAR
STARTCHAR E
ENCODING 69
SWIDTH 686 0
DWIDTH 11 0
BBX 13 15 0 0
BITMAP
00005BEFD91000
000AFFEDFFC000
007FF6002EF400
00DF90000BF600
00EF70000CF300
00AFD200057000
001AFFE7000000
006DFFF7000000
08FE7200000000
3FF40000000000
6FE00000000000
7FF10000000020
2FFB2000038DE0
06FFFEDDFFFF80
0029CEFEDB7300
ENDCHAR
STARTCHAR F
ENCODING 70
SWIDTH 712 0
DWIDTH 11 0
BBX 15 15 0 0
BITMAP
00016ACEFFFEDC90
005EFDDFEDDDDD90
03FD209F90000000
08F600BF80000000
08F600CF70000000
06FA00DF60000000
006200EF50000000
0000AFFFFFFD0000
00008DFFDDD90000
000004FE00000000
000007FC00000000
72000BF900000000
EC105FF400000000
9FFDFFA000000000
06DFD80000000000
ENDCHAR
STARTCHAR G
ENCODING 71
SWIDTH 811 0
DWIDTH 13 0
BBX 14 23 1 -8
BITMAP
00017CFEB30000
002DFFEEFE1000
02EFB201CF7000
0AFB00008F9000
2FF300008F9000
7FC000008F5000
BF800000130000
DF700000000000
EF600000000000
DF70006FFFD000
BFA0005CDFF000
6FF200001FD023
1DFD40005FA6EA
03DFFEDEFFEFC2
0017CEECCFF800
00000005EF5000
0000005FFF1000
000003F8FC0000
00001DA3F80000
00006F28F30000
0000AD1ED00000
0000AFEF500000
00003DE7000000
ENDCHAR
STARTCHAR H
ENCODING 72
SWIDTH 873 0
DWIDTH 14 0
BBX 17 15 -1 0
BITMAP
0029EE6000001AE800
03EFEFE10000CFEF10
0DD21FF30006FA3F30
3E200EF4000DF24F10
02000FF3003FC09E00
00001FF2007F98F700
00003FF000BFFFC100
003CDFFDDDFFFA1000
005FFFFECAFF500000
0000CF7001FF200000
0000FF4000FF200000
0003FF1000EF4001B0
0006FD0000AFA01CD0
0009F900003FFEFF40
0007E3000005DEB300
ENDCHAR
STARTCHAR I
ENCODING 73
SWIDTH 495 0
DWIDTH 8 0
BBX 10 15 -1 0
BITMAP
003DFFFFFB
003CDFFDD7
00002FF200
00004FF000
00006FD000
00008FB000
0000AF9000
0000CF7000
0000EF4000
0001FF3000
0003FF1000
0005FE0000
0007FC0000
19CEFEDA00
2EFFFFFC00
ENDCHAR
STARTCHAR J
ENCODING 74
SWIDTH 743 0
DWIDTH 12 0
BBX 12 16 1 -1
BITMAP
005ACEFFEC80
1BFFEDDEFFF2
8FB30000DF60
CF200000FF40
CF300002FF20
7F500004FE00
01000007FC00
000005DFFA00
0001BFEEF700
002DF91EF300
00CF702FE000
05FC007F9000
09F700DF3000
09F808FA0000
05FFEFD10000
007DEA200000
ENDCHAR
STARTCHAR K
ENCODING 75
SWIDTH 937 0
DWIDTH 15 0
BBX 17 15 0 0
BITMAP
0017CEFD910008E300
01DFFDEFF6001FF400
09F9108FB1006FE000
0DF100AF8000CF8000
0DF100CF6005FE1000
0AF400EF502EF60000
027001FF35DF800000
00003DFFFFE5000000
00004FFFFF70000000
000007FB5FF6000000
000009F909FE000000
5C000CF602FF6002C0
8F805FF200AFE32CE0
3FFEFF90002EFFFF40
04CEE8000004DEC300
ENDCHAR
STARTCHAR L
ENCODING 76
SWIDTH 673 0
DWIDTH 11 0
BBX 14 15 -1 0
BITMAP
0000004BEFC400
000007FFEEFF20
00004FF500AF90
0000CF90006FB0
0002FF30007FA0
0004FF00006F50
0006FD00000100
0007FC00000000
0008FB00000000
0009F900000000
0009F800000000
000AF600000003
1AEFFC952002BC
9FFFEEFFFEDFE4
4DFB2049DEEA20
ENDCHAR
STARTCHAR M
ENCODING 77
SWIDTH 1232 0
DWIDTH 20 0
BBX 22 15 0 0
BITMAP
018ED4018EE6005CEB1000
1CFEFB0BFDFF15FEFF8000
AE43FD6E40BF5E809FB000
E503FCD600AFBB007FC000
2004FED000BFF400AFA000
0006FF7000DFD000CF8000
0007FF3000FF9000FF5000
0009FD0002FF5003FF2000
000CFA0005FF1006FE0000
000EF70007FD0008FB0000
001FF4000AFB000AF90000
003FF2000CF8000BF80038
005FF0000EF6000AFA03EA
006FD0000FF40005FFEFD2
003E80000CD100007DEA10
ENDCHAR
STARTCHAR N
ENCODING 78
SWIDTH 884 0
DWIDTH 14 0
BBX 17 15 0 0
BITMAP
018DE5005CFC400000
1CFEFD06FEEFD00000
AE43FE2F703FF30000
E503FDA9001FF40000
2004FDE1003FF20000
0006FF90006FE00000
0008FF40009FC00000
000AFE0000CF900000
000BFA0000EF600000
000EF70002FF300000
001FF40004FF100000
003FF20005FE000910
005FF00004FF209F10
006FD00000DFEEF600
003E8000003CEC5000
ENDCHAR
STARTCHAR O
ENCODING 79
SWIDTH 816 0
DWIDTH 13 0
BBX 12 15 1 0
BITMAP
00018DFDA200
002EFFDFFE30
02EFA101CFD1
0AFB00002FF5
2FF300000CF9
7FC0000009FB
BF90000009FB
DF7000000AFA
EF6000000CF8
EF6000001FF4
CF8000006FE0
8FD00001DF70
2FF9002CFC00
06FFEEFFC100
004BEFC70000
ENDCHAR
STARTCHAR P
ENCODING 80
SWIDTH 805 0
DWIDTH 13 0
BBX 14 17 0 -2
BITMAP
000005AEFD9200
0001BFFDEFFE30
000CF92004EFB0
008F9000007FF1
02FD01CD004FF2
07F604FF005FF1
0CF107FC00AFB0
0FC009FA06FF30
2FA2ADFDDFE500
3F93EFFFD92000
4F802FF2000000
3F905FE0000000
1FC07FC0000000
0CF4BF90000000
04FFFF50000000
006EFB00000000
00001000000000
ENDCHAR
STARTCHAR Q
ENCODING 81
SWIDTH 816 0
DWIDTH 13 0
BBX 14 20 1 -5
BITMAP
00018DFEA20000
003EFFDFFE4000
02EFA101BFD100
0BFB00002FF600
3FF200000BF900
8FC000000AFB00
CF80000009FB00
DF7000000AFA00
EF6000000DF700
EF8000003FF300
BFB00000AFC000
6FF40007FF4000
0CFF98CFF70000
01BFFFFE600000
00039FF6000000
00000AFE100000
000002FF7000B1
000000BFE31AD0
0000003EFFFF40
00000003ACA300
ENDCHAR
STARTCHAR R
ENCODING 82
SWIDTH 880 0
DWIDTH 14 0
BBX 17 15 0 0
BITMAP
000006BEFD92000000
0002DFFEEFFE200000
002DF81005FF900000
00AF6064009FD00000
03FB04FD007FE00000
08F407FC009FB00000
0CE009FA01EF500000
0EC00BF84CFA000000
1FA0CFFFFE70000000
2FA0BFFFFC20000000
1FA03FF1CFC0000000
0DD06FD04FF5000700
09F39FA00BFD209F10
02EEFF7002FFEEF700
003CEB10004CFC5000
ENDCHAR
STARTCHAR S
ENCODING 83
SWIDTH 693 0
DWIDTH 11 0
BBX 12 15 0 0
BITMAP
00029DFEB500
004EFFDEFF60
00DF91006FE0
03FF00000FF1
04FE10001FE0
02FFA1000750
009FFE710000
0009FFFE7000
000029FFFA00
0630002BFF40
5FA00000DF70
6FA00000CF60
4FE30007FF20
0CFFEDFFF700
016CEFDA4000
ENDCHAR
STARTCHAR T
ENCODING 84
SWIDTH 697 0
DWIDTH 11 0
BBX 15 15 0 0
BITMAP
0016ACEFFFFFEC30
05EFFDEFFDDDEE40
2EE5008FB0000000
5F8000BF90000000
5F9000EF60000000
2EB001FF40000000
021004FF10000000
000006FE00000000
000008FC00000000
00000AF900000000
00000CF700000000
00000EF600000000
00001FF400000000
00003FF300000000
00001DC000000000
ENDCHAR
STARTCHAR U
ENCODING 85
SWIDTH 890 0
DWIDTH 14 0
BBX 17 15 0 0
BITMAP
018DE8000009E20000
1CFEFF20000EF50000
9F50FF50001FF40000
E600FF40003FF20000
2002FF30005FF00000
0005FF00008FD00000
0008FC0000CFA00000
000BF90001FF800000
000EF60006FF600000
002FF3000CFF400000
004FF0004DEF300000
006FE001D8FF200B30
005FF54CE2FF83BF20
001FFFFF40CFFFF700
0005DFC3003CED5000
ENDCHAR
STARTCHAR V
ENCODING 86
SWIDTH 763 0
DWIDTH 12 0
BBX 13 15 2 0
BITMAP
4E80003CEA0000
9FA001DFEF6000
BF9005F55FA000
DF7007F25F9000
EF5007F36F8000
FF4005F8AF4000
FF4000DFFF1000
FF30003EFFED50
FF40000CFDEF40
EF50004FD00000
CF7000CF500000
9FB007FB000000
5FF78FE2000000
0DFFFE40000000
03CEB200000000
ENDCHAR
STARTCHAR W
ENCODING 87
SWIDTH 1217 0
DWIDTH 19 0
BBX 21 15 1 0
BITMAP
04E700000BE1001AEC2000
09FA00003FF200AFEFA000
0BF800006FF001F92FE000
0DF700009FE003F61FD000
0EF50000BFC003F72FC000
0FF40000EFC001FC6F9000
1FF30004FFB000AFEF5000
1FF30008FFB0001CFFED80
0FF3000DFFB00007FEEF80
0EF4003FBFB0000EF20000
0DF5009F4FD0007FA00000
0AF903FC0EF102EE200000
06FE6DF40BFA6DF5000000
01EFFF8005FFFF80000000
004DE800008ED500000000
ENDCHAR
STARTCHAR X
ENCODING 88
SWIDTH 712 0
DWIDTH 11 0
BBX 15 15 -1 0
BITMAP
003BED50001AE300
04FEEFF200AFE100
0DB11DF906FF4000
051007FD3FF60000
000002FFEF900000
000000DFFC000000
000000AFE2000000
000003FFD0000000
00001DFFF2000000
0000BFCEF6000000
0009FE2AF9000000
005FF506FD000740
03EF9001FF406F50
1DFC00009FFEFA00
2ED2000019EE7000
ENDCHAR
STARTCHAR Y
ENCODING 89
SWIDTH 851 0
DWIDTH 14 0
BBX 16 20 0 -5
BITMAP
018DE8000009E300
1DFEFF30000EF600
BE40FF50001FF400
D400FF40004FF200
0003FF20007FE000
0006FE0000CFC000
0009FB0002FFA000
000CF70008FF8000
000DF6002EDF6000
000DF802DBCF4000
0008FFDFD2EF79C3
0001AED913FFFFF3
00000004BFFE8510
000001AFFFFB0000
00001CFD57F80000
00009FA00AF40000
0000FE001EE00000
0002FE00AF700000
0000DFEEFB000000
00003CED81000000
ENDCHAR
STARTCHAR Z
ENCODING 90
SWIDTH 721 0
DWIDTH 12 0
BBX 14 15 0 0
BITMAP
0017CEFEDC9600
02DFFEDEFFFF60
0BF910001EFA10
0FE000008FE100
0FE00001EF7000
0BF30009FE1000
0250002FF60000
000000AFC00000
000004FF400000
00001DFB000000
00008FF2000000
0003FF80000013
3BEFFF841003D8
BFFFEFFFFDEFD2
5DEA115ADFD910
ENDCHAR
STARTCHAR bracketleft
ENCODING 91
SWIDTH 405 0
DWIDTH 6 0
BBX 7 17 1 -1
BITMAP
009FFFC0
01FFDDA0
03FE0000
06FC0000
08FA0000
0AF80000
0CF60000
0EF40000
0FF20000
2FF00000
4FD00000
6FB00000
8FA00000
AF800000
CF600000
DFEDB100
9FFFD100
ENDCHAR
STARTCHAR backslash
ENCODING 92
SWIDTH 509 0
DWIDTH 8 0
BBX 7 16 1 0
BITMAP
1D700000
3FD00000
1FF20000
0BF60000
07FA0000
03FE0000
00EF3000
00AF7000
006FB000
002FE000
000DF400
0009F800
0005FC00
0001FF10
0000CF40
00006D20
ENDCHAR
STARTCHAR bracketright
ENCODING 93
SWIDTH 405 0
DWIDTH 6 0
BBX 8 17 -1 -1
BITMAP
00BFFFC0
00ADDFF1
00003FF0
00005FD0
00007FB0
00009F90
0000AF70
0000CF50
0000EF30
0001FF10
0003FE00
0005FC00
0007FA00
0009F800
000BF600
7DDFF400
9FFFC000
ENDCHAR
STARTCHAR asciicircum
ENCODING 94
SWIDTH 700 0
DWIDTH 11 0
BBX 9 9 1 1
BITMAP
00008D1000
0003FF5000
000BFFA000
003F9BE000
00BF27F400
04F903F800
0CF200EC00
5F90009F20
6D10004D20
ENDCHAR
STARTCHAR underscore
ENCODING 95
SWIDTH 354 0
DWIDTH 6 0
BBX 7 2 -1 -2
BITMAP
3CDDDC10
3EFFFE20
ENDCHAR
STARTCHAR grave
ENCODING 96
SWIDTH 600 0
DWIDTH 10 0
BBX 4 5 2 9
BITMAP
CA00
EF30
5FA0
09F2
00C4
ENDCHAR
STARTCHAR a
ENCODING 97
SWIDTH 470 0
DWIDTH 8 0
BBX 10 8 0 0
BITMAP
002AE73000
02DFEFE000
0BF92FC000
2FE15F9000
5FA08F7055
6FA1DF64F7
3FFEEFEFB1
08EC28EA10
ENDCHAR
STARTCHAR b
ENCODING 98
SWIDTH 473 0
DWIDTH 8 0
BBX 10 16 0 0
BITMAP
0002CE4000
001DFFB000
006F5BD000
00DE0BB000
02FA0E8000
06F74F3000
0AF5BB0000
0CF5E20000
0FFBFB2000
1FFEDFC000
2FF48FF333
2FE04FFFFA
0FE00BFCA3
0DF31ED000
07FEEF6000
009ED70000
ENDCHAR
STARTCHAR c
ENCODING 99
SWIDTH 368 0
DWIDTH 6 0
BBX 8 8 0 0
BITMAP
007EE500
08FEFD00
2FE2BD00
6FA07500
7F90002A
5FD104DC
1EFEEFE3
03BEE910
ENDCHAR
STARTCHAR d
ENCODING 100
SWIDTH 515 0
DWIDTH 8 0
BBX 11 16 0 0
BITMAP
0000002CD200
000000BFF900
000002F8BB00
000007F4BA00
00000BF1C800
00000EE0F500
00001FC4F100
00003FB9B000
002AFFAE5000
02EFEFEE0000
0BF86FF70000
2FD06FE10000
6F905F900820
6FA09FB08F30
3FFEEDFEF700
07ED43DD6000
ENDCHAR
STARTCHAR e
ENCODING 101
SWIDTH 393 0
DWIDTH 6 0
BBX 9 8 0 0
BITMAP
007DE70000
09FEFF1000
2FD19F2000
6F83EC0000
6FEFB20930
4FE303BF30
0DFFDFF700
02AEEB4000
ENDCHAR
STARTCHAR f
ENCODING 102
SWIDTH 371 0
DWIDTH 6 0
BBX 8 22 0 -6
BITMAP
00005EB0
0004FEF5
000CE3F7
004FA2F6
009F54F3
00EF18E0
03FD0D80
06FA6E10
09F8D600
0BFEA000
0DFC1000
0FF20000
1FD7FFF8
2FDCDCB3
2FCA9000
2FD7C000
2FD5D000
1FE4E000
0FE3E000
0CF7D000
08FF8000
01BA1000
ENDCHAR
STARTCHAR g
ENCODING 103
SWIDTH 479 0
DWIDTH 8 0
BBX 10 16 0 -8
BITMAP
002AE73000
02DFEFD000
0BFA2FC000
2FE15F9000
5FA08F7193
6FA0DF8DF4
3FFEFFFE50
08EBDFC200
000AFD0000
00AFFA0000
09E8F70000
4F68F30000
BC0DD00000
E95F700000
EFFE100000
6ED3000000
ENDCHAR
STARTCHAR h
ENCODING 104
SWIDTH 502 0
DWIDTH 8 0
BBX 10 16 0 0
BITMAP
0002CE4000
000DFFB000
005F5BD000
00BE0BB000
01FB0E7000
05F75F2000
09F5D90000
0BFAD10000
0DFF5BE400
0FF7CFF700
1FD7EDF500
1FDE5CF200
2FFC0EE01B
2FF71FD1BE
2FF31FFEF5
1EA009EC40
ENDCHAR
STARTCHAR i
ENCODING 105
SWIDTH 246 0
DWIDTH 4 0
BBX 6 12 0 0
BITMAP
02DD20
07FF50
02CA10
000000
06E400
0BF400
0EF100
2FD000
3FB01A
3FB1CD
1FFEF4
07EC30
ENDCHAR
STARTCHAR j
ENCODING 106
SWIDTH 254 0
DWIDTH 4 0
BBX 10 20 -4 -8
BITMAP
000004C800
00000CFE00
000008E800
0000000000
000007F400
00000BF400
00000DF200
00000EF000
00001FD048
00002FB8FA
00004FFF91
00006FE600
0003DF5000
003EFF2000
02E9ED0000
0CB2F90000
4F37F50000
8F1DD00000
8FEF600000
2CE8000000
ENDCHAR
STARTCHAR k
ENCODING 107
SWIDTH 525 0
DWIDTH 8 0
BBX 11 16 0 0
BITMAP
0002CE400000
000DFFB00000
005F5BD00000
00BE0BB00000
01FA0E700000
05F75E100000
09F5D8000000
0BFAC0000000
0DFE4AE80000
0FF5DEFF2000
1FD8C1DF2000
1FDE34FC0000
2FFC7FD20950
1FF7BF607F50
0FF27FFEFA00
0BC009EE8000
ENDCHAR
STARTCHAR l
ENCODING 108
SWIDTH 326 0
DWIDTH 5 0
BBX 8 16 0 0
BITMAP
0002CE30
000DEFA0
006F5BC0
00CE0BC0
02FA0CB0
06F71F70
09F45F30
0CF1AD00
0EE2F600
0FD9D000
1FEF6000
1FFC0000
0FF30082
0CF209F2
07FEEF70
01AFD600
ENDCHAR
STARTCHAR m
ENCODING 109
SWIDTH 744 0
DWIDTH 12 0
BBX 14 8 0 0
BITMAP
05E43CE12BE300
0BF4EFF3DFF500
0EEADFFADEF300
1FDF2EEF3EF000
2FFB1FFB1FC02A
3FF63FF53FB1CD
2FF12FF13FFEE3
0CA00CA00BEB30
ENDCHAR
STARTCHAR n
ENCODING 110
SWIDTH 496 0
DWIDTH 8 0
BBX 10 8 0 0
BITMAP
05E42BE300
0BF3DFF500
0EE9DEF300
1FDF4DF100
2FFB1FD01A
3FF63FB1CD
2FF13FFEE4
0CA00AEB30
ENDCHAR
STARTCHAR o
ENCODING 111
SWIDTH 451 0
DWIDTH 7 0
BBX 10 8 0 0
BITMAP
008EE80000
09FEFF6000
2FE1EFC141
6F90AFFFF5
7F801FEC91
5FC05F8000
1DFEFE2000
03CEC30000
ENDCHAR
STARTCHAR p
ENCODING 112
SWIDTH 481 0
DWIDTH 8 0
BBX 12 16 -2 -8
BITMAP
000AD4DD4000
000FFEEFD000
000EF70EF100
000EF00EF100
001FF04FC037
007FF0CF53EA
01EFFCFFEFD2
06DFFE8CEA10
0C8FD0000000
3F4FB0000000
7D3FA0000000
AA4F70000000
C86F40000000
D9AF10000000
CFF900000000
5EC100000000
ENDCHAR
STARTCHAR q
ENCODING 113
SWIDTH 500 0
DWIDTH 8 0
BBX 11 16 0 -7
BITMAP
000001730000
002AEEF80000
02DFEFF50000
0BFA1FF10000
2FE14FC00000
5FA08F800000
6FA1EF7EFF10
3FFEFF5FDA00
08EBFE3F1000
0003FC3F1000
0004FA3F0000
0005FA4E0000
0005FA6C0000
0004FCB90000
0001FFF40000
00007E900000
ENDCHAR
STARTCHAR r
ENCODING 114
SWIDTH 455 0
DWIDTH 7 0
BBX 10 8 0 0
BITMAP
05E41BE300
0BF3CFF500
0EE7FFF300
1FCE6CF3A7
2FFC0CFFF4
3FF704DC40
2FF2000000
0CB0000000
ENDCHAR
STARTCHAR s
ENCODING 115
SWIDTH 427 0
DWIDTH 7 0
BBX 10 8 -1 0
BITMAP
0000BD0000
0006F90000
000CFA0000
005FEF6000
01E95FE15C
0BE45EF9FB
1E3EFFFFF3
0008EFFC40
ENDCHAR
STARTCHAR t
ENCODING 116
SWIDTH 393 0
DWIDTH 6 0
BBX 9 15 0 0
BITMAP
00009E6000
0008FFD000
002F99E000
008F3AC000
00CE0E8000
01FC6E1000
04FCE50000
DFFFFFF200
BEFEDC9000
09F6000000
09F6000000
08F7000730
05FC108F40
01EFEEF900
003CFD6000
ENDCHAR
STARTCHAR u
ENCODING 117
SWIDTH 462 0
DWIDTH 7 0
BBX 10 8 0 0
BITMAP
04E508E000
0AF40ED000
0EF14FA000
1FD09F7000
2FB1EF4075
3FDCFF36F5
1FFF9FEFA0
08E62DE700
ENDCHAR
STARTCHAR v
ENCODING 118
SWIDTH 449 0
DWIDTH 7 0
BBX 10 8 0 0
BITMAP
1E902DB000
3FB0AFF000
3FB0CFC141
2FC0BFFFF4
1FD3FDBB80
0FECF20000
0DFF700000
06E9000000
ENDCHAR
STARTCHAR w
ENCODING 119
SWIDTH 700 0
DWIDTH 11 0
BBX 14 8 0 0
BITMAP
1E900C902DC000
3FB05FB0AFF000
3FB0BFC0CFC141
2FC2FFC0BFFFF4
1FD8FED3FDBB80
0FEDADECF30000
0DFF4BFF800000
06E805EA000000
ENDCHAR
STARTCHAR x
ENCODING 120
SWIDTH 529 0
DWIDTH 8 0
BBX 11 8 0 0
BITMAP
03DE72CE6000
09FEFEEFA000
07B5FF4B5000
0003FE000000
3C25FD000650
AF3AFF206F60
AFEFEFEDFA00
3DE82BFD7000
ENDCHAR
STARTCHAR y
ENCODING 121
SWIDTH 479 0
DWIDTH 8 0
BBX 10 16 0 -8
BITMAP
04E508E000
0AF40EE000
0EF14FB000
1FD09F9000
2FB1EF7194
3FDCFF7DF4
1FFFBFFE40
08E6CFB100
0009FD0000
00AFF90000
08E8F60000
4F58F20000
CB0DD00000
F86F700000
FFFD100000
6EC3000000
ENDCHAR
STARTCHAR z
ENCODING 122
SWIDTH 445 0
DWIDTH 7 0
BBX 9 8 1 0
BITMAP
DFFFFF6000
BDDFFF6000
02BFC50000
3EF7000000
CF70001C20
FF6004DE10
AFFDEFE400
18DFD92000
ENDCHAR
STARTCHAR braceleft
ENCODING 123
SWIDTH 490 0
DWIDTH 8 0
BBX 10 18 0 -2
BITMAP
000006DFD2
00007FFEB2
0000DF8000
0000FF2000
0002FF0000
0004FE0000
0009FB0000
0BEFE30000
1EFFA00000
003FF20000
000EF40000
000FF20000
002FF10000
003FE00000
004FD00000
002FF30000
000CFFF600
00019CC400
ENDCHAR
STARTCHAR bar
ENCODING 124
SWIDTH 326 0
DWIDTH 5 0
BBX 5 21 0 -5
BITMAP
000BE0
000FF0
002FD0
004FB0
006F90
008F70
00AF50
00CF30
00EF10
01FE00
03FC00
06F900
08F700
0AF500
0CF300
0EF100
1FE000
3FC000
5FA000
7F8000
6E4000
ENDCHAR
STARTCHAR braceright
ENCODING 125
SWIDTH 490 0
DWIDTH 8 0
BBX 9 18 -1 -2
BITMAP
00BFD91000
00ADFF8000
00007FC000
00005FC000
00006FB000
00009F9000
00009FA000
00004FFE80
00004EFF90
0000EF7100
0003FE0000
0005FD0000
0006FB0000
0008F90000
0009F80000
004EF40000
7FFFB00000
5CB8100000
ENDCHAR
STARTCHAR asciitilde
ENCODING 126
SWIDTH 700 0
DWIDTH 11 0
BBX 10 4 1 3
BITMAP
06EB2005E1
2FFFF71EE1
9F76EFEF80
9B0019EA00
ENDCHAR
STARTCHAR uni00A0
ENCODING 160
SWIDTH 265 0
DWIDTH 4 0
BBX 1 1 0 0
BITMAP
00
ENDCHAR
STARTCHAR exclamdown
ENCODING 161
SWIDTH 340 0
DWIDTH 5 0
BBX 6 15 -1 -7
BITMAP
0009E8
000FFD
000BE7
000000
000D70
004F70
009F50
00DF20
02FE00
06FC00
0AF900
0EF600
2FF300
5FE000
173000
ENDCHAR
STARTCHAR cent
ENCODING 162
SWIDTH 466 0
DWIDTH 7 0
BBX 7 12 0 -2
BITMAP
0000C200
0001F100
0039F810
04FFFFA0
0DE8ACC0
3FA78C70
4F996050
2FDC58E0
0AFFEF70
008FB500
002F0000
003C0000
ENDCHAR
STARTCHAR sterling
ENCODING 163
SWIDTH 525 0
DWIDTH 8 0
BBX 9 10 0 0
BITMAP
0006CFD600
008FFEFF30
01FE308F40
05FA000200
5EFEDD3000
7FFFFF3000
09F6000000
0AF5000000
7FFDDDDB00
8FFFFFFD00
ENDCHAR
STARTCHAR currency
ENCODING 164
SWIDTH 700 0
DWIDTH 11 0
BBX 8 8 2 1
BITMAP
D77CA4D4
9FFFFFE2
4F814EA0
8E0008E0
8E0008E0
4F813EA0
9FFFFFD2
D87CA5D5
ENDCHAR
STARTCHAR yen
ENCODING 165
SWIDTH 497 0
DWIDTH 8 0
BBX 9 10 0 0
BITMAP
4E60005E70
3FE102EE20
0AF80BF500
02FE7F9000
008FFD1000
2EFFFFF300
024FF22000
4FFFFFF100
026FC22000
004E700000
ENDCHAR
STARTCHAR brokenbar
ENCODING 166
SWIDTH 326 0
DWIDTH 5 0
BBX 5 21 0 -5
BITMAP
000AD0
000FF0
002FD0
004FB0
006F90
008F70
00AF50
00CF30
00DE00
001100
000000
001000
06F600
0AF600
0CF400
0EF200
1FF000
2FD000
4FB000
6F9000
5E4000
ENDCHAR
STARTCHAR section
ENCODING 167
SWIDTH 607 0
DWIDTH 10 0
BBX 8 15 1 0
BITMAP
003BEEA2
01EFEEFA
06F900EE
07F700DC
04FE5032
07FFFC40
1EB4CFF3
2FB008F8
0EFA25F7
04EFFED1
1318EFA0
BE002FE0
CF202FD0
8FFDFF80
18DFD700
ENDCHAR
STARTCHAR dieresis
ENCODING 168
SWIDTH 600 0
DWIDTH 10 0
BBX 6 3 2 9
BITMAP
5C32C7
CF77FC
9E34E7
ENDCHAR
STARTCHAR copyright
ENCODING 169
SWIDTH 647 0
DWIDTH 10 0
BBX 10 10 1 6
BITMAP
004BEEB300
05E6116E50
1E43CE74E1
7C1E64D0C6
995C014099
996B000099
7C3E3280C6
1E47ED54E1
05E6116E50
004BEEB300
ENDCHAR
STARTCHAR ordfeminine
ENCODING 170
SWIDTH 393 0
DWIDTH 6 0
BBX 6 7 1 7
BITMAP
019EA5
0CF7FB
6F73F9
AF26F7
AF4CF6
5FFBF5
022130
ENDCHAR
STARTCHAR guillemotleft
ENCODING 171
SWIDTH 615 0
DWIDTH 10 0
BBX 10 7 0 1
BITMAP
002CA019D1
04EFA2CFD1
4FF82EFB10
8FB04FE100
2EF90CFC10
02EF81CFC0
002D801BB0
ENDCHAR
STARTCHAR logicalnot
ENCODING 172
SWIDTH 700 0
DWIDTH 11 0
BBX 9 6 1 0
BITMAP
5DDDDDDDA0
8FFFFFFFF0
0000001FE0
0000002FC0
0000004FA0
0000000620
ENDCHAR
STARTCHAR uni00AD
ENCODING 173
SWIDTH 403 0
DWIDTH 6 0
BBX 5 2 1 4
BITMAP
ADEFB0
EFEC70
ENDCHAR
STARTCHAR registered
ENCODING 174
SWIDTH 647 0
DWIDTH 10 0
BBX 10 10 1 6
BITMAP
004BEEB300
05E6116E50
1E48ED54E1
7C06A5D0C6
990887B099
990AFB1099
7C0C6E20C6
1E4E1994E1
05E6116E50
004BEEB300
ENDCHAR
STARTCHAR macron
ENCODING 175
SWIDTH 600 0
DWIDTH 10 0
BBX 6 2 2 9
BITMAP
6DDDC4
8FFFF4
ENDCHAR
STARTCHAR degree
ENCODING 176
SWIDTH 385 0
DWIDTH 6 0
BBX 6 6 1 9
BITMAP
03BC40
1EFFF2
5F44F6
6F23F5
3FEEE1
07ED50
ENDCHAR
STARTCHAR plusminus
ENCODING 177
SWIDTH 700 0
DWIDTH 11 0
BBX 9 10 1 0
BITMAP
00007E1000
0000CF1000
0000DE0000
09FFFFFF70
0AEEFFEE50
0003F90000
0005F60000
0001500000
4EEEEEEB00
5FFFFFFB00
ENDCHAR
STARTCHAR uni00B2
ENCODING 178
SWIDTH 450 0
DWIDTH 7 0
BBX 7 8 1 6
BITMAP
07DFC300
5FA7FD00
8E00EF00
2403FC00
002DF300
05EE4000
AFF98710
EFFFFE20
ENDCHAR
STARTCHAR uni00B3
ENCODING 179
SWIDTH 450 0
DWIDTH 7 0
BBX 7 8 1 6
BITMAP
06DFD600
4FB7EF20
4C10CF20
004BF600
008EE600
7501EF10
CE78FE00
3BEEB300
ENDCHAR
STARTCHAR acute
ENCODING 180
SWIDTH 600 0
DWIDTH 10 0
BBX 4 5 4 9
BITMAP
01D8
08FA
0EE2
6F40
9800
ENDCHAR
STARTCHAR uni00B5
ENCODING 181
SWIDTH 462 0
DWIDTH 7 0
BBX 10 13 0 -5
BITMAP
04E508E000
0AF40ED000
0EF14FA000
1FD09F7000
3FB1EF4075
5FDCFF36F5
6FFF9FEFA0
7FE62DE700
7F60000000
8F60000000
8F60000000
8F60000000
2610000000
ENDCHAR
STARTCHAR paragraph
ENCODING 182
SWIDTH 739 0
DWIDTH 12 0
BBX 11 15 1 0
BITMAP
004ADEFEC500
09FFFFEEFF10
3FFFFF83FF30
6FFFFF53FF10
4FFFFF35FD00
0BFFFF17FB00
007CFE09F900
0006FC0CF600
0008F90EF400
000AF71FF200
000DF63FF000
000FF45FD000
001FF27FC000
003FF19FA000
001EB06E6000
ENDCHAR
STARTCHAR periodcentered
ENCODING 183
SWIDTH 257 0
DWIDTH 4 0
BBX 4 3 0 2
BITMAP
0BE6
3FFA
1CE4
ENDCHAR
STARTCHAR cedilla
ENCODING 184
SWIDTH 600 0
DWIDTH 10 0
BBX 5 5 1 -4
BITMAP
1EE900
1CFF60
002F70
BDEF30
CFD500
ENDCHAR
STARTCHAR uni00B9
ENCODING 185
SWIDTH 450 0
DWIDTH 7 0
BBX 5 8 1 6
BITMAP
049DD0
3FEFF0
031FD0
003FA0
005F90
007F70
009F50
007D10
ENDCHAR
STARTCHAR ordmasculine
ENCODING 186
SWIDTH 408 0
DWIDTH 7 0
BBX 6 7 1 7
BITMAP
05DEA1
3FC9F8
8F30EC
AF20EB
8F76F7
1DFFB0
004300
ENDCHAR
STARTCHAR guillemotright
ENCODING 187
SWIDTH 615 0
DWIDTH 10 0
BBX 10 7 0 1
BITMAP
1D900AC100
1DFA0AFC10
02DFA1BFD1
002FF21DF6
02CFD19FF3
2EFB1CFD30
2E800CA100
ENDCHAR
STARTCHAR onequarter
ENCODING 188
SWIDTH 955 0
DWIDTH 15 0
BBX 14 14 1 0
BITMAP
049DD000000000
3FEFF0005E1000
031FD001EF1000
003FA008F80000
005F902EE10000
007F709F700000
009F53FD03E600
007D1BF50CE371
00004FC04F89F2
0000CF30BE1DE0
0005FA02FD8FE5
0004E202EFFFFA
00000000003F80
00000000002E50
ENDCHAR
STARTCHAR onehalf
ENCODING 189
SWIDTH 1024 0
DWIDTH 16 0
BBX 15 14 1 0
BITMAP
049DD00000000000
3FEFF0005E100000
031FD001EF100000
003FA008F8000000
005F902EE1000000
007F709F70000000
009F53FD02BEE800
007D1BF50DE7CF50
00004FC01F706F70
0000CF300410BF40
0005FA000007FA00
0004E20001AFA000
000000004EFC8840
000000007FFFFF80
ENDCHAR
STARTCHAR threequarters
ENCODING 190
SWIDTH 1035 0
DWIDTH 17 0
BBX 16 14 1 0
BITMAP
06DFD60000000000
4FB7EF2002D50000
4C10CF200AF50000
004BF6003FC00000
008EE600CF400000
7501EF15FB000000
CE78FE0DF31CB000
3BEEB37F907F5720
000001EE21EC5F60
000008F807F58F30
00001FE10DF8DF80
00001E500CFFFFE1
000000000000EC00
000000000000C800
ENDCHAR
STARTCHAR questiondown
ENCODING 191
SWIDTH 476 0
DWIDTH 8 0
BBX 8 15 -1 -7
BITMAP
00001CE4
00005FF8
00002DE3
00000000
00003E20
00009F10
0004FC00
003EF400
03EF7000
1DF90000
7FE10590
AFA00AF2
9FC12DF1
4FFFFF80
04ACB600
ENDCHAR
STARTCHAR Agrave
ENCODING 192
SWIDTH 786 0
DWIDTH 13 0
BBX 15 19 0 0
BITMAP
000008E400000000
000009FF50000000
0000008EF6000000
000000019D000000
0000006ADFED9200
00003DFFFFFFF500
0004EFC510146000
002FFA0006E80000
00BFB0000AF90000
04FF30000DF60000
09FC00001FF30000
0DF800005FF00000
0FF500008FD00000
1FF40000DFB00000
1FF50003FF900000
0EF8000BFF900670
09FE318FDFC15F80
02EFFFF95FFFFC10
003BED8008EE9100
ENDCHAR
STARTCHAR Aacute
ENCODING 193
SWIDTH 786 0
DWIDTH 13 0
BBX 15 19 0 0
BITMAP
000000000004E800
00000000005FF900
0000000006FE8000
000000000D920000
0000006ADFED9200
00003DFFFFFFF500
0004EFC510146000
002FFA0006E80000
00BFB0000AF90000
04FF30000DF60000
09FC00001FF30000
0DF800005FF00000
0FF500008FD00000
1FF40000DFB00000
1FF50003FF900000
0EF8000BFF900670
09FE318FDFC15F80
02EFFFF95FFFFC10
003BED8008EE9100
ENDCHAR
STARTCHAR Acircumflex
ENCODING 194
SWIDTH 786 0
DWIDTH 13 0
BBX 15 20 0 0
BITMAP
0000000005600000
000000008FF70000
00000003FBED0000
0000000CF39F3000
0000001E804E3000
0000006ADFED9200
00003DFFFFFFF500
0004EFC510146000
002FFA0006E80000
00BFB0000AF90000
04FF30000DF60000
09FC00001FF30000
0DF800005FF00000
0FF500008FD00000
1FF40000DFB00000
1FF50003FF900000
0EF8000BFF900670
09FE318FDFC15F80
02EFFFF95FFFFC10
003BED8008EE9100
ENDCHAR
STARTCHAR Atilde
ENCODING 195
SWIDTH 786 0
DWIDTH 13 0
BBX 15 19 0 0
BITMAP
0000000271000000
0000002EFE44E300
0000009F7EFEE100
0000004502BE5000
0000006ADFED9200
00003DFFFFFFF500
0004EFC510146000
002FFA0006E80000
00BFB0000AF90000
04FF30000DF60000
09FC00001FF30000
0DF800005FF00000
0FF500008FD00000
1FF40000DFB00000
1FF50003FF900000
0EF8000BFF900670
09FE318FDFC15F80
02EFFFF95FFFFC10
003BED8008EE9100
ENDCHAR
STARTCHAR Adieresis
ENCODING 196
SWIDTH 786 0
DWIDTH 13 0
BBX 15 18 0 0
BITMAP
00000008B14C4000
0000001FF4BF9000
0000000CD17E4000
0000006ADFED9200
00003DFFFFFFF500
0004EFC510146000
002FFA0006E80000
00BFB0000AF90000
04FF30000DF60000
09FC00001FF30000
0DF800005FF00000
0FF500008FD00000
1FF40000DFB00000
1FF50003FF900000
0EF8000BFF900670
09FE318FDFC15F80
02EFFFF95FFFFC10
003BED8008EE9100
ENDCHAR
STARTCHAR Aring
ENCODING 197
SWIDTH 786 0
DWIDTH 13 0
BBX 15 20 0 0
BITMAP
000000005ED40000
00000001FEFD0000
00000004F48F0000
00000002FEFC0000
000000007ED30000
0000006ADFED9200
00003DFFFFFFF500
0004EFC510146000
002FFA0006E80000
00BFB0000AF90000
04FF30000DF60000
09FC00001FF30000
0DF800005FF00000
0FF500008FD00000
1FF40000DFB00000
1FF50003FF900000
0EF8000BFF900670
09FE318FDFC15F80
02EFFFF95FFFFC10
003BED8008EE9100
ENDCHAR
STARTCHAR AE
ENCODING 198
SWIDTH 1015 0
DWIDTH 16 0
BBX 19 15 0 0
BITMAP
0000018DF52CFFFFE200
00005EFFF6BFEDDDB100
0005FFD621FF20000000
003FFB1004FE00000000
00BFC10008FC00000000
04FF40000BF900000000
09FC00000FF700000000
0DF800004FFFFFFE1000
0FF500008FFDDDDB0000
1FF40000CFD000000000
1FF50002FFD000000000
0EF70009FFE100000000
09FD205FAEFA10028E30
02EFFEFD16FFFDEFFC00
002AEEA2004BEFEA5000
ENDCHAR
STARTCHAR Ccedilla
ENCODING 199
SWIDTH 686 0
DWIDTH 11 0
BBX 12 19 1 -4
BITMAP
00018DFD8100
003EFFDFF900
02EFA203FF10
0AFB0000EF30
3FF30000FF20
7FC00000C900
BF9000000000
DF7000000000
EF6000000000
DF7000000000
CFA000000000
7FF200000001
1EFD400016CE
03EFFEDEFFF9
001CFFFDC830
0006BFB00000
00000CD00000
007DEF900000
008EE9100000
ENDCHAR
STARTCHAR Egrave
ENCODING 200
SWIDTH 686 0
DWIDTH 11 0
BBX 13 19 0 0
BITMAP
0008E400000000
0009FF50000000
00008EF6000000
0000029D000000
00005BEFD91000
000AFFEDFFC000
007FF6002EF400
00DF90000BF600
00EF70000CF300
00AFD200057000
001AFFE7000000
006DFFF7000000
08FE7200000000
3FF40000000000
6FE00000000000
7FF10000000020
2FFB2000038DE0
06FFFEDDFFFF80
0029CEFEDB7300
ENDCHAR
STARTCHAR Eacute
ENCODING 201
SWIDTH 686 0
DWIDTH 11 0
BBX 13 19 0 0
BITMAP
0000000004E800
000000005FF900
00000006FE7000
0000000D910000
00005BEFD91000
000AFFEDFFC000
007FF6002EF400
00DF90000BF600
00EF70000CF300
00AFD200057000
001AFFE7000000
006DFFF7000000
08FE7200000000
3FF40000000000
6FE00000000000
7FF10000000020
2FFB2000038DE0
06FFFEDDFFFF80
0029CEFEDB7300
ENDCHAR
STARTCHAR Ecircumflex
ENCODING 202
SWIDTH 686 0
DWIDTH 11 0
BBX 13 20 0 0
BITMAP
00000005600000
0000008FF70000
000003FBED0000
00000CF3AF3000
00001E804E3000
00005BEFD91000
000AFFEDFFC000
007FF6002EF400
00DF90000BF600
00EF70000CF300
00AFD200057000
001AFFE7000000
006DFFF7000000
08FE7200000000
3FF40000000000
6FE00000000000
7FF10000000020
2FFB2000038DE0
06FFFEDDFFFF80
0029CEFEDB7300
ENDCHAR
STARTCHAR Edieresis
ENCODING 203
SWIDTH 686 0
DWIDTH 11 0
BBX 13 18 0 0
BITMAP
000009B15C4000
00001FF4BF9000
00000CD18E4000
00005BEFD91000
000AFFEDFFC000
007FF6002EF400
00DF90000BF600
00EF70000CF300
00AFD200057000
001AFFE7000000
006DFFF7000000
08FE7200000000
3FF40000000000
6FE00000000000
7FF10000000020
2FFB2000038DE0
06FFFEDDFFFF80
0029CEFEDB7300
ENDCHAR
STARTCHAR Igrave
ENCODING 204
SWIDTH 495 0
DWIDTH 8 0
BBX 10 19 -1 0
BITMAP
009D300000
00AFE40000
0018FF5000
00002AC000
003DFFFFFB
003CDFFDD7
00002FF200
00004FF000
00006FD000
00008FB000
0000AF9000
0000CF7000
0000EF4000
0001FF3000
0003FF1000
0005FE0000
0007FC0000
19CEFEDA00
2EFFFFFC00
ENDCHAR
STARTCHAR Iacute
ENCODING 205
SWIDTH 495 0
DWIDTH 8 0
BBX 11 19 -1 0
BITMAP
000000004E70
00000006FF80
0000007FE700
000000E91000
003DFFFFFB00
003CDFFDD700
00002FF20000
00004FF00000
00006FD00000
00008FB00000
0000AF900000
0000CF700000
0000EF400000
0001FF300000
0003FF100000
0005FE000000
0007FC000000
19CEFEDA0000
2EFFFFFC0000
ENDCHAR
STARTCHAR Icircumflex
ENCODING 206
SWIDTH 495 0
DWIDTH 8 0
BBX 10 20 -1 0
BITMAP
0000005600
000009FF60
00004FBEC0
0000DF2BF2
0002E705E2
003DFFFFFB
003CDFFDD7
00002FF200
00004FF000
00006FD000
00008FB000
0000AF9000
0000CF7000
0000EF4000
0001FF3000
0003FF1000
0005FE0000
0007FC0000
19CEFEDA00
2EFFFFFC00
ENDCHAR
STARTCHAR Idieresis
ENCODING 207
SWIDTH 495 0
DWIDTH 8 0
BBX 10 18 -1 0
BITMAP
00009B15C3
0002FF3CF8
0001DC19E3
003DFFFFFB
003CDFFDD7
00002FF200
00004FF000
00006FD000
00008FB000
0000AF9000
0000CF7000
0000EF4000
0001FF3000
0003FF1000
0005FE0000
0007FC0000
19CEFEDA00
2EFFFFFC00
ENDCHAR
STARTCHAR Eth
ENCODING 208
SWIDTH 821 0
DWIDTH 13 0
BBX 13 15 0 0
BITMAP
0000AEFEC61000
0003FFDEFFC200
0008FB005EFB00
000CF60004FF40
001FF30000CF90
004FE000009FB0
5CEFFDC9008FC0
9FFFFFFC009FB0
00EF500000BF90
01FF300001FF50
04FF000007FE00
05FE00004EF600
07FC0017EFA000
08FFDEFFF80000
04CEFEC9300000
ENDCHAR
STARTCHAR Ntilde
ENCODING 209
SWIDTH 884 0
DWIDTH 14 0
BBX 17 19 0 0
BITMAP
000000164000000000
000000BFF81C800000
000004FABFEF600000
0000016008E9000000
018DE5005CFC400000
1CFEFD06FEEFD00000
AE43FE2F703FF30000
E503FDA9001FF40000
2004FDE1003FF20000
0006FF90006FE00000
0008FF40009FC00000
000AFE0000CF900000
000BFA0000EF600000
000EF70002FF300000
001FF40004FF100000
003FF20005FE000910
005FF00004FF209F10
006FD00000DFEEF600
003E8000003CEC5000
ENDCHAR
STARTCHAR Ograve
ENCODING 210
SWIDTH 816 0
DWIDTH 13 0
BBX 12 19 1 0
BITMAP
005E60000000
006FF8000000
0005DF900000
000017E20000
00018DFDA200
002EFFDFFE30
02EFA101CFD1
0AFB00002FF5
2FF300000CF9
7FC0000009FB
BF90000009FB
DF7000000AFA
EF6000000CF8
EF6000001FF4
CF8000006FE0
8FD00001DF70
2FF9002CFC00
06FFEEFFC100
004BEFC70000
ENDCHAR
STARTCHAR Oacute
ENCODING 211
SWIDTH 816 0
DWIDTH 13 0
BBX 12 19 1 0
BITMAP
000000002CB0
00000002DFD0
0000003EFA10
000000AB3000
00018DFDA200
002EFFDFFE30
02EFA101CFD1
0AFB00002FF5
2FF300000CF9
7FC0000009FB
BF90000009FB
DF7000000AFA
EF6000000CF8
EF6000001FF4
CF8000006FE0
8FD00001DF70
2FF9002CFC00
06FFEEFFC100
004BEFC70000
ENDCHAR
STARTCHAR Ocircumflex
ENCODING 212
SWIDTH 816 0
DWIDTH 13 0
BBX 12 20 1 0
BITMAP
000000371000
000004FFA000
00001DEBF100
00009F76F700
0000BB01D600
00018DFDA200
002EFFDFFE30
02EFA101CFD1
0AFB00002FF5
2FF300000CF9
7FC0000009FB
BF90000009FB
DF7000000AFA
EF6000000CF8
EF6000001FF4
CF8000006FE0
8FD00001DF70
2FF9002CFC00
06FFEEFFC100
004BEFC70000
ENDCHAR
STARTCHAR Otilde
ENCODING 213
SWIDTH 816 0
DWIDTH 13 0
BBX 12 19 1 0
BITMAP
000017300000
0000CFF71D70
0005F9CFEF40
00026019E800
00018DFDA200
002EFFDFFE30
02EFA101CFD1
0AFB00002FF5
2FF300000CF9
7FC0000009FB
BF90000009FB
DF7000000AFA
EF6000000CF8
EF6000001FF4
CF8000006FE0
8FD00001DF70
2FF9002CFC00
06FFEEFFC100
004BEFC70000
ENDCHAR
STARTCHAR Odieresis
ENCODING 214
SWIDTH 816 0
DWIDTH 13 0
BBX 12 18 1 0
BITMAP
00006C32C700
0000CF87FD00
00009E34E700
00018DFDA200
002EFFDFFE30
02EFA101CFD1
0AFB00002FF5
2FF300000CF9
7FC0000009FB
BF90000009FB
DF7000000AFA
EF6000000CF8
EF6000001FF4
CF8000006FE0
8FD00001DF70
2FF9002CFC00
06FFEEFFC100
004BEFC70000
ENDCHAR
STARTCHAR multiply
ENCODING 215
SWIDTH 700 0
DWIDTH 11 0
BBX 9 8 1 1
BITMAP
04E3002D70
07FD12DF70
00CFBDF800
002EFF8000
002DFF5000
02DFBFE300
1EF709FD00
1E7000BA00
ENDCHAR
STARTCHAR Oslash
ENCODING 216
SWIDTH 816 0
DWIDTH 13 0
BBX 12 18 1 -2
BITMAP
0000001DA000
00018DFFC200
002DFFEFFF30
02EF91CEBFD0
0AFB01FA2FF5
2FF304F60CF9
7FC007F30AFB
BF900BE009FB
DF700EB00AF9
EF603F800CF8
EF606F401FF4
CF90AF106FE0
9FD0DC01DF60
3FFAF92BFC00
07FFFEFFC100
005EFFC70000
000DD0000000
000D80000000
ENDCHAR
STARTCHAR Ugrave
ENCODING 217
SWIDTH 890 0
DWIDTH 14 0
BBX 17 19 0 0
BITMAP
00007E400000000000
00008FF50000000000
000007EF7000000000
00000019D000000000
018DE8000009E20000
1CFEFF20000EF50000
9F50FF50001FF40000
E600FF40003FF20000
2002FF30005FF00000
0005FF00008FD00000
0008FC0000CFA00000
000BF90001FF800000
000EF60006FF600000
002FF3000CFF400000
004FF0004DEF300000
006FE001D8FF200B30
005FF54CE2FF83BF20
001FFFFF40CFFFF700
0005DFC3003CED5000
ENDCHAR
STARTCHAR Uacute
ENCODING 218
SWIDTH 890 0
DWIDTH 14 0
BBX 17 19 0 0
BITMAP
00000000003D900000
0000000004EFA00000
000000005FF8100000
00000000CA20000000
018DE8000009E20000
1CFEFF20000EF50000
9F50FF50001FF40000
E600FF40003FF20000
2002FF30005FF00000
0005FF00008FD00000
0008FC0000CFA00000
000BF90001FF800000
000EF60006FF600000
002FF3000CFF400000
004FF0004DEF300000
006FE001D8FF200B30
005FF54CE2FF83BF20
001FFFFF40CFFFF700
0005DFC3003CED5000
ENDCHAR
STARTCHAR Ucircumflex
ENCODING 219
SWIDTH 890 0
DWIDTH 14 0
BBX 17 20 0 0
BITMAP
000000004600000000
00000007FF70000000
0000002FCDD0000000
000000CF49F4000000
000000D903E4000000
018DE8000009E20000
1CFEFF20000EF50000
9F50FF50001FF40000
E600FF40003FF20000
2002FF30005FF00000
0005FF00008FD00000
0008FC0000CFA00000
000BF90001FF800000
000EF60006FF600000
002FF3000CFF400000
004FF0004DEF300000
006FE001D8FF200B30
005FF54CE2FF83BF20
001FFFFF40CFFFF700
0005DFC3003CED5000
ENDCHAR
STARTCHAR Udieresis
ENCODING 220
SWIDTH 890 0
DWIDTH 14 0
BBX 17 18 0 0
BITMAP
0000008B24C5000000
000000FF5AFA000000
000000CD17E5000000
018DE8000009E20000
1CFEFF20000EF50000
9F50FF50001FF40000
E600FF40003FF20000
2002FF30005FF00000
0005FF00008FD00000
0008FC0000CFA00000
000BF90001FF800000
000EF60006FF600000
002FF3000CFF400000
004FF0004DEF300000
006FE001D8FF200B30
005FF54CE2FF83BF20
001FFFFF40CFFFF700
0005DFC3003CED5000
ENDCHAR
STARTCHAR Yacute
ENCODING 221
SWIDTH 851 0
DWIDTH 14 0
BBX 16 24 0 -5
BITMAP
00000000002CC000
0000000002DFD000
000000003EFA1000
000000009B300000
018DE8000009E300
1DFEFF30000EF600
BE40FF50001FF400
D400FF40004FF200
0003FF20007FE000
0006FE0000CFC000
0009FB0002FFA000
000CF70008FF8000
000DF6002EDF6000
000DF802DBCF4000
0008FFDFD2EF79C3
0001AED913FFFFF3
00000004BFFE8510
000001AFFFFB0000
00001CFD57F80000
00009FA00AF40000
0000FE001EE00000
0002FE00AF700000
0000DFEEFB000000
00003CED81000000
ENDCHAR
STARTCHAR Thorn
ENCODING 222
SWIDTH 776 0
DWIDTH 12 0
BBX 13 18 0 -2
BITMAP
000000BE100000
000002FF100000
000004FE000000
000007FFCA3000
0001AFFFFFF700
002DEDF82BFF20
00BE2DF601FF60
05F60FF400EF70
0BF12FF202FF40
0EC04FF009FD00
2F93AFD6CFF400
4F89FFFFFC3000
5F72DFB5300000
4F80DF50000000
2FA1FF20000000
0DD6FE00000000
06FFFB00000000
007ED300000000
ENDCHAR
STARTCHAR germandbls
ENCODING 223
SWIDTH 596 0
DWIDTH 10 0
BBX 12 18 0 -4
BITMAP
00007BC91000
000BFFFFB000
009FA12EF200
02FE100CF100
07F8007FB000
0AF40AFC1000
0DF18FB00000
0FE0BF800000
1FD06FF84200
2FC08FFFFFE4
3FC6F94FF7A5
3FCAF30DF200
4FC8FFEFD000
4FB19EEB2000
4FB000000000
5FB000000000
5FB000000000
163000000000
ENDCHAR
STARTCHAR agrave
ENCODING 224
SWIDTH 470 0
DWIDTH 8 0
BBX 10 14 0 0
BITMAP
00AC000000
00CF500000
003FC00000
0007F30000
0000A60000
0000000000
002AE73000
02DFEFE000
0BF92FC000
2FE15F9000
5FA08F7055
6FA1DF64F7
3FFEEFEFB1
08EC28EA10
ENDCHAR
STARTCHAR aacute
ENCODING 225
SWIDTH 470 0
DWIDTH 8 0
BBX 10 14 0 0
BITMAP
000001CA00
000006FB00
00000CF300
00004F6000
0000790000
0000000000
002AE73000
02DFEFE000
0BF92FC000
2FE15F9000
5FA08F7055
6FA1DF64F7
3FFEEFEFB1
08EC28EA10
ENDCHAR
STARTCHAR acircumflex
ENCODING 226
SWIDTH 470 0
DWIDTH 8 0
BBX 10 15 0 0
BITMAP
0000172000
0000BFC000
0005FCF100
000DD5F400
006F63F800
009C01D700
0000000000
002AE73000
02DFEFE000
0BF92FC000
2FE15F9000
5FA08F7055
6FA1DF64F7
3FFEEFEFB1
08EC28EA10
ENDCHAR
STARTCHAR atilde
ENCODING 227
SWIDTH 470 0
DWIDTH 8 0
BBX 10 13 0 0
BITMAP
0006400000
00AFF81C70
03F9BFEF50
016008E800
0000000000
002AE73000
02DFEFE000
0BF92FC000
2FE15F9000
5FA08F7055
6FA1DF64F7
3FFEEFEFB1
08EC28EA10
ENDCHAR
STARTCHAR adieresis
ENCODING 228
SWIDTH 470 0
DWIDTH 8 0
BBX 10 12 0 0
BITMAP
004C41B800
00AF95FE00
007E43E900
0000000000
002AE73000
02DFEFE000
0BF92FC000
2FE15F9000
5FA08F7055
6FA1DF64F7
3FFEEFEFB1
08EC28EA10
ENDCHAR
STARTCHAR aring
ENCODING 229
SWIDTH 470 0
DWIDTH 8 0
BBX 10 14 0 0
BITMAP
0002CE8000
000BFEF300
000E92F500
000CFEF200
0003DE7000
0000000000
002AE73000
02DFEFE000
0BF92FC000
2FE15F9000
5FA08F7055
6FA1DF64F7
3FFEEFEFB1
08EC28EA10
ENDCHAR
STARTCHAR ae
ENCODING 230
SWIDTH 653 0
DWIDTH 10 0
BBX 13 8 0 0
BITMAP
0029DE6DE90000
02EFFEFFFF4000
0CF91DF26F4000
3FD03FB2CD1000
5F907FEFC30750
5FA0CFF502AF60
2FFEFBFFDFF900
06ED519EEC5000
ENDCHAR
STARTCHAR ccedilla
ENCODING 231
SWIDTH 368 0
DWIDTH 6 0
BBX 8 13 0 -5
BITMAP
007DE400
07FEFC00
1EF2BD00
5FB0CA00
7F901002
7F90005E
3FD105F9
0AFEEF90
01EFF400
0004F700
0004F700
0EFFE200
0ACA3000
ENDCHAR
STARTCHAR egrave
ENCODING 232
SWIDTH 393 0
DWIDTH 6 0
BBX 9 14 0 0
BITMAP
06E3000000
07FA000000
01DF200000
002E800000
0005B00000
0000000000
007DE70000
09FEFF1000
2FD19F2000
6F83EC0000
6FEFB20930
4FE303BF30
0DFFDFF700
02AEEB4000
ENDCHAR
STARTCHAR eacute
ENCODING 233
SWIDTH 393 0
DWIDTH 6 0
BBX 9 14 0 0
BITMAP
000008D100
00001FF200
00008F7000
0000EB0000
0002D10000
0000000000
007DE70000
09FEFF1000
2FD19F2000
6F83EC0000
6FEFB20930
4FE303BF30
0DFFDFF700
02AEEB4000
ENDCHAR
STARTCHAR ecircumflex
ENCODING 234
SWIDTH 393 0
DWIDTH 6 0
BBX 9 15 0 0
BITMAP
0000550000
0006FF2000
001ECF6000
008F3F9000
02FB0ED000
05E30AC000
0000000000
007DE70000
09FEFF1000
2FD19F2000
6F83EC0000
6FEFB20930
4FE303BF30
0DFFDFF700
02AEEB4000
ENDCHAR
STARTCHAR edieresis
ENCODING 235
SWIDTH 393 0
DWIDTH 6 0
BBX 9 12 0 0
BITMAP
01B808B100
05FE0FF400
03E90CD100
0000000000
007DE70000
09FEFF1000
2FD19F2000
6F83EC0000
6FEFB20930
4FE303BF30
0DFFDFF700
02AEEB4000
ENDCHAR
STARTCHAR igrave
ENCODING 236
SWIDTH 246 0
DWIDTH 4 0
BBX 7 14 -1 0
BITMAP
1D800000
1FF10000
07F80000
00BE0000
001D3000
00000000
006E4000
00BF4000
00EF1000
02FD0000
03FB01A0
03FB1CD0
01FFEF40
007EC300
ENDCHAR
STARTCHAR iacute
ENCODING 237
SWIDTH 246 0
DWIDTH 4 0
BBX 6 14 0 0
BITMAP
0003E6
000AF7
002FD1
008E30
00B600
000000
06E400
0BF400
0EF100
2FD000
3FB01A
3FB1CD
1FFEF4
07EC30
ENDCHAR
STARTCHAR icircumflex
ENCODING 238
SWIDTH 246 0
DWIDTH 4 0
BBX 6 15 0 0
BITMAP
003710
01EF80
09FDC0
2F99F1
AF27F4
D804E3
000000
06E400
0BF400
0EF100
2FD000
3FB01A
3FB1CD
1FFEF4
07EC30
ENDCHAR
STARTCHAR idieresis
ENCODING 239
SWIDTH 246 0
DWIDTH 4 0
BBX 6 12 0 0
BITMAP
7C23C5
EF59FA
BD16E5
000000
06E400
0BF400
0EF100
2FD000
3FB01A
3FB1CD
1FFEF4
07EC30
ENDCHAR
STARTCHAR eth
ENCODING 240
SWIDTH 451 0
DWIDTH 7 0
BBX 9 16 0 0
BITMAP
008E300000
004FD15E30
0008FCFE10
0005FFC200
009FFF6000
00AB6FB000
00000EF000
00000DF200
008EEEF400
09FFEFF400
2FE11DF300
6F900DF100
7F801FD000
5FC08F8000
1EFEFE1000
03CEC30000
ENDCHAR
STARTCHAR ntilde
ENCODING 241
SWIDTH 496 0
DWIDTH 8 0
BBX 10 13 0 0
BITMAP
0006400000
008FF91B90
02FAAFEF60
006107E900
0000000000
05E42BE300
0BF3DFF500
0EE9DEF300
1FDF4DF100
2FFB1FD01A
3FF63FB1CD
2FF13FFEE4
0CA00AEB30
ENDCHAR
STARTCHAR ograve
ENCODING 242
SWIDTH 451 0
DWIDTH 7 0
BBX 10 14 0 0
BITMAP
07D2000000
08F9000000
01DE100000
003F700000
0006A00000
0000000000
008EE80000
09FEFF6000
2FE1EFC141
6F90AFFFF5
7F801FEC91
5FC05F8000
1DFEFE2000
03CEC30000
ENDCHAR
STARTCHAR oacute
ENCODING 243
SWIDTH 451 0
DWIDTH 7 0
BBX 10 14 0 0
BITMAP
000009D100
00002FE100
00009F6000
0001EA0000
0003C10000
0000000000
008EE80000
09FEFF6000
2FE1EFC141
6F90AFFFF5
7F801FEC91
5FC05F8000
1DFEFE2000
03CEC30000
ENDCHAR
STARTCHAR ocircumflex
ENCODING 244
SWIDTH 451 0
DWIDTH 7 0
BBX 10 15 0 0
BITMAP
0000640000
0008FF1000
002ECF4000
00AF3F8000
03FA0FB000
06D20BA000
0000000000
008EE80000
09FEFF6000
2FE1EFC141
6F90AFFFF5
7F801FEC91
5FC05F8000
1DFEFE2000
03CEC30000
ENDCHAR
STARTCHAR otilde
ENCODING 245
SWIDTH 451 0
DWIDTH 7 0
BBX 10 13 0 0
BITMAP
0055000000
06FFA19B00
0EC9FEF800
06205EB100
0000000000
008EE80000
09FEFF6000
2FE1EFC141
6F90AFFFF5
7F801FEC91
5FC05F8000
1DFEFE2000
03CEC30000
ENDCHAR
STARTCHAR odieresis
ENCODING 246
SWIDTH 451 0
DWIDTH 7 0
BBX 10 12 0 0
BITMAP
02B709B000
06FD2FF300
04E80DC000
0000000000
008EE80000
09FEFF6000
2FE1EFC141
6F90AFFFF5
7F801FEC91
5FC05F8000
1DFEFE2000
03CEC30000
ENDCHAR
STARTCHAR divide
ENCODING 247
SWIDTH 700 0
DWIDTH 11 0
BBX 9 10 1 0
BITMAP
0000AB1000
0003FF3000
0001DC1000
0000000000
5DDDDDDDB0
8FFFFFFFD0
0000000000
0008C20000
000FF60000
000BE20000
ENDCHAR
STARTCHAR oslash
ENCODING 248
SWIDTH 459 0
DWIDTH 7 0
BBX 10 12 0 -2
BITMAP
0000B40000
0000F20000
009EF90000
09FEFF9000
2FD8BEE021
6F8A7CFFF7
7F8C5DFCA2
5FBF5FB000
1EFFEF4000
03DFD50000
007A000000
0096000000
ENDCHAR
STARTCHAR ugrave
ENCODING 249
SWIDTH 462 0
DWIDTH 7 0
BBX 10 14 0 0
BITMAP
01D8000000
01FF200000
007F800000
000AE10000
0001D30000
0000000000
04E508E000
0AF40ED000
0EF14FA000
1FD09F7000
2FB1EF4075
3FDCFF36F5
1FFF9FEFA0
08E62DE700
ENDCHAR
STARTCHAR uacute
ENCODING 250
SWIDTH 462 0
DWIDTH 7 0
BBX 10 14 0 0
BITMAP
000003E600
00000AF800
00001FD100
00007F3000
0000A60000
0000000000
04E508E000
0AF40ED000
0EF14FA000
1FD09F7000
2FB1EF4075
3FDCFF36F5
1FFF9FEFA0
08E62DE700
ENDCHAR
STARTCHAR ucircumflex
ENCODING 251
SWIDTH 462 0
DWIDTH 7 0
BBX 10 15 0 0
BITMAP
0000271000
0001EF8000
0008FCC000
002F99F100
00AF27F400
00D904E400
0000000000
04E508E000
0AF40ED000
0EF14FA000
1FD09F7000
2FB1EF4075
3FDCFF36F5
1FFF9FEFA0
08E62DE700
ENDCHAR
STARTCHAR udieresis
ENCODING 252
SWIDTH 462 0
DWIDTH 7 0
BBX 10 12 0 0
BITMAP
007C23C500
00EF59FA00
00AD26E500
0000000000
04E508E000
0AF40ED000
0EF14FA000
1FD09F7000
2FB1EF4075
3FDCFF36F5
1FFF9FEFA0
08E62DE700
ENDCHAR
STARTCHAR yacute
ENCODING 253
SWIDTH 479 0
DWIDTH 8 0
BBX 10 22 0 -8
BITMAP
000003E600
00000AF800
00001FD100
00007F3000
0000A60000
0000000000
04E508E000
0AF40EE000
0EF14FB000
1FD09F9000
2FB1EF7194
3FDCFF7DF4
1FFFBFFE40
08E6CFB100
0009FD0000
00AFF90000
08E8F60000
4F58F20000
CB0DD00000
F86F700000
FFFD100000
6EC3000000
ENDCHAR
STARTCHAR thorn
ENCODING 254
SWIDTH 508 0
DWIDTH 8 0
BBX 11 20 0 -6
BITMAP
003700000000
00DF20000000
02FE00000000
04FB00000000
07F800000000
0AF500000000
0CF27EB10000
0EF7FFF60000
1FEE48F80000
3FFA09F70000
4FF40CF31C20
5FE08FC1BE10
6FDDFFEEF500
7FFD89EC4000
8F6000000000
8F6000000000
9F6000000000
9F6000000000
9F6000000000
261000000000
ENDCHAR
STARTCHAR ydieresis
ENCODING 255
SWIDTH 479 0
DWIDTH 8 0
BBX 10 20 0 -8
BITMAP
007C23C500
00EF59FA00
00AD26E500
0000000000
04E508E000
0AF40EE000
0EF14FB000
1FD09F9000
2FB1EF7194
3FDCFF7DF4
1FFFBFFE40
08E6CFB100
0009FD0000
00AFF90000
08E8F60000
4F58F20000
CB0DD00000
F86F700000
FFFD100000
6EC3000000
ENDCHAR
STARTCHAR Amacron
ENCODING 256
SWIDTH 786 0
DWIDTH 13 0
BBX 15 17 0 0
BITMAP
00000009DDDC1000
0000000CFFFE1000
0000006ADFED9200
00003DFFFFFFF500
0004EFC510146000
002FFA0006E80000
00BFB0000AF90000
04FF30000DF60000
09FC00001FF30000
0DF800005FF00000
0FF500008FD00000
1FF40000DFB00000
1FF50003FF900000
0EF8000BFF900670
09FE318FDFC15F80
02EFFFF95FFFFC10
003BED8008EE9100
ENDCHAR
STARTCHAR amacron
ENCODING 257
SWIDTH 470 0
DWIDTH 8 0
BBX 10 11 0 0
BITMAP
005DDDD500
007FFFF500
0000000000
002AE73000
02DFEFE000
0BF92FC000
2FE15F9000
5FA08F7055
6FA1DF64F7
3FFEEFEFB1
08EC28EA10
ENDCHAR
STARTCHAR Abreve
ENCODING 258
SWIDTH 786 0
DWIDTH 13 0
BBX 15 18 0 0
BITMAP
0000005E5008E100
0000004FFDEFC000
00000005CFE91000
0000006ADFED9200
00003DFFFFFFF500
0004EFC510146000
002FFA0006E80000
00BFB0000AF90000
04FF30000DF60000
09FC00001FF30000
0DF800005FF00000
0FF500008FD00000
1FF40000DFB00000
1FF50003FF900000
0EF8000BFF900670
09FE318FDFC15F80
02EFFFF95FFFFC10
003BED8008EE9100
ENDCHAR
STARTCHAR abreve
ENCODING 259
SWIDTH 470 0
DWIDTH 8 0
BBX 10 13 0 0
BITMAP
00D7001D50
01FE20AF50
00AFEEFD00
0019EEA100
0000000000
002AE73000
02DFEFE000
0BF92FC000
2FE15F9000
5FA08F7055
6FA1DF64F7
3FFEEFEFB1
08EC28EA10
ENDCHAR
STARTCHAR Aogonek
ENCODING 260
SWIDTH 786 0
DWIDTH 13 0
BBX 15 19 0 -4
BITMAP
0000006ADFEDA200
00003DFFEDEFF500
0004EFA300124000
002FF90006F90000
00BFB0000AF90000
04FF30000DF60000
09FC00001FF30000
0DF800005FF00000
0FF600008FD00000
1FF40000DFB00000
1FF50003FF900000
0EF7000AFF900470
09FD206FDFC03E80
02EFFEFA6FFEFB00
003BED8009FF7000
0000000008E30000
000000000EB00000
000000000DFA9200
0000000003CFC100
ENDCHAR
STARTCHAR aogonek
ENCODING 261
SWIDTH 470 0
DWIDTH 8 0
BBX 10 12 0 -4
BITMAP
002AE73000
02DFEFE000
0BFA2FC000
2FE15FA000
5FA08F7045
6FA1DF64E7
3FFEEFEFB1
08EC3DF810
00008E4000
0000EA0000
0000DE9810
00004DFC10
ENDCHAR
STARTCHAR Cacute
ENCODING 262
SWIDTH 686 0
DWIDTH 11 0
BBX 12 19 1 0
BITMAP
000000002CB0
00000003EFC0
0000004EF910
000000AB3000
00018DFD8100
003EFFDFF900
02EFA203FF10
0AFB0000EF30
3FF30000FF20
7FC00000C900
BF9000000000
DF7000000000
EF6000000000
DF7000000000
BFA000000000
6FF200000001
1DFD400016CE
02DFFEDEFFF9
0017CEFDB720
ENDCHAR
STARTCHAR cacute
ENCODING 263
SWIDTH 368 0
DWIDTH 6 0
BBX 8 14 0 0
BITMAP
00000AD0
00003FE1
00009F60
0001EA00
0004C100
00000000
007EE500
08FEFD00
2FE2BD00
6FA07500
7F90002A
5FD104DC
1EFEEFE3
03BEE910
ENDCHAR
STARTCHAR Ccircumflex
ENCODING 264
SWIDTH 686 0
DWIDTH 11 0
BBX 12 20 1 0
BITMAP
000000371000
000005FFA000
00001EEBF100
00009F66F600
0000CB02E600
00018DFD8100
003EFFDFF900
02EFA203FF10
0AFB0000EF30
3FF30000FF20
7FC00000C900
BF9000000000
DF7000000000
EF6000000000
DF7000000000
BFA000000000
6FF200000001
1DFD400016CE
02DFFEDEFFF9
0017CEFDB720
ENDCHAR
STARTCHAR ccircumflex
ENCODING 265
SWIDTH 368 0
DWIDTH 6 0
BBX 8 15 0 0
BITMAP
00006400
0008FF10
002FCF40
00AF4F80
03F90FB0
06D20BA0
00000000
007EE500
08FEFD00
2FE2BD00
6FA07500
7F90002A
5FD104DC
1EFEEFE3
03BEE910
ENDCHAR
STARTCHAR Cdotaccent
ENCODING 266
SWIDTH 686 0
DWIDTH 11 0
BBX 12 18 1 0
BITMAP
000001AB2000
000007FF5000
000003EC1000
00018DFD8100
003EFFDFF900
02EFA203FF10
0AFB0000EF30
3FF30000FF20
7FC00000C900
BF9000000000
DF7000000000
EF6000000000
DF7000000000
BFA000000000
6FF200000001
1DFD400016CE
02DFFEDEFFF9
0017CEFDB720
ENDCHAR
STARTCHAR cdotaccent
ENCODING 267
SWIDTH 368 0
DWIDTH 6 0
BBX 8 12 0 0
BITMAP
0007C500
001FFB00
000BE500
00000000
007EE500
08FEFD00
2FE2BD00
6FA07500
7F90002A
5FD104DC
1EFEEFE3
03BEE910
ENDCHAR
STARTCHAR Ccaron
ENCODING 268
SWIDTH 686 0
DWIDTH 11 0
BBX 12 20 1 0
BITMAP
000016003500
00006F41ED00
00001FA8F400
000009EFA000
000002DC1000
00018DFD8100
003EFFDFF900
02EFA203FF10
0AFB0000EF30
3FF30000FF20
7FC00000C900
BF9000000000
DF7000000000
EF6000000000
DF7000000000
BFA000000000
6FF200000001
1DFD400016CE
02DFFEDEFFF9
0017CEFDB720
ENDCHAR
STARTCHAR ccaron
ENCODING 269
SWIDTH 368 0
DWIDTH 6 0
BBX 8 15 0 0
BITMAP
00350053
00CE05F7
009F1CE1
005F7F60
002FED00
000BD300
00000000
007EE500
08FEFD00
2FE2BD00
6FA07500
7F90002A
5FD104DC
1EFEEFE3
03BEE910
ENDCHAR
STARTCHAR Dcaron
ENCODING 270
SWIDTH 836 0
DWIDTH 13 0
BBX 14 20 0 0
BITMAP
00000620161000
00000FA09F3000
00000AF3FA0000
000003FEE10000
000000AE500000
0017BDFEC71000
07EFFFEFFFE300
3FE930004DFE10
1821510002EF80
000BF800008FD0
000EF500005FF0
002FF100005FF1
005FD000005FE0
009FA000008FD0
00BF800000CF90
00EF600004FF40
01FF40001DFB00
02FF2015DFD100
03FFEEFFFB1000
01BDFFDA500000
ENDCHAR
STARTCHAR dcaron
ENCODING 271
SWIDTH 470 0
DWIDTH 8 0
BBX 11 16 0 0
BITMAP
000000001840
0000009E6F90
000000FF7F50
000002FE4D00
000004FC0000
000005F90000
000007F60000
000009F40000
002AEEF10000
02EFEFE00000
0BF92FB00000
2FE15F900000
5FA08F705500
6FA1DF64F700
3FFEEFEFB100
08EC28EA1000
ENDCHAR
STARTCHAR Dcroat
ENCODING 272
SWIDTH 821 0
DWIDTH 13 0
BBX 13 15 0 0
BITMAP
0000AEFEC61000
0003FFDEFFC200
0008FB005EFB00
000CF60004FF40
001FF30000CF90
004FE000009FB0
5CEFFDC9008FC0
9FFFFFFC009FB0
00EF500000BF90
01FF300001FF50
04FF000007FE00
05FE00004EF600
07FC0017EFA000
08FFDEFFF80000
04CEFEC9300000
ENDCHAR
STARTCHAR dcroat
ENCODING 273
SWIDTH 470 0
DWIDTH 8 0
BBX 10 15 0 0
BITMAP
0000009E20
000000FF20
000002FF00
003CDDFF90
005FFFFE70
000007F700
000009F400
002AEEF200
02EFEFE000
0BF92FC000
2FE15F9000
5FA08F7055
6FA1DF64F7
3FFEEFEFB1
08EC28EA10
ENDCHAR
STARTCHAR Emacron
ENCODING 274
SWIDTH 686 0
DWIDTH 11 0
BBX 13 17 0 0
BITMAP
000009DDDC1000
00000CFFFE1000
00005BEFD91000
000AFFEDFFC000
007FF6002EF400
00DF90000BF600
00EF70000CF300
00AFD200057000
001AFFE7000000
006DFFF7000000
08FE7200000000
3FF40000000000
6FE00000000000
7FF10000000020
2FFB2000038DE0
06FFFEDDFFFF80
0029CEFEDB7300
ENDCHAR
STARTCHAR emacron
ENCODING 275
SWIDTH 393 0
DWIDTH 6 0
BBX 9 11 0 0
BITMAP
01CDDD9000
02EFFFA000
0000000000
007DE70000
09FEFF1000
2FD19F2000
6F83EC0000
6FEFB20930
4FE303BF30
0DFFDFF700
02AEEB4000
ENDCHAR
STARTCHAR Ebreve
ENCODING 276
SWIDTH 686 0
DWIDTH 11 0
BBX 13 18 0 0
BITMAP
00005E5009E100
00004FFDEFC000
000006CFE91000
00005BEFD91000
000AFFEDFFC000
007FF6002EF400
00DF90000BF600
00EF70000CF300
00AFD200057000
001AFFE7000000
006DFFF7000000
08FE7200000000
3FF40000000000
6FE00000000000
7FF10000000020
2FFB2000038DE0
06FFFEDDFFFF80
0029CEFEDB7300
ENDCHAR
STARTCHAR ebreve
ENCODING 277
SWIDTH 393 0
DWIDTH 6 0
BBX 9 13 0 0
BITMAP
09C000A900
0BF505FA00
05FFDFF300
006DFC4000
0000000000
007DE70000
09FEFF1000
2FD19F2000
6F83EC0000
6FEFB20930
4FE303BF30
0DFFDFF700
02AEEB4000
ENDCHAR
STARTCHAR Edotaccent
ENCODING 278
SWIDTH 686 0
DWIDTH 11 0
BBX 13 18 0 0
BITMAP
0000003CA00000
000000AFF20000
0000006EA00000
00005BEFD91000
000AFFEDFFC000
007FF6002EF400
00DF90000BF600
00EF70000CF300
00AFD200057000
001AFFE7000000
006DFFF7000000
08FE7200000000
3FF40000000000
6FE00000000000
7FF10000000020
2FFB2000038DE0
06FFFEDDFFFF80
0029CEFEDB7300
ENDCHAR
STARTCHAR edotaccent
ENCODING 279
SWIDTH 393 0
DWIDTH 6 0
BBX 9 12 0 0
BITMAP
0006C60000
000EFC0000
000AE60000
0000000000
007DE70000
09FEFF1000
2FD19F2000
6F83EC0000
6FEFB20930
4FE303BF30
0DFFDFF700
02AEEB4000
ENDCHAR
STARTCHAR Eogonek
ENCODING 280
SWIDTH 686 0
DWIDTH 11 0
BBX 13 20 0 -5
BITMAP
00005BEFD91000
000AFFEDFFC000
007FF6002EF400
00DF90000BF600
00EF70000CF300
00AFD200057000
001AFFE7000000
006DFFF7000000
08FE7200000000
2FF40000000000
6FE00000000000
7FF10000000020
3FFB2000038DE0
07FFFEDDFFFFA0
003ADEFFFEA500
000004F9100000
000009F2000000
00000AF3000000
000006FFF80000
0000007CB30000
ENDCHAR
STARTCHAR eogonek
ENCODING 281
SWIDTH 393 0
DWIDTH 6 0
BBX 9 13 0 -5
BITMAP
007DE60000
08FEFF1000
1FE19F2000
5F91DD0000
7FCEE40520
5FE8206F40
1FF97BFB00
05FFFE8000
001EB20000
006F300000
007F400000
003FFF9000
0003771000
ENDCHAR
STARTCHAR Ecaron
ENCODING 282
SWIDTH 686 0
DWIDTH 11 0
BBX 13 20 0 0
BITMAP
00000350044000
000009F13F9000
000004F6BE2000
000000CEF60000
0000004E900000
00005BEFD91000
000AFFEDFFC000
007FF6002EF400
00DF90000BF600
00EF70000CF300
00AFD200057000
001AFFE7000000
006DFFF7000000
08FE7200000000
3FF40000000000
6FE00000000000
7FF10000000020
2FFB2000038DE0
06FFFEDDFFFF80
0029CEFEDB7300
ENDCHAR
STARTCHAR ecaron
ENCODING 283
SWIDTH 393 0
DWIDTH 6 0
BBX 9 15 0 0
BITMAP
0035005300
00AF13F800
007F3BE200
004F7F8000
001FEE1000
0009E40000
0000000000
007DE70000
09FEFF1000
2FD19F2000
6F83EC0000
6FEFB20930
4FE303BF30
0DFFDFF700
02AEEB4000
ENDCHAR
STARTCHAR Gcircumflex
ENCODING 284
SWIDTH 811 0
DWIDTH 13 0
BBX 14 28 1 -8
BITMAP
00000027300000
000002EFD00000
00000BFAF40000
00006FA3FA0000
00008D20C90000
00017CFEB30000
002DFFEEFE1000
02EFB201CF7000
0AFB00008F9000
2FF300008F9000
7FC000008F5000
BF800000130000
DF700000000000
EF600000000000
DF70006FFFD000
BFA0005CDFF000
6FF200001FD023
1DFD40005FA6EA
03DFFEDEFFEFC2
0017CEECCFF800
00000005EF5000
0000005FFF1000
000003F8FC0000
00001DA3F80000
00006F28F30000
0000AD1ED00000
0000AFEF500000
00003DE7000000
ENDCHAR
STARTCHAR gcircumflex
ENCODING 285
SWIDTH 479 0
DWIDTH 8 0
BBX 10 23 0 -8
BITMAP
0000172000
0000BFC000
0005FCF100
000DD5F400
006F63F800
009C01D700
0000000000
002AE73000
02DFEFD000
0BFA2FC000
2FE15F9000
5FA08F7193
6FA0DF8DF4
3FFEFFFE50
08EBDFC200
000AFD0000
00AFFA0000
09E8F70000
4F68F30000
BC0DD00000
E95F700000
EFFE100000
6ED3000000
ENDCHAR
STARTCHAR Gbreve
ENCODING 286
SWIDTH 811 0
DWIDTH 13 0
BBX 14 26 1 -8
BITMAP
0000DB004D7000
0000CFEDFF4000
00002AEEC40000
00017CFEB30000
002DFFEEFE1000
02EFB201CF7000
0AFB00008F9000
2FF300008F9000
7FC000008F5000
BF800000130000
DF700000000000
EF600000000000
DF70006FFFD000
BFA0005CDFF000
6FF200001FD023
1DFD40005FA6EA
03DFFEDEFFEFC2
0017CEECCFF800
00000005EF5000
0000005FFF1000
000003F8FC0000
00001DA3F80000
00006F28F30000
0000AD1ED00000
0000AFEF500000
00003DE7000000
ENDCHAR
STARTCHAR gbreve
ENCODING 287
SWIDTH 479 0
DWIDTH 8 0
BBX 10 21 0 -8
BITMAP
00D7001D50
01FE20AF50
00AFEEFD00
0019EEA100
0000000000
002AE73000
02DFEFD000
0BFA2FC000
2FE15F9000
5FA08F7193
6FA0DF8DF4
3FFEFFFE50
08EBDFC200
000AFD0000
00AFFA0000
09E8F70000
4F68F30000
BC0DD00000
E95F700000
EFFE100000
6ED3000000
ENDCHAR
STARTCHAR Gdotaccent
ENCODING 288
SWIDTH 811 0
DWIDTH 13 0
BBX 14 26 1 -8
BITMAP
0000009C400000
000003FF900000
000001DE400000
00017CFEB30000
002DFFEEFE1000
02EFB201CF7000
0AFB00008F9000
2FF300008F9000
7FC000008F5000
BF800000130000
DF700000000000
EF600000000000
DF70006FFFD000
BFA0005CDFF000
6FF200001FD023
1DFD40005FA6EA
03DFFEDEFFEFC2
0017CEECCFF800
00000005EF5000
0000005FFF1000
000003F8FC0000
00001DA3F80000
00006F28F30000
0000AD1ED00000
0000AFEF500000
00003DE7000000
ENDCHAR
STARTCHAR gdotaccent
ENCODING 289
SWIDTH 479 0
DWIDTH 8 0
BBX 10 20 0 -8
BITMAP
00009C3000
0004FF7000
0002DD2000
0000000000
002AE73000
02DFEFD000
0BFA2FC000
2FE15F9000
5FA08F7193
6FA0DF8DF4
3FFEFFFE50
08EBDFC200
000AFD0000
00AFFA0000
09E8F70000
4F68F30000
BC0DD00000
E95F700000
EFFE100000
6ED3000000
ENDCHAR
STARTCHAR uni0122
ENCODING 290
SWIDTH 811 0
DWIDTH 13 0
BBX 14 23 1 -8
BITMAP
00017CFEB30000
002DFFEEFE1000
02EFB201CF7000
0AFB00008F9000
2FF300008F9000
7FC000008F5000
BF800000130000
DF700000000000
EF600000000000
DF70006FFFD000
BFA0005CDFF000
6FF200001FD023
1DFD40005FA6EA
03DFFEDEFFEFC2
0017CEECCFF800
00000005EF5000
007E105FFF1000
00BF23F8FC0000
00BE1DA3F80000
00986F28F30000
0000AD1ED00000
0000AFEF500000
00003DE7000000
ENDCHAR
STARTCHAR uni0123
ENCODING 291
SWIDTH 479 0
DWIDTH 8 0
BBX 10 21 0 -8
BITMAP
00005E3000
00008F5000
00009E1000
0000890000
0000000000
002AE73000
02DFEFD000
0BFA2FC000
2FE15F9000
5FA08F7193
6FA0DF8DF4
3FFEFFFE50
08EBDFC200
000AFD0000
00AFFA0000
09E8F70000
4F68F30000
BC0DD00000
E95F700000
EFFE100000
6ED3000000
ENDCHAR
STARTCHAR Hcircumflex
ENCODING 292
SWIDTH 873 0
DWIDTH 14 0
BBX 17 20 -1 0
BITMAP
000000000560000000
000000008FF7000000
00000003FBED000000
0000000CF3AF300000
0000001E804E300000
0029EE6000001AE800
03EFEFE10000CFEF10
0DD21FF30006FA3F30
3E200EF4000DF24F10
02000FF3003FC09E00
00001FF2007F98F700
00003FF000BFFFC100
003CDFFDDDFFFA1000
005FFFFECAFF500000
0000CF7001FF200000
0000FF4000FF200000
0003FF1000EF4001B0
0006FD0000AFA01CD0
0009F900003FFEFF40
0007E3000005DEB300
ENDCHAR
STARTCHAR hcircumflex
ENCODING 293
SWIDTH 502 0
DWIDTH 8 0
BBX 10 22 0 0
BITMAP
0000165000
0000BFF300
0006FAF900
002EE1DE00
004E507D10
0000000000
0002CE4000
000DFFB000
005F5BD000
00BE0BB000
01FB0E7000
05F75F2000
09F5D90000
0BFAD10000
0DFF5BE400
0FF7CFF700
1FD7EDF500
1FDE5CF200
2FFC0EE01B
2FF71FD1BE
2FF31FFEF5
1EA009EC40
ENDCHAR
STARTCHAR Hbar
ENCODING 294
SWIDTH 856 0
DWIDTH 14 0
BBX 13 15 1 0
BITMAP
007E400003E900
00CF700007FC00
00DF600009FB00
6FFFFFFFFFFFD0
5CFFCCCCCEFD90
03FF00000EF500
05FD00001FF300
CFFFFFFFFFFF60
BEFEDDDDEFFC40
0DF600008FB000
0FF40000AF8000
2FF20000DF6000
5FF00000FF5000
6FD00002FF3000
4E900001DD1000
ENDCHAR
STARTCHAR hbar
ENCODING 295
SWIDTH 502 0
DWIDTH 8 0
BBX 10 15 0 0
BITMAP
002E800000
007FA00000
00AF700000
1BEFCBA000
1CFFFFD100
05FC000000
07F9000000
0AF61BE400
0CF4CFF700
0EF8EDF500
0FEE5CF200
1FFC0EE01B
1FF71FD1BE
1FF31FFEF5
0BC009EC40
ENDCHAR
STARTCHAR Itilde
ENCODING 296
SWIDTH 495 0
DWIDTH 8 0
BBX 11 19 -1 0
BITMAP
000037100000
0003FFD35E20
000AF7EFEE10
0004402CD400
003DFFFFFB00
003CDFFDD700
00002FF20000
00004FF00000
00006FD00000
00008FB00000
0000AF900000
0000CF700000
0000EF400000
0001FF300000
0003FF100000
0005FE000000
0007FC000000
19CEFEDA0000
2EFFFFFC0000
ENDCHAR
STARTCHAR itilde
ENCODING 297
SWIDTH 246 0
DWIDTH 4 0
BBX 8 13 -1 0
BITMAP
02720000
1DFE53E4
7F7DFEE1
3501AE50
00000000
006E4000
00BF4000
00EF1000
02FD0000
03FB01A0
03FB1CD0
01FFEF40
007EC300
ENDCHAR
STARTCHAR Imacron
ENCODING 298
SWIDTH 495 0
DWIDTH 8 0
BBX 10 17 -1 0
BITMAP
0000ADDDC0
0000DFFFD0
003DFFFFFB
003CDFFDD7
00002FF200
00004FF000
00006FD000
00008FB000
0000AF9000
0000CF7000
0000EF4000
0001FF3000
0003FF1000
0005FE0000
0007FC0000
19CEFEDA00
2EFFFFFC00
ENDCHAR
STARTCHAR imacron
ENCODING 299
SWIDTH 246 0
DWIDTH 4 0
BBX 6 11 0 0
BITMAP
8DDDC2
AFFFE2
000000
06E400
0BF400
0EF100
2FD000
3FB01A
3FB1CD
1FFEF4
07EC30
ENDCHAR
STARTCHAR Ibreve
ENCODING 300
SWIDTH 495 0
DWIDTH 8 0
BBX 10 18 -1 0
BITMAP
0006E4019E
0005FFDFFB
00006DFE91
003DFFFFFB
003CDFFDD7
00002FF200
00004FF000
00006FD000
00008FB000
0000AF9000
0000CF7000
0000EF4000
0001FF3000
0003FF1000
0005FE0000
0007FC0000
19CEFEDA00
2EFFFFFC00
ENDCHAR
STARTCHAR ibreve
ENCODING 301
SWIDTH 246 0
DWIDTH 4 0
BBX 8 13 -1 0
BITMAP
3E3004E1
5FB01DF1
1DFEEF90
02BEE800
00000000
006E4000
00BF4000
00EF1000
02FD0000
03FB01A0
03FB1CD0
01FFEF40
007EC300
ENDCHAR
STARTCHAR Iogonek
ENCODING 302
SWIDTH 495 0
DWIDTH 8 0
BBX 10 19 -1 -4
BITMAP
003DFFFFFB
003CDFFDD7
00002FF200
00004FF000
00006FD000
00008FB000
0000AF9000
0000CF7000
0000EF4000
0001FF3000
0003FF1000
0005FE0000
0007FC0000
19CEFEDA00
2EFFFFFC00
002EA00000
005F600000
004FFDA000
0008EE7000
ENDCHAR
STARTCHAR iogonek
ENCODING 303
SWIDTH 246 0
DWIDTH 4 0
BBX 6 16 0 -4
BITMAP
02BA10
08FF30
05EB00
000000
06E400
0BF400
0EF100
2FD000
3FB02C
3FC2DD
1FFFE2
0AFB10
3F8000
8F1000
6FC840
0AEE50
ENDCHAR
STARTCHAR Idotaccent
ENCODING 304
SWIDTH 495 0
DWIDTH 8 0
BBX 10 18 -1 0
BITMAP
000004C900
00000BFF10
000007EA00
003DFFFFFB
003CDFFDD7
00002FF200
00004FF000
00006FD000
00008FB000
0000AF9000
0000CF7000
0000EF4000
0001FF3000
0003FF1000
0005FE0000
0007FC0000
19CEFEDA00
2EFFFFFC00
ENDCHAR
STARTCHAR dotlessi
ENCODING 305
SWIDTH 246 0
DWIDTH 4 0
BBX 6 8 0 0
BITMAP
06E400
0BF400
0EF100
2FD000
3FB01A
3FB1CD
1FFEF4
07EC30
ENDCHAR
STARTCHAR Jcircumflex
ENCODING 308
SWIDTH 743 0
DWIDTH 12 0
BBX 12 21 1 -1
BITMAP
000002630000
00001DFE1000
0000AFAF6000
0004FB1FB000
0007D30AB000
005ACEFFEC80
1BFFEDDEFFF2
8FB30000DF60
CF200000FF40
CF300002FF20
7F500004FE00
01000007FC00
000005DFFA00
0001BFEEF700
002DF91EF300
00CF702FE000
05FC007F9000
09F700DF3000
09F808FA0000
05FFEFD10000
007DEA200000
ENDCHAR
STARTCHAR jcircumflex
ENCODING 309
SWIDTH 254 0
DWIDTH 4 0
BBX 10 23 -4 -8
BITMAP
0000003710
000001EF80
000009FDC0
00003F9AF0
0000BF28F3
0000D804E3
0000000000
000007F400
00000BF400
00000DF200
00000EF000
00001FD048
00002FB8FA
00004FFF91
00006FE600
0003DF5000
003EFF2000
02E9ED0000
0CB2F90000
4F37F50000
8F1DD00000
8FEF600000
2CE8000000
ENDCHAR
STARTCHAR uni0136
ENCODING 310
SWIDTH 937 0
DWIDTH 15 0
BBX 17 20 0 -5
BITMAP
0017CEFD910008E300
01DFFDEFF6001FF400
09F9108FB1006FE000
0DF100AF8000CF8000
0DF100CF6005FE1000
0AF400EF502EF60000
027001FF35DF800000
00003DFFFFE5000000
00004FFFFF70000000
000007FB5FF6000000
000009F909FE000000
5C000CF602FF6002C0
8F805FF200AFE32CE0
3FFEFF90002EFFFF40
04CEE8000004DEC300
000000000000000000
0000000BB000000000
0000000EE000000000
0000000FA000000000
0000000D5000000000
ENDCHAR
STARTCHAR uni0137
ENCODING 311
SWIDTH 525 0
DWIDTH 8 0
BBX 11 21 0 -5
BITMAP
0002CE400000
000DFFB00000
005F5BD00000
00BE0BB00000
01FA0E700000
05F75E100000
09F5D8000000
0BFAC0000000
0DFE4AE80000
0FF5DEFF2000
1FD8C1DF2000
1FDE34FC0000
2FFC7FD20950
1FF7BF607F50
0FF27FFEFA00
0BC009EE8000
000000000000
002E60000000
005F80000000
005F40000000
004C00000000
ENDCHAR
STARTCHAR kgreenlandic
ENCODING 312
SWIDTH 465 0
DWIDTH 7 0
BBX 10 8 0 0
BITMAP
05E45DE600
0BF5FFEE00
0EEBF49E00
1FDFD06600
2FFFC00075
3FFFF206F6
2FF7FFEFB0
0CA06EE900
ENDCHAR
STARTCHAR Lacute
ENCODING 313
SWIDTH 673 0
DWIDTH 11 0
BBX 14 19 -1 0
BITMAP
000000000009E2
0000000000AFF3
000000001BFC40
000000005D6000
0000004BEFC400
000007FFEEFF20
00004FF500AF90
0000CF90006FB0
0002FF30007FA0
0004FF00006F50
0006FD00000100
0007FC00000000
0008FB00000000
0009F900000000
0009F800000000
000AF600000003
1AEFFC952002BC
9FFFEEFFFEDFE4
4DFB2049DEEA20
ENDCHAR
STARTCHAR lacute
ENCODING 314
SWIDTH 326 0
DWIDTH 5 0
BBX 10 21 0 0
BITMAP
00000007E4
0000008FF5
00000AFD50
00002E7000
0000000000
0002CE3000
000DEFA000
006F5BC000
00CE0BC000
02FA0CB000
06F71F7000
09F45F3000
0CF1AD0000
0EE2F60000
0FD9D00000
1FEF600000
1FFC000000
0FF3008200
0CF209F200
07FEEF7000
01AFD60000
ENDCHAR
STARTCHAR uni013B
ENCODING 315
SWIDTH 673 0
DWIDTH 11 0
BBX 14 20 -1 -5
BITMAP
0000004BEFC400
000007FFEEFF20
00004FF500AF90
0000CF90006FB0
0002FF30007FA0
0004FF00006F50
0006FD00000100
0007FC00000000
0008FB00000000
0009F900000000
0009F800000000
000AF600000003
1AEFFC952002BC
9FFFEEFFFEDFE4
4DFB2049DEEA20
00000000000000
00000AC0000000
00000EE0000000
00000EB0000000
00000C50000000
ENDCHAR
STARTCHAR uni013C
ENCODING 316
SWIDTH 326 0
DWIDTH 5 0
BBX 8 21 0 -5
BITMAP
0002CE30
000DEFA0
006F5BC0
00CE0BC0
02FA0CB0
06F71F70
09F45F30
0CF1AD00
0EE2F600
0FD9D000
1FEF6000
1FFC0000
0FF30082
0CF209F2
07FEEF70
01AFD600
00000000
01D80000
03FA0000
04F50000
03D10000
ENDCHAR
STARTCHAR Lcaron
ENCODING 317
SWIDTH 673 0
DWIDTH 11 0
BBX 16 15 -1 0
BITMAP
0000004BEFC40000
000007FFEEFF2381
00004FF500AF9AF3
0000CF90006FBBE0
0002FF30007FAA80
0004FF00006F5000
0006FD0000010000
0007FC0000000000
0008FB0000000000
0009F90000000000
0009F80000000000
000AF60000000300
1AEFFC952002BC00
9FFFEEFFFEDFE400
4DFB2049DEEA2000
ENDCHAR
STARTCHAR lcaron
ENCODING 318
SWIDTH 237 0
DWIDTH 4 0
BBX 7 16 0 0
BITMAP
00000660
004E6EE0
00AF8F90
00DF5E30
01FF1000
04FD0000
06FA0000
09F70000
0CF40000
0EF10000
1FE00000
3FC00000
4FB03A00
4FA2EB00
2FFEE200
08EC2000
ENDCHAR
STARTCHAR Ldot
ENCODING 319
SWIDTH 673 0
DWIDTH 11 0
BBX 14 15 -1 0
BITMAP
0000004BEFC400
000007FFEEFF20
00004FF500AF90
0000CF90006FB0
0002FF30007FA0
0004FF00006F50
0006FD00000100
0007FC03C90000
0008FB0BFF1000
0009F907EA0000
0009F800000000
000AF600000003
1AEFFC952002BC
9FFFEEFFFEDFE4
4DFB2049DEEA20
ENDCHAR
STARTCHAR ldot
ENCODING 320
SWIDTH 363 0
DWIDTH 6 0
BBX 8 16 0 0
BITMAP
000CD000
004FD000
008FA000
00BF6000
00EF3000
02FE0000
05FB0000
08F8BE40
0BF7FF60
0DF28910
1FE00000
2FD00000
3FD00028
1FF303DC
0BFFDFE2
02AEE910
ENDCHAR
STARTCHAR Lslash
ENCODING 321
SWIDTH 673 0
DWIDTH 11 0
BBX 14 17 -1 0
BITMAP
0000038BDEFD90
00001EEDDDDDC1
0000004BEFC400
000006FFEEFF20
00004FF500BF80
0000BF80006FB0
0001FF20007FA0
0004FE00007F60
0006FD00001400
0007FC00000000
0008FA00000000
0009F900000000
0009F800000000
000AF600000004
1AEFFC952002BC
9FFFEEFFFEDFE4
4DFB2049DEEA20
ENDCHAR
STARTCHAR lslash
ENCODING 322
SWIDTH 326 0
DWIDTH 5 0
BBX 10 17 0 0
BITMAP
0016ADEEC3
00CFEDDDC4
0015DE3000
002EEFA000
009F4BC000
01ED0BC000
05F80DA000
09F42F6000
0CF27F1000
0EF1E90000
1FD7E10000
2FEE800000
1FFC000000
0FF3009200
0CF209F200
07FEEF7000
00AED50000
ENDCHAR
STARTCHAR Nacute
ENCODING 323
SWIDTH 884 0
DWIDTH 14 0
BBX 17 19 0 0
BITMAP
00000000001BD00000
0000000002CFE00000
000000002DFA200000
000000008C40000000
018DE5005CFC400000
1CFEFD06FEEFD00000
AE43FE2F703FF30000
E503FDA9001FF40000
2004FDE1003FF20000
0006FF90006FE00000
0008FF40009FC00000
000AFE0000CF900000
000BFA0000EF600000
000EF70002FF300000
001FF40004FF100000
003FF20005FE000910
005FF00004FF209F10
006FD00000DFEEF600
003E8000003CEC5000
ENDCHAR
STARTCHAR nacute
ENCODING 324
SWIDTH 496 0
DWIDTH 8 0
BBX 10 14 0 0
BITMAP
000000BB00
000005FD00
00000BF400
00003F7000
00006B0000
0000000000
05E42BE300
0BF3DFF500
0EE9DEF300
1FDF4DF100
2FFB1FD01A
3FF63FB1CD
2FF13FFEE4
0CA00AEB30
ENDCHAR
STARTCHAR uni0145
ENCODING 325
SWIDTH 884 0
DWIDTH 14 0
BBX 17 20 0 -5
BITMAP
018DE5005CFC400000
1CFEFD06FEEFD00000
AE43FE2F703FF30000
E503FDA9001FF40000
2004FDE1003FF20000
0006FF90006FE00000
0008FF40009FC00000
000AFE0000CF900000
000BFA0000EF600000
000EF70002FF300000
001FF40004FF100000
003FF20005FE000910
005FF00004FF209F10
006FD00000DFEEF600
003E8000003CEC5000
000000000000000000
000001D80000000000
000003FA0000000000
000003F70000000000
000002E20000000000
ENDCHAR
STARTCHAR uni0146
ENCODING 326
SWIDTH 496 0
DWIDTH 8 0
BBX 10 13 0 -5
BITMAP
05E42BE300
0BF3DFF500
0EE9DEF300
1FDF4DF100
2FFB1FD01A
3FF63FB1CD
2FF13FFEE4
0CA00AEB30
0000000000
002E600000
005F800000
005F400000
004C000000
ENDCHAR
STARTCHAR Ncaron
ENCODING 327
SWIDTH 884 0
DWIDTH 14 0
BBX 17 20 0 0
BITMAP
000000161026000000
0000004F70CE000000
0000000DC6F6000000
00000007FEC0000000
00000001DD20000000
018DE5005CFC400000
1CFEFD06FEEFD00000
AE43FE2F703FF30000
E503FDA9001FF40000
2004FDE1003FF20000
0006FF90006FE00000
0008FF40009FC00000
000AFE0000CF900000
000BFA0000EF600000
000EF70002FF300000
001FF40004FF100000
003FF20005FE000910
005FF00004FF209F10
006FD00000DFEEF600
003E8000003CEC5000
ENDCHAR
STARTCHAR ncaron
ENCODING 328
SWIDTH 496 0
DWIDTH 8 0
BBX 10 15 0 0
BITMAP
0004400620
000EC07F50
000BE0EC00
0007F7F400
0004FEB000
0000CC2000
0000000000
05E42BE300
0BF3DFF500
0EE9DEF300
1FDF4DF100
2FFB1FD01A
3FF63FB1CD
2FF13FFEE4
0CA00AEB30
ENDCHAR
STARTCHAR napostrophe
ENCODING 329
SWIDTH 496 0
DWIDTH 8 0
BBX 10 13 0 0
BITMAP
BB00000000
FD00000000
F800000000
E300000000
0000000000
05E42BE300
0BF3DFF500
0EE9DEF300
1FDF4DF100
2FFB1FD01A
3FF63FB1CD
2FF13FFEE4
0CA00AEB30
ENDCHAR
STARTCHAR Eng
ENCODING 330
SWIDTH 884 0
DWIDTH 14 0
BBX 17 21 0 -6
BITMAP
018DE5005CFC300000
1CFEFD06FEFFD00000
AE43FE2F704FF20000
E503FDA9002FF20000
1004FDE1003FF10000
0006FF90006FE00000
0008FF40008FB00000
0009FE0000BF800000
000CFA0000EF500000
000EF70002FF200000
001FF40005FE000000
003FF20008FB000910
005FF0000BFA009F10
006FD0000EFFEEF700
002E80002FFBED6000
000000006FB0000000
00000000AF60000000
00072001EE10000000
004FC208F800000000
001CFFEFD100000000
00019EEA2000000000
ENDCHAR
STARTCHAR eng
ENCODING 331
SWIDTH 495 0
DWIDTH 8 0
BBX 10 14 0 -6
BITMAP
05E42BE300
0BF3DFF500
0EE9DEF300
1FDF3DF000
2FFB1FC02A
3FF63F91CD
2FF16FEFE3
0CA09FFB30
0000DD0000
0002F90000
3A07F30000
7F5EB00000
2EFD200000
0241000000
ENDCHAR
STARTCHAR Omacron
ENCODING 332
SWIDTH 816 0
DWIDTH 13 0
BBX 12 17 1 0
BITMAP
00006DDDC400
00008FFFF400
00018DFDA200
002EFFDFFE30
02EFA101CFD1
0AFB00002FF5
2FF300000CF9
7FC0000009FB
BF90000009FB
DF7000000AFA
EF6000000CF8
EF6000001FF4
CF8000006FE0
8FD00001DF70
2FF9002CFC00
06FFEEFFC100
004BEFC70000
ENDCHAR
STARTCHAR omacron
ENCODING 333
SWIDTH 451 0
DWIDTH 7 0
BBX 10 11 0 0
BITMAP
02CDDD8000
03FFFF9000
0000000000
008EE80000
09FEFF6000
2FE1EFC141
6F90AFFFF5
7F801FEC91
5FC05F8000
1DFEFE2000
03CEC30000
ENDCHAR
STARTCHAR Obreve
ENCODING 334
SWIDTH 816 0
DWIDTH 13 0
BBX 12 18 1 0
BITMAP
0002E8006E40
0001EFEEFE20
00003BEEB300
00018DFDA200
002EFFDFFE30
02EFA101CFD1
0AFB00002FF5
2FF300000CF9
7FC0000009FB
BF90000009FB
DF7000000AFA
EF6000000CF8
EF6000001FF4
CF8000006FE0
8FD00001DF70
2FF9002CFC00
06FFEEFFC100
004BEFC70000
ENDCHAR
STARTCHAR obreve
ENCODING 335
SWIDTH 451 0
DWIDTH 7 0
BBX 10 13 0 0
BITMAP
0AB000B800
0CF406F900
06FFDFE200
007DEB3000
0000000000
008EE80000
09FEFF6000
2FE1EFC141
6F90AFFFF5
7F801FEC91
5FC05F8000
1DFEFE2000
03CEC30000
ENDCHAR
STARTCHAR Ohungarumlaut
ENCODING 336
SWIDTH 816 0
DWIDTH 13 0
BBX 12 19 1 0
BITMAP
000005E26D10
00000BF3CF10
00000EB1F900
00002E23D100
00018DFDA200
002EFFDFFE30
02EFA101CFD1
0AFB00002FF5
2FF300000CF9
7FC0000009FB
BF90000009FB
DF7000000AFA
EF6000000CF8
EF6000001FF4
CF8000006FE0
8FD00001DF70
2FF9002CFC00
06FFEEFFC100
004BEFC70000
ENDCHAR
STARTCHAR ohungarumlaut
ENCODING 337
SWIDTH 451 0
DWIDTH 7 0
BBX 10 14 0 0
BITMAP
0008D1AD00
000EF2FE00
004F96F700
009E1AD000
00A60C4000
0000000000
008EE80000
09FEFF6000
2FE1EFC141
6F90AFFFF5
7F801FEC91
5FC05F8000
1DFEFE2000
03CEC30000
ENDCHAR
STARTCHAR OE
ENCODING 338
SWIDTH 1124 0
DWIDTH 18 0
BBX 19 15 1 0
BITMAP
00018DFEA306EFFFFD00
002EFFDFFF5FFDDDD900
02EFA101CFFFE0000000
0AFB00002FFFB0000000
2FF300000CFF80000000
7FD0000009FF50000000
BF90000009FF30000000
DF7000000AFFFFFFC000
EF6000000CFEDDDD8000
EF6000001FFA00000000
CF8000006FF900000000
8FD00001DFFB00000000
2FF9002CFEFF70003AE0
06FFEEFFC1BFFFDEFF90
004BEEC60007CEFDA400
ENDCHAR
STARTCHAR oe
ENCODING 339
SWIDTH 668 0
DWIDTH 11 0
BBX 13 8 0 0
BITMAP
008EE62BEB1000
09FEFFEFEF7000
2FE15FF53F8000
6F901FE1AF3000
7F802FFFE50580
5FC08FF8017F90
1EFEFEFFDFFC10
03CFB26DFD7000
ENDCHAR
STARTCHAR Racute
ENCODING 340
SWIDTH 880 0
DWIDTH 14 0
BBX 17 19 0 0
BITMAP
00000000007E400000
0000000008FF500000
00000000AFD5000000
00000003E700000000
000006BEFD92000000
0002DFFEEFFE200000
002DF81005FF900000
00AF6064009FD00000
03FB04FD007FE00000
08F407FC009FB00000
0CE009FA01EF500000
0EC00BF84CFA000000
1FA0CFFFFE70000000
2FA0BFFFFC20000000
1FA03FF1CFC0000000
0DD06FD04FF5000700
09F39FA00BFD209F10
02EEFF7002FFEEF700
003CEB10004CFC5000
ENDCHAR
STARTCHAR racute
ENCODING 341
SWIDTH 455 0
DWIDTH 7 0
BBX 10 14 0 0
BITMAP
000003E600
00000AF700
00002FD100
00008E3000
0000B60000
0000000000
05E41BE300
0BF3CFF500
0EE7FFF300
1FCE6CF3A7
2FFC0CFFF4
3FF704DC40
2FF2000000
0CB0000000
ENDCHAR
STARTCHAR uni0156
ENCODING 342
SWIDTH 880 0
DWIDTH 14 0
BBX 17 20 0 -5
BITMAP
000006BEFD92000000
0002DFFEEFFE200000
002DF81005FF900000
00AF6064009FD00000
03FB04FD007FE00000
08F407FC009FB00000
0CE009FA01EF500000
0EC00BF84CFA000000
1FA0CFFFFE70000000
2FA0BFFFFC20000000
1FA03FF1CFC0000000
0DD06FD04FF5000700
09F39FA00BFD209F10
02EEFF7002FFEEF700
003CEB10004CFC5000
000000000000000000
0000000D9000000000
0000002FB000000000
0000003F7000000000
0000002E2000000000
ENDCHAR
STARTCHAR uni0157
ENCODING 343
SWIDTH 455 0
DWIDTH 7 0
BBX 10 13 0 -5
BITMAP
05E41BE300
0BF3CFF500
0EE7FFF300
1FCE6CF3A7
2FFC0CFFF4
3FF704DC40
2FF2000000
0CB0000000
0000000000
2E70000000
4F80000000
5F40000000
4D00000000
ENDCHAR
STARTCHAR Rcaron
ENCODING 344
SWIDTH 880 0
DWIDTH 14 0
BBX 17 20 0 0
BITMAP
000000530062000000
000000DC07F5000000
0000008F3EC0000000
0000002FEF30000000
00000008E600000000
000006BEFD92000000
0002DFFEEFFE200000
002DF81005FF900000
00AF6064009FD00000
03FB04FD007FE00000
08F407FC009FB00000
0CE009FA01EF500000
0EC00BF84CFA000000
1FA0CFFFFE70000000
2FA0BFFFFC20000000
1FA03FF1CFC0000000
0DD06FD04FF5000700
09F39FA00BFD209F10
02EEFF7002FFEEF700
003CEB10004CFC5000
ENDCHAR
STARTCHAR rcaron
ENCODING 345
SWIDTH 455 0
DWIDTH 7 0
BBX 10 15 0 0
BITMAP
0016102600
004F70CE00
001F94F700
000DBCD000
0009EF5000
0004E90000
0000000000
05E41BE300
0BF3CFF500
0EE7FFF300
1FCE6CF3A7
2FFC0CFFF4
3FF704DC40
2FF2000000
0CB0000000
ENDCHAR
STARTCHAR Sacute
ENCODING 346
SWIDTH 693 0
DWIDTH 11 0
BBX 12 19 0 0
BITMAP
000000001BC0
00000002DFE0
0000002DFA20
0000008C4000
00029DFEB500
004EFFDEFF60
00DF91006FE0
03FF00000FF1
04FE10001FE0
02FFA1000750
009FFE710000
0009FFFE7000
000029FFFA00
0630002BFF40
5FA00000DF70
6FA00000CF60
4FE30007FF20
0CFFEDFFF700
016CEFDA4000
ENDCHAR
STARTCHAR sacute
ENCODING 347
SWIDTH 427 0
DWIDTH 7 0
BBX 10 14 -1 0
BITMAP
0000009D10
000002FF10
000008F700
00001EA000
00003D1000
0000000000
0000BD0000
0006F90000
000CFA0000
005FEF6000
01E95FE15C
0BE45EF9FB
1E3EFFFFF3
0008EFFC40
ENDCHAR
STARTCHAR Scircumflex
ENCODING 348
SWIDTH 693 0
DWIDTH 11 0
BBX 12 20 0 0
BITMAP
000000372000
000003EFC000
00000CFAF300
00007F84F800
0000AC11D800
00029DFEB500
004EFFDEFF60
00DF91006FE0
03FF00000FF1
04FE10001FE0
02FFA1000750
009FFE710000
0009FFFE7000
000029FFFA00
0630002BFF40
5FA00000DF70
6FA00000CF60
4FE30007FF20
0CFFEDFFF700
016CEFDA4000
ENDCHAR
STARTCHAR scircumflex
ENCODING 349
SWIDTH 427 0
DWIDTH 7 0
BBX 10 15 -1 0
BITMAP
0000064000
00007FF100
0001ECF500
0009F3F800
002FA0EC00
005E20AB00
0000000000
0000BD0000
0006F90000
000CFA0000
005FEF6000
01E95FE15C
0BE45EF9FB
1E3EFFFFF3
0008EFFC40
ENDCHAR
STARTCHAR Scedilla
ENCODING 350
SWIDTH 693 0
DWIDTH 11 0
BBX 12 19 0 -4
BITMAP
00029DFEB500
004EFFDEFF60
00DF81006FE0
03FE00000FF1
04FF10001FE0
02FFC2000640
009FFFA30000
0007EFFFB200
000018EFFD10
18400019FF50
6FA00000DF70
6FA00000DF50
2FE51029FD00
05EFFFFFA100
0009EFC20000
00000BF00000
00000BE00000
006DEF900000
006EE9100000
ENDCHAR
STARTCHAR scedilla
ENCODING 351
SWIDTH 427 0
DWIDTH 7 0
BBX 10 13 -1 -5
BITMAP
0000BD0000
0006FA0000
000CF90000
004FFF3000
01DB8FD028
0AF31FF4DC
1F5AEFFFF4
020EFFFC40
001CFF3000
00002F7000
00005F6000
00EFFD1000
0079710000
ENDCHAR
STARTCHAR Scaron
ENCODING 352
SWIDTH 693 0
DWIDTH 11 0
BBX 12 20 0 0
BITMAP
000016002600
00004F60CE00
00000EB6F600
000007FEB000
000001DC2000
00029DFEB500
004EFFDEFF60
00DF91006FE0
03FF00000FF1
04FE10001FE0
02FFA1000750
009FFE710000
0009FFFE7000
000029FFFA00
0630002BFF40
5FA00000DF70
6FA00000CF60
4FE30007FF20
0CFFEDFFF700
016CEFDA4000
ENDCHAR
STARTCHAR scaron
ENCODING 353
SWIDTH 427 0
DWIDTH 7 0
BBX 10 15 -1 0
BITMAP
0003500530
000BF14F80
0008F2BE10
0004F7F700
0001FED100
0000AD4000
0000000000
0000BD0000
0006F90000
000CFA0000
005FEF6000
01E95FE15C
0BE45EF9FB
1E3EFFFFF3
0008EFFC40
ENDCHAR
STARTCHAR uni0162
ENCODING 354
SWIDTH 697 0
DWIDTH 11 0
BBX 15 19 0 -4
BITMAP
0016ACEFFFFFEC30
06EFFDEFFDDDEE40
2FE4008FB0000000
6F8000BF80000000
5FA000EF60000000
0A7002FF30000000
000005FF00000000
000007FD00000000
000009FA00000000
00000CF800000000
00000EF600000000
00001FF400000000
00003FF300000000
0000AFE100000000
0000DFF600000000
000003FA00000000
000003F900000000
000CFFF300000000
0009CA4000000000
ENDCHAR
STARTCHAR uni0163
ENCODING 355
SWIDTH 393 0
DWIDTH 6 0
BBX 9 20 0 -5
BITMAP
00007C4000
0007FFC000
001EAAE000
007F49D000
00CE0D8000
01FC6E2000
04FCE50000
DFFFFFF200
BEFEDC9000
09F6000000
09F6000000
08F7000420
06FA004F50
02FFA9FC10
00AFFFC100
00DFF70000
0003E90000
0003F90000
0CFFF30000
08CB400000
ENDCHAR
STARTCHAR Tcaron
ENCODING 356
SWIDTH 697 0
DWIDTH 11 0
BBX 15 20 0 0
BITMAP
0000006201610000
000001FA09F30000
000000BE3FA00000
0000004FEE100000
0000000AE4000000
0016ACEFFFFFEC30
05EFFDEFFDDDEE40
2EE5008FB0000000
5F8000BF90000000
5F9000EF60000000
2EB001FF40000000
021004FF10000000
000006FE00000000
000008FC00000000
00000AF900000000
00000CF700000000
00000EF600000000
00001FF400000000
00003FF300000000
00001DC000000000
ENDCHAR
STARTCHAR tcaron
ENCODING 357
SWIDTH 343 0
DWIDTH 5 0
BBX 8 16 0 0
BITMAP
00000292
000007F6
000008F2
004E87A0
009F8000
00DF4000
01FF1000
6CFFBB40
AFFFFD20
09F60000
0BF40000
0DF20000
0DF20076
0BF606F6
07FFEFA0
009EE800
ENDCHAR
STARTCHAR Tbar
ENCODING 358
SWIDTH 697 0
DWIDTH 11 0
BBX 15 15 0 0
BITMAP
00159CEFFFFFEC30
03DFFEEFFDDDEE40
1EE6108FB0000000
5F8000AF90000000
6F8000DF60000000
3FC000FF40000000
074003FF20000000
000CFFFFFF700000
000BDEFEDC500000
000009FA00000000
00000BF800000000
00000EF600000000
00001FF400000000
00002FF300000000
00001EC100000000
ENDCHAR
STARTCHAR tbar
ENCODING 359
SWIDTH 343 0
DWIDTH 5 0
BBX 9 13 -1 0
BITMAP
0004E80000
0009F80000
000DF40000
001FF10000
06CFFBB400
0AFFFFD200
009F600000
0CEFDD9000
1EFFFE6000
00DF200760
00CF506F60
007FFEFB00
0019EE8000
ENDCHAR
STARTCHAR Utilde
ENCODING 360
SWIDTH 890 0
DWIDTH 14 0
BBX 17 19 0 0
BITMAP
000000272000000000
000001EFE53E400000
000008F7EFEF200000
000003501BE5000000
018DE8000009E20000
1CFEFF20000EF50000
9F50FF50001FF40000
E600FF40003FF20000
2002FF30005FF00000
0005FF00008FD00000
0008FC0000CFA00000
000BF90001FF800000
000EF60006FF600000
002FF3000CFF400000
004FF0004DEF300000
006FE001D8FF200B30
005FF54CE2FF83BF20
001FFFFF40CFFFF700
0005DFC3003CED5000
ENDCHAR
STARTCHAR utilde
ENCODING 361
SWIDTH 462 0
DWIDTH 7 0
BBX 10 13 0 0
BITMAP
0027200000
01DFE52E40
06F8DFEE20
02501AE500
0000000000
04E508E000
0AF40ED000
0EF14FA000
1FD09F7000
2FB1EF4075
3FDCFF36F5
1FFF9FEFA0
08E62DE700
ENDCHAR
STARTCHAR Umacron
ENCODING 362
SWIDTH 890 0
DWIDTH 14 0
BBX 17 17 0 0
BITMAP
0000008DDDC2000000
000000BFFFE1000000
018DE8000009E20000
1CFEFF20000EF50000
9F50FF50001FF40000
E600FF40003FF20000
2002FF30005FF00000
0005FF00008FD00000
0008FC0000CFA00000
000BF90001FF800000
000EF60006FF600000
002FF3000CFF400000
004FF0004DEF300000
006FE001D8FF200B30
005FF54CE2FF83BF20
001FFFFF40CFFFF700
0005DFC3003CED5000
ENDCHAR
STARTCHAR umacron
ENCODING 363
SWIDTH 462 0
DWIDTH 7 0
BBX 10 11 0 0
BITMAP
008DDDC200
00AFFFE200
0000000000
04E508E000
0AF40ED000
0EF14FA000
1FD09F7000
2FB1EF4075
3FDCFF36F5
1FFF9FEFA0
08E62DE700
ENDCHAR
STARTCHAR Ubreve
ENCODING 364
SWIDTH 890 0
DWIDTH 14 0
BBX 17 18 0 0
BITMAP
000005E6008E100000
000003FFDEFD000000
0000005CFE91000000
018DE8000009E20000
1CFEFF20000EF50000
9F50FF50001FF40000
E600FF40003FF20000
2002FF30005FF00000
0005FF00008FD00000
0008FC0000CFA00000
000BF90001FF800000
000EF60006FF600000
002FF3000CFF400000
004FF0004DEF300000
006FE001D8FF200B30
005FF54CE2FF83BF20
001FFFFF40CFFFF700
0005DFC3003CED5000
ENDCHAR
STARTCHAR ubreve
ENCODING 365
SWIDTH 462 0
DWIDTH 7 0
BBX 10 13 0 0
BITMAP
03E4004E20
04FC01DF10
00DFEEF900
002BEE8000
0000000000
04E508E000
0AF40ED000
0EF14FA000
1FD09F7000
2FB1EF4075
3FDCFF36F5
1FFF9FEFA0
08E62DE700
ENDCHAR
STARTCHAR Uring
ENCODING 366
SWIDTH 890 0
DWIDTH 14 0
BBX 17 20 0 0
BITMAP
00000005DD40000000
0000001EEFE0000000
0000003F47F1000000
0000001FEFD0000000
00000006ED30000000
018DE8000009E20000
1CFEFF20000EF50000
9F50FF50001FF40000
E600FF40003FF20000
2002FF30005FF00000
0005FF00008FD00000
0008FC0000CFA00000
000BF90001FF800000
000EF60006FF600000
002FF3000CFF400000
004FF0004DEF300000
006FE001D8FF200B30
005FF54CE2FF83BF20
001FFFFF40CFFFF700
0005DFC3003CED5000
ENDCHAR
STARTCHAR uring
ENCODING 367
SWIDTH 462 0
DWIDTH 7 0
BBX 10 14 0 0
BITMAP
0004DE5000
000EFEE000
002F56F200
001EEFE000
0005ED4000
0000000000
04E508E000
0AF40ED000
0EF14FA000
1FD09F7000
2FB1EF4075
3FDCFF36F5
1FFF9FEFA0
08E62DE700
ENDCHAR
STARTCHAR Uhungarumlaut
ENCODING 368
SWIDTH 890 0
DWIDTH 14 0
BBX 17 19 0 0
BITMAP
00000008D19C000000
0000000EF2FD000000
0000003F84F6000000
0000004D15C0000000
018DE8000009E20000
1CFEFF20000EF50000
9F50FF50001FF40000
E600FF40003FF20000
2002FF30005FF00000
0005FF00008FD00000
0008FC0000CFA00000
000BF90001FF800000
000EF60006FF600000
002FF3000CFF400000
004FF0004DEF300000
006FE001D8FF200B30
005FF54CE2FF83BF20
001FFFFF40CFFFF700
0005DFC3003CED5000
ENDCHAR
STARTCHAR uhungarumlaut
ENCODING 369
SWIDTH 462 0
DWIDTH 7 0
BBX 10 14 0 0
BITMAP
0002E73E60
0007F98F70
000BF2DE10
001F82F600
003D14C000
0000000000
04E508E000
0AF40ED000
0EF14FA000
1FD09F7000
2FB1EF4075
3FDCFF36F5
1FFF9FEFA0
08E62DE700
ENDCHAR
STARTCHAR Uogonek
ENCODING 370
SWIDTH 890 0
DWIDTH 14 0
BBX 17 19 0 -4
BITMAP
008DE8000009E20000
0CFEFF20000DF50000
9F50FF50001FF40000
E600FF40003FF20000
3002FF30005FF00000
0005FF10008FD00000
0008FD0000BFB00000
000BFA0001FF900000
000EF70005FF700000
002FF4000AFF500000
004FF1002EEF300000
006FE000B9FF200720
005FF109E2FF507F30
001FFEEF40DFFEF700
0005DFC4003CFD5000
000000000007F20000
00000000000CD00000
00000000000BFB9300
000000000003CFD200
ENDCHAR
STARTCHAR uogonek
ENCODING 371
SWIDTH 462 0
DWIDTH 7 0
BBX 10 12 0 -4
BITMAP
04E508E000
0AF40ED000
0EF14FA000
1FD09F7000
2FB1EF4075
3FDCFF36F5
1FFF9FEF80
08E63FE600
0000AD2000
0001F80000
0000EE9800
00005DFB00
ENDCHAR
STARTCHAR Wcircumflex
ENCODING 372
SWIDTH 1217 0
DWIDTH 19 0
BBX 21 20 1 0
BITMAP
0000000001640000000000
000000000CFF2000000000
000000007FAF8000000000
00000002FD1EE000000000
00000005E408D000000000
04E700000BE1001AEC2000
09FA00003FF200AFEFA000
0BF800006FF001F92FE000
0DF700009FE003F61FD000
0EF50000BFC003F72FC000
0FF40000EFC001FC6F9000
1FF30004FFB000AFEF5000
1FF30008FFB0001CFFED80
0FF3000DFFB00007FEEF80
0EF4003FBFB0000EF20000
0DF5009F4FD0007FA00000
0AF903FC0EF102EE200000
06FE6DF40BFA6DF5000000
01EFFF8005FFFF80000000
004DE800008ED500000000
ENDCHAR
STARTCHAR wcircumflex
ENCODING 373
SWIDTH 700 0
DWIDTH 11 0
BBX 14 15 0 0
BITMAP
00000163000000
000009FE000000
00003FCF300000
0000BE4F600000
0005F82FA00000
0008D10D900000
00000000000000
1E900C902DC000
3FB05FB0AFF000
3FB0BFC0CFC141
2FC2FFC0BFFFF4
1FD8FED3FDBB80
0FEDADECF30000
0DFF4BFF800000
06E805EA000000
ENDCHAR
STARTCHAR Ycircumflex
ENCODING 374
SWIDTH 851 0
DWIDTH 14 0
BBX 16 25 0 -5
BITMAP
0000000037100000
00000004FFB00000
0000001DEBF20000
0000008F76F70000
000000BB01D70000
018DE8000009E300
1DFEFF30000EF600
BE40FF50001FF400
D400FF40004FF200
0003FF20007FE000
0006FE0000CFC000
0009FB0002FFA000
000CF70008FF8000
000DF6002EDF6000
000DF802DBCF4000
0008FFDFD2EF79C3
0001AED913FFFFF3
00000004BFFE8510
000001AFFFFB0000
00001CFD57F80000
00009FA00AF40000
0000FE001EE00000
0002FE00AF700000
0000DFEEFB000000
00003CED81000000
ENDCHAR
STARTCHAR ycircumflex
ENCODING 375
SWIDTH 479 0
DWIDTH 8 0
BBX 10 23 0 -8
BITMAP
0000271000
0001EF8000
0008FCC000
002F99F100
00AF27F400
00D904E400
0000000000
04E508E000
0AF40EE000
0EF14FB000
1FD09F9000
2FB1EF7194
3FDCFF7DF4
1FFFBFFE40
08E6CFB100
0009FD0000
00AFF90000
08E8F60000
4F58F20000
CB0DD00000
F86F700000
FFFD100000
6EC3000000
ENDCHAR
STARTCHAR Ydieresis
ENCODING 376
SWIDTH 851 0
DWIDTH 14 0
BBX 16 23 0 -5
BITMAP
0000005C32B70000
000000CF87FD0000
0000009E34E80000
018DE8000009E300
1DFEFF30000EF600
BE40FF50001FF400
D400FF40004FF200
0003FF20007FE000
0006FE0000CFC000
0009FB0002FFA000
000CF70008FF8000
000DF6002EDF6000
000DF802DBCF4000
0008FFDFD2EF79C3
0001AED913FFFFF3
00000004BFFE8510
000001AFFFFB0000
00001CFD57F80000
00009FA00AF40000
0000FE001EE00000
0002FE00AF700000
0000DFEEFB000000
00003CED81000000
ENDCHAR
STARTCHAR Zacute
ENCODING 377
SWIDTH 721 0
DWIDTH 12 0
BBX 14 19 0 0
BITMAP
0000000007E400
000000008FF500
0000000AFD5000
0000003E700000
0017CEFEDC9600
02DFFEDEFFFF60
0BF910001EFA10
0FE000008FE100
0FE00001EF7000
0BF30009FE1000
0250002FF60000
000000AFC00000
000004FF400000
00001DFB000000
00008FF2000000
0003FF80000013
3BEFFF841003D8
BFFFEFFFFDEFD2
5DEA115ADFD910
ENDCHAR
STARTCHAR zacute
ENCODING 378
SWIDTH 445 0
DWIDTH 7 0
BBX 9 14 1 0
BITMAP
00004E5000
0000BF6000
0003FC0000
0009E20000
000C400000
0000000000
DFFFFF6000
BDDFFF6000
02BFC50000
3EF7000000
CF70001C20
FF6004DE10
AFFDEFE400
18DFD92000
ENDCHAR
STARTCHAR Zdotaccent
ENCODING 379
SWIDTH 721 0
DWIDTH 12 0
BBX 14 18 0 0
BITMAP
0000006C700000
000000EFD00000
000000AE700000
0017CEFEDC9600
02DFFEDEFFFF60
0BF910001EFA10
0FE000008FE100
0FE00001EF7000
0BF30009FE1000
0250002FF60000
000000AFC00000
000004FF400000
00001DFB000000
00008FF2000000
0003FF80000013
3BEFFF841003D8
BFFFEFFFFDEFD2
5DEA115ADFD910
ENDCHAR
STARTCHAR zdotaccent
ENCODING 380
SWIDTH 445 0
DWIDTH 7 0
BBX 9 12 1 0
BITMAP
003C900000
00AFF20000
006EA00000
0000000000
DFFFFF6000
BDDFFF6000
02BFC50000
3EF7000000
CF70001C20
FF6004DE10
AFFDEFE400
18DFD92000
ENDCHAR
STARTCHAR Zcaron
ENCODING 381
SWIDTH 721 0
DWIDTH 12 0
BBX 14 20 0 0
BITMAP
00000530062000
00000DC07F5000
000008F3EC0000
000002FEF30000
0000008E600000
0017CEFEDC9600
02DFFEDEFFFF60
0BF910001EFA10
0FE000008FE100
0FE00001EF7000
0BF30009FE1000
0250002FF60000
000000AFC00000
000004FF400000
00001DFB000000
00008FF2000000
0003FF80000013
3BEFFF841003D8
BFFFEFFFFDEFD2
5DEA115ADFD910
ENDCHAR
STARTCHAR zcaron
ENCODING 382
SWIDTH 445 0
DWIDTH 7 0
BBX 9 15 1 0
BITMAP
0161035000
05F60DD000
03F86F6000
00EADC0000
00BEF40000
005E800000
0000000000
DFFFFF6000
BDDFFF6000
02BFC50000
3EF7000000
CF70001C20
FF6004DE10
AFFDEFE400
18DFD92000
ENDCHAR
STARTCHAR uni018F
ENCODING 399
SWIDTH 792 0
DWIDTH 13 0
BBX 12 15 1 0
BITMAP
0017CEEC6000
02DFFDEFFB00
0BF92006FF70
0B6000008FE0
000000003FF3
000000000FF5
000000000FF5
7DDDDDDDDFF4
FFFFFFFFFFF2
FF5000006FE0
EF600000BF90
AFB00005FF20
4FF7004EF800
08FFEDFF9000
005CEEB50000
ENDCHAR
STARTCHAR florin
ENCODING 402
SWIDTH 478 0
DWIDTH 8 0
BBX 10 18 -1 -5
BITMAP
000003BEE5
00002EFEC5
00007FB100
0000AF6000
0000CF4000
04FFFFFFC0
03DDFFDC60
0002FE0000
0004FC0000
0006FB0000
0008F90000
0009F70000
000BF50000
000DF40000
000FF20000
017FD00000
DFFF600000
ACB5000000
ENDCHAR
STARTCHAR Ohorn
ENCODING 416
SWIDTH 816 0
DWIDTH 13 0
BBX 13 17 1 0
BITMAP
00000000001D90
00000000018FA0
00018DFFFFFF40
002EFFDFFFE500
02EFA101CFE100
0AFB00002FF600
2FF300000CFA00
7FC0000009FB00
BF90000009FB00
DF7000000AF900
EF6000000CF800
EF6000001FF300
CF8000006FE000
8FD00001DF6000
2FF9002CFC0000
06FFEEFFC10000
004BEFC6000000
ENDCHAR
STARTCHAR ohorn
ENCODING 417
SWIDTH 451 0
DWIDTH 7 0
BBX 10 10 0 0
BITMAP
0000006D00
000001DE00
008EFFF800
09FEFFA000
2FE1EFC141
6F90AFFFF5
7F801FEC91
5FC05F8000
1DFEFE2000
03CEC30000
ENDCHAR
STARTCHAR Uhorn
ENCODING 431
SWIDTH 890 0
DWIDTH 14 0
BBX 17 17 0 0
BITMAP
00000000000000CA00
00000000000007FC00
018DE8000009FFF800
1CFEFF20000EFFC100
9F50FF50001FF80000
E600FF40003FF30000
2002FF30005FF10000
0005FF00008FD00000
0008FC0000CFB00000
000BF90001FF900000
000EF60006FF700000
002FF3000CFF500000
004FF0004DEF300000
006FE001D8FF200B30
005FF54CE2FF83BF20
001FFFFF40CFFFF700
0005DFC3003CED5000
ENDCHAR
STARTCHAR uhorn
ENCODING 432
SWIDTH 512 0
DWIDTH 8 0
BBX 11 10 0 0
BITMAP
00000005D000
0000001CE000
04E508FF8000
0AF40EE60000
0EF14FA00000
1FD09F700000
2FB1EF400A20
3FDCFF409F20
1FFF9FFEF500
08E62CEC4000
ENDCHAR
STARTCHAR uni01C4
ENCODING 452
SWIDTH 1531 0
DWIDTH 25 0
BBX 26 20 1 0
BITMAP
00000000000000000530062000
00000000000000000EC07F5000
000000000000000009F3EB0000
000000000000000002FEF20000
0000000000000000008E600000
006BEFEB50000017CEFEDC9600
06FFFEFFFB1003EFFEDEFFFF50
03730017FF900CF810002FFA10
003500007FF21FE000008FE100
02FF10000EF61FD00002FF6000
06FD00000CF90CF20009FD0000
09F900000BF90250002FF50000
0CF700000CF8000000BFC00000
0FF400000EF7000005FF300000
3FF200003FF300001DFA000000
5FF00000AFC000009FE2000000
7FD00005FF400003FF70000022
9FB0028FF8003BEFFF841004D7
AFFEFFFF7000BFFFEFFFFDEFC1
5CEFEC8200005EEA116ADFD810
ENDCHAR
STARTCHAR uni01C5
ENCODING 453
SWIDTH 1191 0
DWIDTH 19 0
BBX 20 15 1 0
BITMAP
006BEFEB500000620160
06FFFEFFFB1002F90AF1
03730017FF9000EB3F90
003500007FF200BDAE10
02FF10000EF6007FF700
06FD00000CF9002EB000
09F900000BF900000000
0CF700000CF89FFFFF40
0FF400000EF77DDFFF30
3FF200003FF3009FD400
5FF00000AFC00AFC1000
7FD00005FF407FC10000
9FB0028FF801FE200000
AFFEFFFF7006FEDDDD30
5CEFEC820005FFFFFF40
ENDCHAR
STARTCHAR uni01C6
ENCODING 454
SWIDTH 895 0
DWIDTH 14 0
BBX 17 15 0 0
BITMAP
0000009E21D606E100
000000FF22FA0ED000
000002FE00DB6F6000
000004FC00ADDC0000
000005F9007FF50000
000007F6001B700000
000009F40000000000
002AEEF1AFFFFF9000
02EFEFE0BFFFFF8000
0BF92FB0017ED50000
2FD05F901CF7000000
5F908F709F90000940
6FB2EF76FFA115CF40
3FFFDFFFDFFFFFF700
08EC28E917DFEA4000
ENDCHAR
STARTCHAR uni01C7
ENCODING 455
SWIDTH 1276 0
DWIDTH 20 0
BBX 22 17 -1 -2
BITMAP
0000005CEE800017CEFDA3
000008FFDFF801DFFDFFFB
00005FE405FE0AF9105FE3
0000CF8001FF2FE0007FC0
0002FF3002FF2FD0008FA0
0004FF0001FA0EF200AF80
0006FD00001007B100BF60
0007FC000000000006EF40
0008FB0000000004DFFF10
0009F9000000008FFCFD00
0009F800000008FD36F900
000AF60000004FD10AF500
1AEFFC952002CF400EE100
9FFFEEFFFEEFFF006F9000
4DFB2049DFEBFF34EE2000
000000000000BFFFF50000
00000000000019CA400000
ENDCHAR
STARTCHAR uni01C8
ENCODING 456
SWIDTH 927 0
DWIDTH 15 0
BBX 18 23 -1 -8
BITMAP
0000004BEFC4000000
000007FFEEFF200000
00004FF500BF800000
0000CF90006FB7C500
0002FF30007FBFFB00
0004FF00007F6BE500
0006FD000014000000
0007FC0000000AE100
0008FB0000000EF100
0009F90000001FE000
0009F80000002FC000
000AF60000004FA022
1AEFFC952002CF85E8
9FFFEEFFFEDFFFDFB1
4DFB2049DEEBCFF700
000000000005FF4000
00000000006FFE0000
0000000005F8FA0000
000000001E86F60000
000000008E1AF20000
00000000CB3FB00000
00000000CFEF300000
000000004ED5000000
ENDCHAR
STARTCHAR uni01C9
ENCODING 457
SWIDTH 610 0
DWIDTH 10 0
BBX 12 24 0 -8
BITMAP
0002CE300000
000DEFA00000
006F5BC00000
00CE0BC00000
02FA0CA8C400
06F71F9FFA00
09F45F3CE400
0CF1AC000000
0EE2F60BE000
0FD9D01FF000
1FEF602FD000
1FFC004FB000
0FF300AF9085
0CF209FF8CF5
07FEEFEFFE60
01AFD6BFC200
000008FF1000
00008FFC0000
0007F8F80000
002F77F50000
009D0BE00000
00DA4F900000
00DFFE200000
005ED4000000
ENDCHAR
STARTCHAR uni01CA
ENCODING 458
SWIDTH 1497 0
DWIDTH 24 0
BBX 25 17 0 -2
BITMAP
018EE6005CFC40004ADEFEC910
1DFEFD07FEEFD00AFFEDDFFD20
BE33FE3F703FF35FD3000DF600
D303FDB9001FF49F50000EF400
0004FDE1003FF2AF50001FF300
0006FF90006FE06F80002FF100
0008FF40009FC00410004FD000
000AFE0000CF90000006DFB000
000BFA0000EF600003CFFF8000
000EF70002FF30005FF8CF5000
001FF40004FF1004FE30EF2000
003FF20005FE000DF403FC0000
005FF00004FF209FB008F70000
006FD00000DFEEFF801EF10000
003E8000003CEDCFA1AF800000
000000000000003FFFFC100000
0000000000000004BC81000000
ENDCHAR
STARTCHAR uni01CB
ENCODING 459
SWIDTH 1138 0
DWIDTH 18 0
BBX 20 23 0 -8
BITMAP
007DE5004CEC40000000
0AFEFC04FEEFD0000000
6F53FE1E703FF3000000
E903FE79001FF403C900
B104FDD1003FF20AFF10
0006FE90006FE006EA00
0008FF40009FC0000000
000AFE0000CF9005E600
000BFA0000EF6009F600
000EF70002FF300AF400
001FF40004FF100CF300
003FF20005FE000EF028
005FF00004FF209FD5ED
006FD00000DFEEFFFFC2
003E8000003CEC9FF800
00000000000002DF8000
0000000000002DFF4000
000000000001DBCF1000
00000000000AD1EC0000
00000000002F55F70000
00000000006F2CF10000
00000000006FEF800000
00000000001BE9000000
ENDCHAR
STARTCHAR uni01CC
ENCODING 460
SWIDTH 750 0
DWIDTH 12 0
BBX 14 20 0 -8
BITMAP
0000000005C700
000000000DFD00
0000000009E700
00000000000000
05E42BE308F300
0BF3DFF50CF300
0EE9DEF30EF100
1FDF4DF10FE000
2FFB1FD02FC068
3FF63FB1CFB9F9
2FF13FFEFFFF80
0CA00AEBAFE400
00000005EF4000
0000005FFF1000
000004F9EC0000
00000DB3F80000
00006F28F30000
00009E1ED00000
00009FEF500000
00002DE7000000
ENDCHAR
STARTCHAR Gcaron
ENCODING 486
SWIDTH 811 0
DWIDTH 13 0
BBX 14 28 1 -8
BITMAP
00000610160000
00002F80BF1000
00000CD4F80000
000006FED00000
000000CD300000
00017CFEB30000
002DFFEEFE1000
02EFB201CF7000
0AFB00008F9000
2FF300008F9000
7FC000008F5000
BF800000130000
DF700000000000
EF600000000000
DF70006FFFD000
BFA0005CDFF000
6FF200001FD023
1DFD40005FA6EA
03DFFEDEFFEFC2
0017CEECCFF800
00000005EF5000
0000005FFF1000
000003F8FC0000
00001DA3F80000
00006F28F30000
0000AD1ED00000
0000AFEF500000
00003DE7000000
ENDCHAR
STARTCHAR gcaron
ENCODING 487
SWIDTH 479 0
DWIDTH 8 0
BBX 10 23 0 -8
BITMAP
0005301610
000FB08F30
000CD1EB00
0009F8F300
0005FE9000
0001DC1000
0000000000
002AE73000
02DFEFD000
0BFA2FC000
2FE15F9000
5FA08F7193
6FA0DF8DF4
3FFEFFFE50
08EBDFC200
000AFD0000
00AFFA0000
09E8F70000
4F68F30000
BC0DD00000
E95F700000
EFFE100000
6ED3000000
ENDCHAR
STARTCHAR uni01EA
ENCODING 490
SWIDTH 816 0
DWIDTH 13 0
BBX 12 19 1 -4
BITMAP
00018DFEA300
003EFFDFFE40
02EF9101BFE1
0BFA00002FF6
3FF200000BFA
8FB000000AFB
CF80000009FB
DF6000000BF9
EF6000000EF6
DF8000003FF2
BFC00000BFB0
6FF60009FF30
0CFFCAEFF600
01AFFFFC4000
0002AF600000
0000DC000000
0000ED100000
0000AFFF3000
000006960000
ENDCHAR
STARTCHAR uni01EB
ENCODING 491
SWIDTH 451 0
DWIDTH 7 0
BBX 10 13 0 -5
BITMAP
008EE70000
09FEFF6000
2FE2EFB020
5FA0BFFEF5
7F802FFEB2
5FB03F9000
1FFADF3000
05EFF60000
007F500000
00DB000000
00EC100000
00AFFF2000
0006850000
ENDCHAR
STARTCHAR Aringacute
ENCODING 506
SWIDTH 786 0
DWIDTH 13 0
BBX 16 23 0 0
BITMAP
0000000000000062
00000000000009F8
000000003BB28FA1
00000000DFFB5300
00000003F59F0000
00000003F59E0000
00000001EFFA0000
000000004CA10000
0000006ADFED9200
00003DFFFFFFF500
0004EFC510146000
002FFA0006E80000
00BFB0000AF90000
04FF30000DF60000
09FC00001FF30000
0DF800005FF00000
0FF500008FD00000
1FF40000DFB00000
1FF50003FF900000
0EF8000BFF900670
09FE318FDFC15F80
02EFFFF95FFFFC10
003BED8008EE9100
ENDCHAR
STARTCHAR aringacute
ENCODING 507
SWIDTH 470 0
DWIDTH 8 0
BBX 11 16 0 0
BITMAP
000000000610
000000008F70
0002CE85FB20
000BFEF53000
000E92F50000
000CFEF20000
0003DE600000
000000000000
002AE7300000
02DFEFE00000
0BF92FC00000
2FE15F900000
5FA08F705500
6FA1DF64F700
3FFEEFEFB100
08EC28EA1000
ENDCHAR
STARTCHAR AEacute
ENCODING 508
SWIDTH 1015 0
DWIDTH 16 0
BBX 19 19 0 0
BITMAP
00000000000006E50000
0000000000008FF60000
000000000009FD500000
00000000002E71000000
0000018DF52CFFFFE200
00005EFFF6BFEDDDB100
0005FFD621FF20000000
003FFB1004FE00000000
00BFC10008FC00000000
04FF40000BF900000000
09FC00000FF700000000
0DF800004FFFFFFE1000
0FF500008FFDDDDB0000
1FF40000CFD000000000
1FF50002FFD000000000
0EF70009FFE100000000
09FD205FAEFA10028E30
02EFFEFD16FFFDEFFC00
002AEEA2004BEFEA5000
ENDCHAR
STARTCHAR aeacute
ENCODING 509
SWIDTH 653 0
DWIDTH 10 0
BBX 13 14 0 0
BITMAP
00000000CA0000
00000006FC0000
0000000CF30000
0000003F600000
0000007A000000
00000000000000
0029DE6DE90000
02EFFEFFFF4000
0CF91DF26F4000
3FD03FB2CD1000
5F907FEFC30750
5FA0CFF502AF60
2FFEFBFFDFF900
06ED519EEC5000
ENDCHAR
STARTCHAR Oslashacute
ENCODING 510
SWIDTH 816 0
DWIDTH 13 0
BBX 12 21 1 -2
BITMAP
00000006E500
0000008FF600
000009FD6000
00002E8EA000
00018DFFC200
002DFFEFFF30
02EF91CEBFD0
0AFB01FA2FF5
2FF304F60CF9
7FC007F30AFB
BF900BE009FB
DF700EB00AF9
EF603F800CF8
EF606F401FF4
CF90AF106FE0
9FD0DC01DF60
3FFAF92BFC00
07FFFEFFC100
005EFFC70000
000DD0000000
000D80000000
ENDCHAR
STARTCHAR oslashacute
ENCODING 511
SWIDTH 459 0
DWIDTH 7 0
BBX 10 16 0 -2
BITMAP
0002E70000
0009F90000
001ED10000
007F300000
00A7B40000
0000F20000
009EF90000
09FEFF9000
2FD8BEE021
6F8A7CFFF7
7F8C5DFCA2
5FBF5FB000
1EFFEF4000
03DFD50000
007A000000
0096000000
ENDCHAR
STARTCHAR uni0200
ENCODING 512
SWIDTH 786 0
DWIDTH 13 0
BBX 15 19 0 0
BITMAP
0000007D19C00000
0000008F5AF40000
0000002E93F80000
00000007A0990000
0000006ADFED9200
00003DFFFFFFF500
0004EFC510146000
002FFA0006E80000
00BFB0000AF90000
04FF30000DF60000
09FC00001FF30000
0DF800005FF00000
0FF500008FD00000
1FF40000DFB00000
1FF50003FF900000
0EF8000BFF900670
09FE318FDFC15F80
02EFFFF95FFFFC10
003BED8008EE9100
ENDCHAR
STARTCHAR uni0201
ENCODING 513
SWIDTH 470 0
DWIDTH 8 0
BBX 10 14 0 0
BITMAP
0AC0BB0000
0BF4DF3000
04F96F7000
00AD0CC000
002D13D000
0000000000
002AE73000
02DFEFE000
0BF92FC000
2FE15F9000
5FA08F7055
6FA1DF64F7
3FFEEFEFB1
08EC28EA10
ENDCHAR
STARTCHAR uni0202
ENCODING 514
SWIDTH 786 0
DWIDTH 13 0
BBX 15 19 0 0
BITMAP
000000018CC81000
0000001DFFFFB000
0000006F912DF200
0000002600026000
0000006ADFED9200
00003DFFFFFFF500
0004EFC510146000
002FFA0006E80000
00BFB0000AF90000
04FF30000DF60000
09FC00001FF30000
0DF800005FF00000
0FF500008FD00000
1FF40000DFB00000
1FF50003FF900000
0EF8000BFF900670
09FE318FDFC15F80
02EFFFF95FFFFC10
003BED8008EE9100
ENDCHAR
STARTCHAR uni0203
ENCODING 515
SWIDTH 470 0
DWIDTH 8 0
BBX 10 13 0 0
BITMAP
0005BC9200
007FFFFD10
00EE31BF50
01D5003E40
0000000000
002AE73000
02DFEFE000
0BF92FC000
2FE15F9000
5FA08F7055
6FA1DF64F7
3FFEEFEFB1
08EC28EA10
ENDCHAR
STARTCHAR uni0204
ENCODING 516
SWIDTH 686 0
DWIDTH 11 0
BBX 13 19 0 0
BITMAP
00007D19C00000
00009F5BF30000
00002F93F80000
000007A0990000
00005BEFD91000
000AFFEDFFC000
007FF6002EF400
00DF90000BF600
00EF70000CF300
00AFD200057000
001AFFE7000000
006DFFF7000000
08FE7200000000
3FF40000000000
6FE00000000000
7FF10000000020
2FFB2000038DE0
06FFFEDDFFFF80
0029CEFEDB7300
ENDCHAR
STARTCHAR uni0205
ENCODING 517
SWIDTH 393 0
DWIDTH 6 0
BBX 9 14 0 0
BITMAP
5E37E20000
6F98F80000
1DE2EC0000
05F37F2000
00B50C4000
0000000000
007DE70000
09FEFF1000
2FD19F2000
6F83EC0000
6FEFB20930
4FE303BF30
0DFFDFF700
02AEEB4000
ENDCHAR
STARTCHAR uni0206
ENCODING 518
SWIDTH 686 0
DWIDTH 11 0
BBX 13 19 0 0
BITMAP
0000018CC81000
00001DFFFFB000
00006F812DF200
00002600026000
00005BEFD91000
000AFFEDFFC000
007FF6002EF400
00DF90000BF600
00EF70000CF300
00AFD200057000
001AFFE7000000
006DFFF7000000
08FE7200000000
3FF40000000000
6FE00000000000
7FF10000000020
2FFB2000038DE0
06FFFEDDFFFF80
0029CEFEDB7300
ENDCHAR
STARTCHAR uni0207
ENCODING 519
SWIDTH 393 0
DWIDTH 6 0
BBX 9 13 0 0
BITMAP
002ACB4000
03EFFFF400
0AF717FA00
0AA000C800
0000000000
007DE70000
09FEFF1000
2FD19F2000
6F83EC0000
6FEFB20930
4FE303BF30
0DFFDFF700
02AEEB4000
ENDCHAR
STARTCHAR uni0208
ENCODING 520
SWIDTH 495 0
DWIDTH 8 0
BBX 10 19 -1 0
BITMAP
0008D0AB00
000AF4BF20
0003F84F70
0000890A80
003DFFFFFB
003CDFFDD7
00002FF200
00004FF000
00006FD000
00008FB000
0000AF9000
0000CF7000
0000EF4000
0001FF3000
0003FF1000
0005FE0000
0007FC0000
19CEFEDA00
2EFFFFFC00
ENDCHAR
STARTCHAR uni0209
ENCODING 521
SWIDTH 246 0
DWIDTH 4 0
BBX 8 14 -2 0
BITMAP
1D92E700
1FF3FE00
08F5AF30
01E92E80
005B0790
00000000
0006E400
000BF400
000EF100
002FD000
003FB01A
003FB1CD
001FFEF4
0007EC30
ENDCHAR
STARTCHAR uni020A
ENCODING 522
SWIDTH 495 0
DWIDTH 8 0
BBX 11 19 -1 0
BITMAP
000029CC7000
0002EFFFFA00
0007F812DF10
000250003500
003DFFFFFB00
003CDFFDD700
00002FF20000
00004FF00000
00006FD00000
00008FB00000
0000AF900000
0000CF700000
0000EF400000
0001FF300000
0003FF100000
0005FE000000
0007FC000000
19CEFEDA0000
2EFFFFFC0000
ENDCHAR
STARTCHAR uni020B
ENCODING 523
SWIDTH 246 0
DWIDTH 4 0
BBX 8 13 -1 0
BITMAP
007CC700
0BFFFFA0
4FC13EF1
4D2006D1
00000000
006E4000
00BF4000
00EF1000
02FD0000
03FB01A0
03FB1CD0
01FFEF40
007EC300
ENDCHAR
STARTCHAR uni020C
ENCODING 524
SWIDTH 816 0
DWIDTH 13 0
BBX 12 19 1 0
BITMAP
0004E35E2000
0005F97F7000
0000CD1EB000
00004D05C000
00018DFDA200
002EFFDFFE30
02EFA101CFD1
0AFB00002FF5
2FF300000CF9
7FC0000009FB
BF90000009FB
DF7000000AFA
EF6000000CF8
EF6000001FF4
CF8000006FE0
8FD00001DF70
2FF9002CFC00
06FFEEFFC100
004BEFC70000
ENDCHAR
STARTCHAR uni020D
ENCODING 525
SWIDTH 451 0
DWIDTH 7 0
BBX 10 14 0 0
BITMAP
6E28D10000
8F89F60000
1ED2FB0000
07F28F1000
00C41D3000
0000000000
008EE80000
09FEFF6000
2FE1EFC141
6F90AFFFF5
7F801FEC91
5FC05F8000
1DFEFE2000
03CEC30000
ENDCHAR
STARTCHAR uni020E
ENCODING 526
SWIDTH 816 0
DWIDTH 13 0
BBX 12 19 1 0
BITMAP
000007BC9200
0000AFFFFE10
0002FB21AF50
000061001610
00018DFDA200
002EFFDFFE30
02EFA101CFD1
0AFB00002FF5
2FF300000CF9
7FC0000009FB
BF90000009FB
DF7000000AFA
EF6000000CF8
EF6000001FF4
CF8000006FE0
8FD00001DF70
2FF9002CFC00
06FFEEFFC100
004BEFC70000
ENDCHAR
STARTCHAR uni020F
ENCODING 527
SWIDTH 451 0
DWIDTH 7 0
BBX 10 13 0 0
BITMAP
003ACA3000
04FFFFF300
0BF618F900
0B9000D700
0000000000
008EE80000
09FEFF6000
2FE1EFC141
6F90AFFFF5
7F801FEC91
5FC05F8000
1DFEFE2000
03CEC30000
ENDCHAR
STARTCHAR uni0210
ENCODING 528
SWIDTH 880 0
DWIDTH 14 0
BBX 17 19 0 0
BITMAP
00000BA0D800000000
00000DF2EE00000000
000005F57F40000000
000000B60C50000000
000006BEFD92000000
0002DFFEEFFE200000
002DF81005FF900000
00AF6064009FD00000
03FB04FD007FE00000
08F407FC009FB00000
0CE009FA01EF500000
0EC00BF84CFA000000
1FA0CFFFFE70000000
2FA0BFFFFC20000000
1FA03FF1CFC0000000
0DD06FD04FF5000700
09F39FA00BFD209F10
02EEFF7002FFEEF700
003CEB10004CFC5000
ENDCHAR
STARTCHAR uni0211
ENCODING 529
SWIDTH 455 0
DWIDTH 7 0
BBX 10 14 0 0
BITMAP
1D92E70000
1FF3FE0000
08F5AF3000
01E92E8000
005B079000
0000000000
05E41BE300
0BF3CFF500
0EE7FFF300
1FCE6CF3A7
2FFC0CFFF4
3FF704DC40
2FF2000000
0CB0000000
ENDCHAR
STARTCHAR uni0212
ENCODING 530
SWIDTH 880 0
DWIDTH 14 0
BBX 17 19 0 0
BITMAP
0000003ACB60000000
000004FFFFF7000000
00000AF514FD000000
000004400044000000
000006BEFD92000000
0002DFFEEFFE200000
002DF81005FF900000
00AF6064009FD00000
03FB04FD007FE00000
08F407FC009FB00000
0CE009FA01EF500000
0EC00BF84CFA000000
1FA0CFFFFE70000000
2FA0BFFFFC20000000
1FA03FF1CFC0000000
0DD06FD04FF5000700
09F39FA00BFD209F10
02EEFF7002FFEEF700
003CEB10004CFC5000
ENDCHAR
STARTCHAR uni0213
ENCODING 531
SWIDTH 455 0
DWIDTH 7 0
BBX 10 13 0 0
BITMAP
0007CC7000
00BFFFFA00
04FC13EF10
04D2006D10
0000000000
05E41BE300
0BF3CFF500
0EE7FFF300
1FCE6CF3A7
2FFC0CFFF4
3FF704DC40
2FF2000000
0CB0000000
ENDCHAR
STARTCHAR uni0214
ENCODING 532
SWIDTH 890 0
DWIDTH 14 0
BBX 17 19 0 0
BITMAP
000006D18D10000000
000008F6AF40000000
000001EA2F80000000
0000006B08A0000000
018DE8000009E20000
1CFEFF20000EF50000
9F50FF50001FF40000
E600FF40003FF20000
2002FF30005FF00000
0005FF00008FD00000
0008FC0000CFA00000
000BF90001FF800000
000EF60006FF600000
002FF3000CFF400000
004FF0004DEF300000
006FE001D8FF200B30
005FF54CE2FF83BF20
001FFFFF40CFFFF700
0005DFC3003CED5000
ENDCHAR
STARTCHAR uni0215
ENCODING 533
SWIDTH 462 0
DWIDTH 7 0
BBX 10 14 0 0
BITMAP
1D91D80000
1EF3FE0000
08F59F4000
01DA1E8000
005B06A000
0000000000
04E508E000
0AF40ED000
0EF14FA000
1FD09F7000
2FB1EF4075
3FDCFF36F5
1FFF9FEFA0
08E62DE700
ENDCHAR
STARTCHAR uni0216
ENCODING 534
SWIDTH 890 0
DWIDTH 14 0
BBX 17 19 0 0
BITMAP
00000018CC81000000
000001DFFFFC000000
000005F912CF300000
000001600026000000
018DE8000009E20000
1CFEFF20000EF50000
9F50FF50001FF40000
E600FF40003FF20000
2002FF30005FF00000
0005FF00008FD00000
0008FC0000CFA00000
000BF90001FF800000
000EF60006FF600000
002FF3000CFF400000
004FF0004DEF300000
006FE001D8FF200B30
005FF54CE2FF83BF20
001FFFFF40CFFFF700
0005DFC3003CED5000
ENDCHAR
STARTCHAR uni0217
ENCODING 535
SWIDTH 462 0
DWIDTH 7 0
BBX 10 13 0 0
BITMAP
0007CC8000
00AFFFFA00
03FC23EF20
03D2006D10
0000000000
04E508E000
0AF40ED000
0EF14FA000
1FD09F7000
2FB1EF4075
3FDCFF36F5
1FFF9FEFA0
08E62DE700
ENDCHAR
STARTCHAR uni0218
ENCODING 536
SWIDTH 693 0
DWIDTH 11 0
BBX 12 20 0 -5
BITMAP
00029DFEB500
004EFFDEFF60
00DF91006FE0
03FF00000FF1
04FE10001FE0
02FFA1000750
009FFE710000
0009FFFE7000
000029FFFA00
0630002BFF40
5FA00000DF70
6FA00000CF60
4FE30007FF20
0CFFEDFFF700
016CEFDA4000
000000000000
0000AC000000
0000EE000000
0000EB000000
0000C5000000
ENDCHAR
STARTCHAR uni0219
ENCODING 537
SWIDTH 427 0
DWIDTH 7 0
BBX 10 13 -1 -5
BITMAP
0000BD0000
0006F90000
000CFA0000
005FEF6000
01E95FE15C
0BE45EF9FB
1E3EFFFFF3
0008EFFC40
0000000000
0003E50000
0006F60000
0007F20000
0006B00000
ENDCHAR
STARTCHAR uni021A
ENCODING 538
SWIDTH 697 0
DWIDTH 11 0
BBX 15 20 0 -5
BITMAP
0016ACEFFFFFEC30
05EFFDEFFDDDEE40
2EE5008FB0000000
5F8000BF90000000
5F9000EF60000000
2EB001FF40000000
021004FF10000000
000006FE00000000
000008FC00000000
00000AF900000000
00000CF700000000
00000EF600000000
00001FF400000000
00003FF300000000
00001DC000000000
0000000000000000
00001E7000000000
00004F9000000000
00004F6000000000
00003D1000000000
ENDCHAR
STARTCHAR uni021B
ENCODING 539
SWIDTH 393 0
DWIDTH 6 0
BBX 9 20 0 -5
BITMAP
00009E6000
0008FFD000
002F99E000
008F3AC000
00CE0E8000
01FC6E1000
04FCE50000
DFFFFFF200
BEFEDC9000
09F6000000
09F6000000
08F7000730
05FC108F40
01EFEEF900
003CFD6000
0000000000
001D700000
004F900000
005F400000
004D000000
ENDCHAR
STARTCHAR uni022A
ENCODING 554
SWIDTH 816 0
DWIDTH 13 0
BBX 12 21 1 0
BITMAP
00001CDDD900
00002EFFFA00
000000000000
00006C32C700
0000CF87FD00
00009E34E700
00018DFDA200
002EFFDFFE30
02EFA101CFD1
0AFB00002FF5
2FF300000CF9
7FC0000009FB
BF90000009FB
DF7000000AFA
EF6000000CF8
EF6000001FF4
CF8000006FE0
8FD00001DF70
2FF9002CFC00
06FFEEFFC100
004BEFC70000
ENDCHAR
STARTCHAR uni022B
ENCODING 555
SWIDTH 451 0
DWIDTH 7 0
BBX 10 15 0 0
BITMAP
008DDDC200
00BFFFE100
0000000000
02B709B000
06FD2FF300
04E80DC000
0000000000
008EE80000
09FEFF6000
2FE1EFC141
6F90AFFFF5
7F801FEC91
5FC05F8000
1DFEFE2000
03CEC30000
ENDCHAR
STARTCHAR uni022C
ENCODING 556
SWIDTH 816 0
DWIDTH 13 0
BBX 12 21 1 0
BITMAP
00000BDDDA00
00001EFFFC00
000017300000
0000CFF71D70
0005F9CFEF40
00026019E800
00018DFDA200
002EFFDFFE30
02EFA101CFD1
0AFB00002FF5
2FF300000CF9
7FC0000009FB
BF90000009FB
DF7000000AFA
EF6000000CF8
EF6000001FF4
CF8000006FE0
8FD00001DF70
2FF9002CFC00
06FFEEFFC100
004BEFC70000
ENDCHAR
STARTCHAR uni022D
ENCODING 557
SWIDTH 451 0
DWIDTH 7 0
BBX 10 15 0 0
BITMAP
007DDDC200
00AFFFE200
0055000000
06FFA19B00
0EC9FEF800
06205EB100
0000000000
008EE80000
09FEFF6000
2FE1EFC141
6F90AFFFF5
7F801FEC91
5FC05F8000
1DFEFE2000
03CEC30000
ENDCHAR
STARTCHAR uni0230
ENCODING 560
SWIDTH 816 0
DWIDTH 13 0
BBX 12 21 1 0
BITMAP
00001CDDD900
00002EFFFA00
000000000000
000001AB2000
000006FF6000
000003ED2000
00018DFDA200
002EFFDFFE30
02EFA101CFD1
0AFB00002FF5
2FF300000CF9
7FC0000009FB
BF90000009FB
DF7000000AFA
EF6000000CF8
EF6000001FF4
CF8000006FE0
8FD00001DF70
2FF9002CFC00
06FFEEFFC100
004BEFC70000
ENDCHAR
STARTCHAR uni0231
ENCODING 561
SWIDTH 451 0
DWIDTH 7 0
BBX 10 15 0 0
BITMAP
008DDDC200
00BFFFE100
0000000000
0007C50000
001FFB0000
000BE50000
0000000000
008EE80000
09FEFF6000
2FE1EFC141
6F90AFFFF5
7F801FEC91
5FC05F8000
1DFEFE2000
03CEC30000
ENDCHAR
STARTCHAR uni0232
ENCODING 562
SWIDTH 851 0
DWIDTH 14 0
BBX 16 22 0 -5
BITMAP
0000006DDDC40000
0000008FFFF40000
018DE8000009E300
1DFEFF30000EF600
BE40FF50001FF400
D400FF40004FF200
0003FF20007FE000
0006FE0000CFC000
0009FB0002FFA000
000CF70008FF8000
000DF6002EDF6000
000DF802DBCF4000
0008FFDFD2EF79C3
0001AED913FFFFF3
00000004BFFE8510
000001AFFFFB0000
00001CFD57F80000
00009FA00AF40000
0000FE001EE00000
0002FE00AF700000
0000DFEEFB000000
00003CED81000000
ENDCHAR
STARTCHAR uni0233
ENCODING 563
SWIDTH 479 0
DWIDTH 8 0
BBX 10 19 0 -8
BITMAP
008DDDC200
00AFFFE200
0000000000
04E508E000
0AF40EE000
0EF14FB000
1FD09F9000
2FB1EF7194
3FDCFF7DF4
1FFFBFFE40
08E6CFB100
0009FD0000
00AFF90000
08E8F60000
4F58F20000
CB0DD00000
F86F700000
FFFD100000
6EC3000000
ENDCHAR
STARTCHAR uni0237
ENCODING 567
SWIDTH 254 0
DWIDTH 4 0
BBX 10 16 -4 -8
BITMAP
000007F400
00000BF400
00000DF200
00000EF000
00001FD048
00002FB8FA
00004FFF91
00006FE600
0003DF5000
003EFF2000
02E9ED0000
0CB2F90000
4F37F50000
8F1DD00000
8FEF600000
2CE8000000
ENDCHAR
STARTCHAR uni0259
ENCODING 601
SWIDTH 458 0
DWIDTH 7 0
BBX 7 8 0 0
BITMAP
07DFD700
0FEDFF60
01004FC0
1BDDDFE0
5FFFFFE0
4F905FB0
1EFDFF40
03CED500
ENDCHAR
STARTCHAR uni02BC
ENCODING 700
SWIDTH 600 0
DWIDTH 10 0
BBX 3 4 4 9
BITMAP
6E20
AF30
BD00
A700
ENDCHAR
STARTCHAR circumflex
ENCODING 710
SWIDTH 600 0
DWIDTH 10 0
BBX 6 6 2 9
BITMAP
002720
00DFA0
07FCE0
1EB7F3
8F45F6
BA02E5
ENDCHAR
STARTCHAR caron
ENCODING 711
SWIDTH 600 0
DWIDTH 10 0
BBX 7 6 2 9
BITMAP
06201600
2F90AF20
0EB2F900
0BD9E100
07FF8000
02EB1000
ENDCHAR
STARTCHAR uni02C9
ENCODING 713
SWIDTH 600 0
DWIDTH 10 0
BBX 6 2 2 9
BITMAP
6DDDC4
8FFFF4
ENDCHAR
STARTCHAR breve
ENCODING 728
SWIDTH 600 0
DWIDTH 10 0
BBX 8 4 1 9
BITMAP
1E5002E3
3FD10BF3
0CFEEFB0
01AEE910
ENDCHAR
STARTCHAR dotaccent
ENCODING 729
SWIDTH 600 0
DWIDTH 10 0
BBX 4 3 3 9
BITMAP
1AB1
6FF5
3EC1
ENDCHAR
STARTCHAR ring
ENCODING 730
SWIDTH 600 0
DWIDTH 10 0
BBX 5 5 3 9
BITMAP
3DE600
CFEF10
F74F30
DFEE10
4DE500
ENDCHAR
STARTCHAR ogonek
ENCODING 731
SWIDTH 600 0
DWIDTH 10 0
BBX 5 6 2 -4
BITMAP
035000
3E9000
AE0000
CD0000
AFED40
2BFC20
ENDCHAR
STARTCHAR tilde
ENCODING 732
SWIDTH 600 0
DWIDTH 10 0
BBX 8 4 1 9
BITMAP
01730000
0CFF61D6
5F8CFEF3
26019E70
ENDCHAR
STARTCHAR hungarumlaut
ENCODING 733
SWIDTH 600 0
DWIDTH 10 0
BBX 7 5 2 9
BITMAP
01D92D80
05FA7F90
0AF3BF20
0E91F800
1D13D100
ENDCHAR
STARTCHAR gravecomb
ENCODING 768
SWIDTH 0 0
DWIDTH 0 0
BBX 4 5 -8 9
BITMAP
6E20
8F90
1DF1
03F7
006A
ENDCHAR
STARTCHAR acutecomb
ENCODING 769
SWIDTH 0 0
DWIDTH 0 0
BBX 5 5 -6 9
BITMAP
009D10
02FF10
08F600
1EA000
3D1000
ENDCHAR
STARTCHAR uni0302
ENCODING 770
SWIDTH 0 0
DWIDTH 0 0
BBX 6 6 -8 9
BITMAP
000650
007FF1
01ECF5
09F3F9
2FA0EC
5E30AB
ENDCHAR
STARTCHAR tildecomb
ENCODING 771
SWIDTH 0 0
DWIDTH 0 0
BBX 7 4 -8 9
BITMAP
05500000
6FFB19C0
ED8FEF90
6205DB10
ENDCHAR
STARTCHAR uni0304
ENCODING 772
SWIDTH 0 0
DWIDTH 0 0
BBX 6 2 -8 9
BITMAP
1CDDD8
3EFFF9
ENDCHAR
STARTCHAR uni0306
ENCODING 774
SWIDTH 0 0
DWIDTH 0 0
BBX 7 4 -8 9
BITMAP
9B000A90
CF506F90
6FFDFF30
07DFC300
ENDCHAR
STARTCHAR uni0307
ENCODING 775
SWIDTH 0 0
DWIDTH 0 0
BBX 3 3 -6 9
BITMAP
7C50
FFB0
BE50
ENDCHAR
STARTCHAR uni0308
ENCODING 776
SWIDTH 0 0
DWIDTH 0 0
BBX 7 3 -8 9
BITMAP
1B809B10
6FD1FF30
3E80DC10
ENDCHAR
STARTCHAR hookabovecomb
ENCODING 777
SWIDTH 0 0
DWIDTH 0 0
BBX 5 5 -7 9
BITMAP
0CEB10
1CEF70
000E90
05EF50
07E800
ENDCHAR
STARTCHAR uni030A
ENCODING 778
SWIDTH 0 0
DWIDTH 0 0
BBX 5 5 -7 9
BITMAP
0AEB10
6FEF70
9D0D90
7FEF60
1BEA00
ENDCHAR
STARTCHAR uni030B
ENCODING 779
SWIDTH 0 0
DWIDTH 0 0
BBX 7 5 -7 9
BITMAP
08D19D10
0EF3FE10
4F95F800
8E1AD100
A60B5000
ENDCHAR
STARTCHAR uni030C
ENCODING 780
SWIDTH 0 0
DWIDTH 0 0
BBX 6 6 -7 9
BITMAP
350053
BF04F8
8F2BE1
5F7F70
1FED00
0AD400
ENDCHAR
STARTCHAR uni030F
ENCODING 783
SWIDTH 0 0
DWIDTH 0 0
BBX 7 5 -9 9
BITMAP
6E37E200
7F99F700
1ED2EB00
06F38F10
00C41D30
ENDCHAR
STARTCHAR uni0311
ENCODING 785
SWIDTH 0 0
DWIDTH 0 0
BBX 7 4 -8 9
BITMAP
03ACA400
3FFFFF30
BF618FA0
A9000C80
ENDCHAR
STARTCHAR uni0312
ENCODING 786
SWIDTH 0 0
DWIDTH 0 0
BBX 3 4 -6 9
BITMAP
1D70
4F90
5F40
4D00
ENDCHAR
STARTCHAR uni031B
ENCODING 795
SWIDTH 0 0
DWIDTH 0 0
BBX 4 4 -6 6
BITMAP
009A
01EB
0DF6
1D70
ENDCHAR
STARTCHAR dotbelowcomb
ENCODING 803
SWIDTH 0 0
DWIDTH 0 0
BBX 4 3 -8 -4
BITMAP
1BB1
7FF4
4EC1
ENDCHAR
STARTCHAR uni0324
ENCODING 804
SWIDTH 0 0
DWIDTH 0 0
BBX 6 3 -9 -4
BITMAP
6C23C6
DF68FB
AE25E6
ENDCHAR
STARTCHAR uni0326
ENCODING 806
SWIDTH 0 0
DWIDTH 0 0
BBX 3 4 -8 -5
BITMAP
0BB0
0FD0
1F80
0E30
ENDCHAR
STARTCHAR uni0327
ENCODING 807
SWIDTH 0 0
DWIDTH 0 0
BBX 5 5 -9 -4
BITMAP
08FC30
08EFC0
000BD0
6DEF90
7EE910
ENDCHAR
STARTCHAR uni0328
ENCODING 808
SWIDTH 0 0
DWIDTH 0 0
BBX 5 6 -8 -4
BITMAP
017000
0BD100
4F5000
6F4000
4FFD90
08EE60
ENDCHAR
STARTCHAR uni032E
ENCODING 814
SWIDTH 0 0
DWIDTH 0 0
BBX 7 4 -10 -5
BITMAP
4E2005D0
6FA02EE0
1EFEEF70
03CFD700
ENDCHAR
STARTCHAR uni0331
ENCODING 817
SWIDTH 0 0
DWIDTH 0 0
BBX 6 2 -9 -3
BITMAP
5DDDD5
7FFFF5
ENDCHAR
STARTCHAR uni0394
ENCODING 916
SWIDTH 700 0
DWIDTH 11 0
BBX 10 14 0 0
BITMAP
000002D700
000009FC00
00001EFF00
00006FDF30
0000DE5F60
0004F92F90
000BF30FC0
002FC00DE0
009F600AF2
01EE0008F5
06F80006F8
0DF20003FB
4FFDDDDDFE
5FFFFFFFFC
ENDCHAR
STARTCHAR uni03A9
ENCODING 937
SWIDTH 816 0
DWIDTH 13 0
BBX 14 14 -1 0
BITMAP
0000028DFEA300
00004EFFEFFE40
0003EFA202CFE1
000CFA00002FF6
004FF200000BFA
009FB0000009FB
00CF8000000AFB
00DF6000000BF9
00EF6000000EF6
00DF8000005FF1
00AFC00001DF90
003FF6000AFC10
2CEFFF30AFFFE8
3FFFFE20CFFFF8
ENDCHAR
STARTCHAR uni03BC
ENCODING 956
SWIDTH 462 0
DWIDTH 7 0
BBX 10 12 0 -4
BITMAP
05E508E000
0AF40ED000
0EF14FA000
1FD09F7000
3FB1EF5095
5FCAFF36F5
6FFFAFDF90
7FE72DD700
8F60000000
8F60000000
8F60000000
6E40000000
ENDCHAR
STARTCHAR pi
ENCODING 960
SWIDTH 496 0
DWIDTH 8 0
BBX 10 8 0 0
BITMAP
7FFFFFFFB0
5DFCAEFB40
0CF40DF200
0FF11FE000
2FD03FB017
4FB03FB0AE
6FA01FFDF5
5F6007EC40
ENDCHAR
STARTCHAR uni0400
ENCODING 1024
SWIDTH 686 0
DWIDTH 11 0
BBX 13 19 0 0
BITMAP
0008E400000000
0009FF50000000
00008EF6000000
0000029D000000
00005BEFD91000
000AFFEDFFC000
007FF6002EF400
00DF90000BF600
00EF70000CF300
00AFD200057000
001AFFE7000000
006DFFF7000000
08FE7200000000
3FF40000000000
6FE00000000000
7FF10000000020
2FFB2000038DE0
06FFFEDDFFFF80
0029CEFEDB7300
ENDCHAR
STARTCHAR uni0401
ENCODING 1025
SWIDTH 686 0
DWIDTH 11 0
BBX 13 18 0 0
BITMAP
000009B15C4000
00001FF4BF9000
00000CD18E4000
00005BEFD91000
000AFFEDFFC000
007FF6002EF400
00DF90000BF600
00EF70000CF300
00AFD200057000
001AFFE7000000
006DFFF7000000
08FE7200000000
3FF40000000000
6FE00000000000
7FF10000000020
2FFB2000038DE0
06FFFEDDFFFF80
0029CEFEDB7300
ENDCHAR
STARTCHAR uni0402
ENCODING 1026
SWIDTH 974 0
DWIDTH 16 0
BBX 18 23 0 -8
BITMAP
00059CEFFFFFEC3000
03DFFDDFECCCDD4000
1DE5008FB000000000
4F9000BF9000000000
6F8000EF6000000000
4FB001FF4000000000
0B7004FF2000000000
000006FE07CED70000
000008FDAFDDFF4000
00000AFFD300CF8000
00000CFE1000BF9020
00000EF80000CF76F4
00001FF40000EFDFE2
00003FF30001FFFC20
00001DC00005FFA100
00000000006FFD0000
0000000006FFF90000
000000004FEDF60000
00000001EE3EF10000
00000006F84FB00000
00000008F4BF500000
00000008FEFB000000
00000001CEA1000000
ENDCHAR
STARTCHAR uni0403
ENCODING 1027
SWIDTH 635 0
DWIDTH 10 0
BBX 14 19 0 0
BITMAP
000000002DA000
00000003EFB000
0000004EF91000
000000BA200110
0028BDEFFFFFFA
06FFFFFDCCCBA4
2FE61FF4000000
6F802FF2000000
6F905FE0000000
2FB08FC0000000
0100AF90000000
0000CF70000000
0000EF50000000
0001FF30000000
0004FF10000000
0006FE00000000
0008FC00000000
0009FB00000000
0006E600000000
ENDCHAR
STARTCHAR uni0404
ENCODING 1028
SWIDTH 687 0
DWIDTH 11 0
BBX 12 15 1 0
BITMAP
00018DFD9100
003EFFCEFA00
02EFB102FF10
0AFD1000EF30
2FF50000FF10
7FE000008600
BFA000000000
DFFFFFF80000
EFDCCCC60000
DF7000000000
BF9000000000
6FE200000000
1DFC300015BE
02DFFDCDFFFA
0017CEFDC830
ENDCHAR
STARTCHAR uni0405
ENCODING 1029
SWIDTH 693 0
DWIDTH 11 0
BBX 12 15 0 0
BITMAP
00029DFEB500
004EFFDEFF60
00DF91006FE0
03FF00000FF1
04FE10001FE0
02FFA1000750
009FFE710000
0009FFFE7000
000029FFFA00
0630002BFF40
5FA00000DF70
6FA00000CF60
4FE30007FF20
0CFFEDFFF700
016CEFDA4000
ENDCHAR
STARTCHAR uni0406
ENCODING 1030
SWIDTH 495 0
DWIDTH 8 0
BBX 10 15 -1 0
BITMAP
003DFFFFFB
003CDFFDD7
00002FF200
00004FF000
00006FD000
00008FB000
0000AF9000
0000CF7000
0000EF4000
0001FF3000
0003FF1000
0005FE0000
0007FC0000
19CEFEDA00
2EFFFFFC00
ENDCHAR
STARTCHAR uni0407
ENCODING 1031
SWIDTH 495 0
DWIDTH 8 0
BBX 10 18 -1 0
BITMAP
00009B15C3
0002FF3CF8
0001DC19E3
003DFFFFFB
003CDFFDD7
00002FF200
00004FF000
00006FD000
00008FB000
0000AF9000
0000CF7000
0000EF4000
0001FF3000
0003FF1000
0005FE0000
0007FC0000
19CEFEDA00
2EFFFFFC00
ENDCHAR
STARTCHAR uni0408
ENCODING 1032
SWIDTH 743 0
DWIDTH 12 0
BBX 12 16 1 -1
BITMAP
005ACEFFEC80
1BFFEDDEFFF2
8FB30000DF60
CF200000FF40
CF300002FF20
7F500004FE00
01000007FC00
000005DFFA00
0001BFEEF700
002DF91EF300
00CF702FE000
05FC007F9000
09F700DF3000
09F808FA0000
05FFEFD10000
007DEA200000
ENDCHAR
STARTCHAR uni0409
ENCODING 1033
SWIDTH 1158 0
DWIDTH 19 0
BBX 19 15 0 0
BITMAP
000000001CE300000000
000000006FF600000000
00000000AFF600000000
00000000EFF500000000
00000004FFF400000000
00000009FFF400000000
0000000DFDF69DFD8100
0000003FBDFFFDDFFB00
0000009F6DF71008FF20
000001EF1EF30001FF40
000007FA0DF50002FF30
9A001EF30BF80005FE10
CF30AFB007FE202DF800
7FEDFD1001DFFDFFC100
07DEB2000019EEC70000
ENDCHAR
STARTCHAR uni040A
ENCODING 1034
SWIDTH 1182 0
DWIDTH 19 0
BBX 20 15 -1 0
BITMAP
0018DE500004E7000000
01DFDFE00009FA000000
0BE21FF3000CF7000000
3F400EF4000EF3000000
18000EF4002FF1000000
00000FF2004FC0000000
00002FF1007FCADFEB30
00004FE013BFFFDDFFF3
004EFFFFFFFF81002EF9
004CEFEBA8EF40000AFB
0000DF6000EF40000BF9
0001FF3000DF50001EF6
0005FE0000AFB001BFD1
0008FA00003FFEDFFD30
0007E4000004BEEC8100
ENDCHAR
STARTCHAR uni040B
ENCODING 1035
SWIDTH 979 0
DWIDTH 16 0
BBX 18 15 0 0
BITMAP
00059CEFFFFFEC3000
03DFFDDFECCCDD4000
1DE5008FB000000000
4F9000BF9000000000
6F8000EF6000000000
4FB001FF4000000000
0B7004FF2000000000
000006FE07CED70000
000008FDAFDDFF4000
00000AFFD400CF8000
00000CFE2000BF9000
00000EF80000DF7037
00001FF40000FF42D9
00003FF30000FFDED1
00001DC100008EE910
ENDCHAR
STARTCHAR uni040C
ENCODING 1036
SWIDTH 937 0
DWIDTH 15 0
BBX 17 19 0 0
BITMAP
0000000000006E5000
000000000007FF7000
00000000008FE60000
0000000001E8100000
0017CEFD910008E300
01DFFDEFF6001FF400
09F9108FB1006FE000
0DF100AF8000CF8000
0DF100CF6005FE1000
0AF400EF502EF60000
027001FF35DF800000
00003DFFFFE5000000
00004FFFFF70000000
000007FB5FF6000000
000009F909FE000000
5C000CF602FF6002C0
8F805FF200AFE32CE0
3FFEFF90002EFFFF40
04CEE8000004DEC300
ENDCHAR
STARTCHAR uni040D
ENCODING 1037
SWIDTH 890 0
DWIDTH 14 0
BBX 17 19 0 0
BITMAP
00008D300000000000
0000AFE40000000000
000008EF6000000000
00000029C000000000
018DE8000009E20000
1CFEFF20000EF50000
9F50FF50001FF40000
E600FF40003FF20000
2002FF30005FF00000
0005FF00008FD00000
0008FC0000CFA00000
000BF90001FF800000
000EF60006FF600000
002FF3000CFF400000
004FF0004DEF300000
006FE001D8FF200B30
005FF54CE2FF83BF20
001FFFFF40CFFFF700
0005DFC3003CED5000
ENDCHAR
STARTCHAR uni040E
ENCODING 1038
SWIDTH 824 0
DWIDTH 13 0
BBX 16 23 0 -4
BITMAP
0000000000350000
000001E801DC0000
000001FFEFF60000
0000005DFD600000
019EE700000AE200
1DFDFF20000FF400
6E31FF30003FF200
1102FF20007FF000
0005FE0000CFD000
0009FB0004FFA000
000BF8001DFF8000
000AF901BEBF5000
0006FFCEE4DF3000
00009EEA30FF68A1
0000000004FFFFF2
00000006DFFEA620
000003DFFFFA0000
00003EFB48F70000
0000CF700BF30000
0002FD002FC00000
0002FD13DF500000
0000CFFFF8000000
000029BA40000000
ENDCHAR
STARTCHAR uni040F
ENCODING 1039
SWIDTH 890 0
DWIDTH 14 0
BBX 17 19 0 -4
BITMAP
018DE8000009E20000
1CFDFF20000EF50000
9E40FF50001FF40000
E500FF40003FF20000
2002FF30005FF00000
0005FF00008FD00000
0008FC0000CFA00000
000BF90001FF800000
000EF60006FF600000
002FF3000CFF400000
004FF0004DEF300000
006FE001D8FF200B30
005FF54CD1FF83BF20
002FFFFF40CFFFF700
0005EFD4002BED5000
0000BF600000000000
0000DF400000000000
0000FF200000000000
000064000000000000
ENDCHAR
STARTCHAR uni0410
ENCODING 1040
SWIDTH 786 0
DWIDTH 13 0
BBX 15 15 0 0
BITMAP
0000006ADFED9200
00003DFFFFFFF500
0004EFC510146000
002FFA0006E80000
00BFB0000AF90000
04FF30000DF60000
09FC00001FF30000
0DF800005FF00000
0FF500008FD00000
1FF40000DFB00000
1FF50003FF900000
0EF8000BFF900670
09FE318FDFC15F80
02EFFFF95FFFFC10
003BED8008EE9100
ENDCHAR
STARTCHAR uni0411
ENCODING 1041
SWIDTH 917 0
DWIDTH 15 0
BBX 15 17 0 -1
BITMAP
0000000000011000
0017BDEFFFFFFA00
04EFEDFFCCCBA400
1EE406FD00000000
5F9009FB00000000
6F800BF900000000
5FB00EF700000000
1D901FF500000000
00006FFCEFEC7000
0008FFFFDCEFFA00
0008FFD00008FF30
00009FA00001FF50
0000BF800001FF50
0000DF700008FF10
0000EF50028FF700
0000FF43CFFE7000
00009914BA610000
ENDCHAR
STARTCHAR uni0412
ENCODING 1042
SWIDTH 827 0
DWIDTH 13 0
BBX 14 16 0 -1
BITMAP
00038BDEFEB600
05DFFFEDEFFFC1
7FFB6200017FF9
8C304200000AFD
0008FA000008FC
000CF700001DF8
000FF30015DFC1
003FF03FFFE810
006FC04DFFB200
009FA0001BFD00
00BF800004FF10
00DF600007FF00
00FF40017FF900
01FFEDEFFFA000
03FFFFEC940000
02EB0000000000
ENDCHAR
STARTCHAR uni0413
ENCODING 1043
SWIDTH 635 0
DWIDTH 10 0
BBX 14 16 0 0
BITMAP
00000000000110
0028BDEFFFFFFA
06FFFFFDCCCBA4
2FE61FF4000000
6F802FF2000000
6F905FE0000000
2FB08FC0000000
0100AF90000000
0000CF70000000
0000EF50000000
0001FF30000000
0004FF10000000
0006FE00000000
0008FC00000000
0009FB00000000
0006E600000000
ENDCHAR
STARTCHAR uni0414
ENCODING 1044
SWIDTH 964 0
DWIDTH 15 0
BBX 16 15 0 0
BITMAP
000027BEFEC71000
0008FFFDCDFFE300
004FE720003CFD10
001710430001EF70
000004FB00009FC0
00000BF700006FF0
00001FF200005FF1
00005FD000005FF0
00008FA000006FE0
0000BF7000009FB0
0000CF500000DF70
1BEDFF200005FF20
9FCEFF82003EF800
AFCDF8DFDDFFB000
3CFD6018DFD80000
ENDCHAR
STARTCHAR uni0415
ENCODING 1045
SWIDTH 686 0
DWIDTH 11 0
BBX 13 15 0 0
BITMAP
00005BEFD91000
000AFFEDFFC000
007FF6002EF400
00DF90000BF600
00EF70000CF300
00AFD200057000
001AFFE7000000
006DFFF7000000
08FE7200000000
3FF40000000000
6FE00000000000
7FF10000000020
2FFB2000038DE0
06FFFEDDFFFF80
0029CEFEDB7300
ENDCHAR
STARTCHAR uni0416
ENCODING 1046
SWIDTH 1234 0
DWIDTH 20 0
BBX 22 15 0 0
BITMAP
0008DE80001DB0002CFD40
007FDFF6005FE000DFDFD0
005505FD006FD006F90880
000000DF307FB00CF30000
0000008F709F904FD00000
0000005FA0BF71DF600000
0000000DF3CF8CFB000000
00000003EFFFFE80000000
0000004DFEFFEF80000000
000003FF75FD1EF5000000
00000CF907FB07FC000000
03005FE109F902FF400081
7F50CF600BF700AFD108F2
6FFDFB000DF5002EFEDF70
08EEA1000BE20003CFD500
ENDCHAR
STARTCHAR uni0417
ENCODING 1047
SWIDTH 725 0
DWIDTH 12 0
BBX 11 15 0 0
BITMAP
00017CEEB300
001DFFCEFE10
008FC102EF50
00CF3000BF60
00CF2000CF40
00490002FE00
0000001CF500
00007EFFF800
00009B84CF90
012000005FF0
0DF100005FF0
1FF20000BFC0
0EF80018FF50
06FFDCEFF700
004BEFD93000
ENDCHAR
STARTCHAR uni0418
ENCODING 1048
SWIDTH 890 0
DWIDTH 14 0
BBX 17 15 0 0
BITMAP
018DE8000009E20000
1CFEFF20000EF50000
9F50FF50001FF40000
E600FF40003FF20000
2002FF30005FF00000
0005FF00008FD00000
0008FC0000CFA00000
000BF90001FF800000
000EF60006FF600000
002FF3000CFF400000
004FF0004DEF300000
006FE001D8FF200B30
005FF54CE2FF83BF20
001FFFFF40CFFFF700
0005DFC3003CED5000
ENDCHAR
STARTCHAR uni0419
ENCODING 1049
SWIDTH 890 0
DWIDTH 14 0
BBX 17 19 0 0
BITMAP
000000000016000000
000000CB01BE000000
000000EFEEF8000000
0000004CFD70000000
018DE8000009E20000
1CFEFF20000EF50000
9F50FF50001FF40000
E600FF40003FF20000
2002FF30005FF00000
0005FF00008FD00000
0008FC0000CFA00000
000BF90001FF800000
000EF60006FF600000
002FF3000CFF400000
004FF0004DEF300000
006FE001D8FF200B30
005FF54CE2FF83BF20
001FFFFF40CFFFF700
0005DFC3003CED5000
ENDCHAR
STARTCHAR uni041A
ENCODING 1050
SWIDTH 937 0
DWIDTH 15 0
BBX 17 15 0 0
BITMAP
0017CEFD910008E300
01DFFDEFF6001FF400
09F9108FB1006FE000
0DF100AF8000CF8000
0DF100CF6005FE1000
0AF400EF502EF60000
027001FF35DF800000
00003DFFFFE5000000
00004FFFFF70000000
000007FB5FF6000000
000009F909FE000000
5C000CF602FF6002C0
8F805FF200AFE32CE0
3FFEFF90002EFFFF40
04CEE8000004DEC300
ENDCHAR
STARTCHAR uni041B
ENCODING 1051
SWIDTH 861 0
DWIDTH 14 0
BBX 16 15 0 0
BITMAP
000000001BE40000
000000006FF60000
00000000AFF60000
00000000EFF50000
00000004FFF40000
00000009FFF40000
0000000DEDF30000
0000003FBDF30000
0000009F6EF30000
000001EF1DF40000
000007FA0CF60000
9B001EF30AF8003A
CF30BFA006FD02DA
6FEDFD1001EFDEE2
07DEB200004DEB20
ENDCHAR
STARTCHAR uni041C
ENCODING 1052
SWIDTH 1133 0
DWIDTH 18 0
BBX 21 15 0 0
BITMAP
0000000AE80003EC100000
0000002FFC000BFF200000
0000005FFB002FFF100000
0000008FFB008FFF000000
000000BFFB00EEFE000000
000000DEFB04FAFD000000
000002FBFC09F7FC000000
000005F8FC0EE4FC000000
000008F5EE3F95FC000000
00000CF2DF8F55FC000000
00002FD0CFCE14FD000000
8B007F80AFFA02FF101B20
CF42EF208FF600EF61BF10
8FFFF8005FF1009FFFF600
09EE80001DA0001AFC5000
ENDCHAR
STARTCHAR uni041D
ENCODING 1053
SWIDTH 873 0
DWIDTH 14 0
BBX 17 15 -1 0
BITMAP
0029EE6000001AE800
03EFEFE10000CFEF10
0DD21FF30006FA3F30
3E200EF4000DF24F10
02000FF3003FC09E00
00001FF2007F98F700
00003FF000BFFFC100
003CDFFDDDFFFA1000
005FFFFECAFF500000
0000CF7001FF200000
0000FF4000FF200000
0003FF1000EF4001B0
0006FD0000AFA01CD0
0009F900003FFEFF40
0007E3000005DEB300
ENDCHAR
STARTCHAR uni041E
ENCODING 1054
SWIDTH 816 0
DWIDTH 13 0
BBX 12 15 1 0
BITMAP
00018DFDA200
002EFFDFFE30
02EFA101CFD1
0AFB00002FF5
2FF300000CF9
7FC0000009FB
BF90000009FB
DF7000000AFA
EF6000000CF8
EF6000001FF4
CF8000006FE0
8FD00001DF70
2FF9002CFC00
06FFEEFFC100
004BEFC70000
ENDCHAR
STARTCHAR uni041F
ENCODING 1055
SWIDTH 892 0
DWIDTH 14 0
BBX 17 15 0 0
BITMAP
00059CDEFFEEDBA810
04DFFFFECCCEFFFF40
1EF71CF7000CF72300
5F800FF4000EF50000
6F903FF2001FF30000
2FB05FE0004FF10000
03108FC0007FD00000
0000AFA0009FA00000
0000CF7000CF700000
0000EF5000EF400000
0001FF3001FF200000
0003FF2002FF100830
0005FF0001FF407F30
0007FE0000BFEDF800
0004E900002BED6000
ENDCHAR
STARTCHAR uni0420
ENCODING 1056
SWIDTH 805 0
DWIDTH 13 0
BBX 14 17 0 -2
BITMAP
000005AEFD9200
0001BFFDEFFE30
000CF92004EFB0
008F9000007FF1
02FD01CD004FF2
07F604FF005FF1
0CF107FC00AFB0
0FC009FA06FF30
2FA2ADFDDFE500
3F93EFFFD92000
4F802FF2000000
3F905FE0000000
1FC07FC0000000
0CF4BF90000000
04FFFF50000000
006EFB00000000
00001000000000
ENDCHAR
STARTCHAR uni0421
ENCODING 1057
SWIDTH 686 0
DWIDTH 11 0
BBX 12 15 1 0
BITMAP
00018DFD8100
003EFFDFF900
02EFA203FF10
0AFB0000EF30
3FF30000FF20
7FC00000C900
BF9000000000
DF7000000000
EF6000000000
DF7000000000
BFA000000000
6FF200000001
1DFD400016CE
02DFFEDEFFF9
0017CEFDB720
ENDCHAR
STARTCHAR uni0422
ENCODING 1058
SWIDTH 697 0
DWIDTH 11 0
BBX 15 15 0 0
BITMAP
0016ACEFFFFFEC30
05EFFDEFFDDDEE40
2EE5008FB0000000
5F8000BF90000000
5F9000EF60000000
2EB001FF40000000
021004FF10000000
000006FE00000000
000008FC00000000
00000AF900000000
00000CF700000000
00000EF600000000
00001FF400000000
00003FF300000000
00001DC000000000
ENDCHAR
STARTCHAR uni0423
ENCODING 1059
SWIDTH 824 0
DWIDTH 13 0
BBX 16 19 0 -4
BITMAP
019EE700000AE200
1DFDFF20000FF400
6E31FF30003FF200
1102FF20007FF000
0005FE0000CFD000
0009FB0004FFA000
000BF8001DFF8000
000AF901BEBF5000
0006FFCEE4DF3000
00009EEA30FF68A1
0000000004FFFFF2
00000006DFFEA620
000003DFFFFA0000
00003EFB48F70000
0000CF700BF30000
0002FD002FC00000
0002FD13DF500000
0000CFFFF8000000
000029BA40000000
ENDCHAR
STARTCHAR uni0424
ENCODING 1060
SWIDTH 977 0
DWIDTH 16 0
BBX 16 21 0 -4
BITMAP
0006200000000000
004FFECCCBA10000
0017CEFFFFE10000
00000000DF100000
00029CA4FD07CA20
002EFFFFFAAFFFC0
00CFA14EFEF52FF3
05FE1009FF700EF4
0AFA000AFC000EF5
0DF6000CF4000FF4
0FF4001EF0002FF2
1FF3008FE0006FD0
1FF304FFD000BF80
0EF53EFFF717FE20
09FFFD9FFFFFF500
008C91AF78CA3000
000000DF20000000
00B502FD00000000
02FD08F700000000
00CFDFD100000000
002BEC3000000000
ENDCHAR
STARTCHAR uni0425
ENCODING 1061
SWIDTH 712 0
DWIDTH 11 0
BBX 15 15 -1 0
BITMAP
003BED50001AE300
04FEEFF200AFE100
0DB11DF906FF4000
051007FD3FF60000
000002FFEF900000
000000DFFC000000
000000AFE2000000
000003FFD0000000
00001DFFF2000000
0000BFCEF6000000
0009FE2AF9000000
005FF506FD000740
03EF9001FF406F50
1DFC00009FFEFA00
2ED2000019EE7000
ENDCHAR
STARTCHAR uni0426
ENCODING 1062
SWIDTH 890 0
DWIDTH 14 0
BBX 17 21 0 -6
BITMAP
008DE8000009E20000
1CFDFF20000DF50000
9E40FF50001FF40000
E600FF40003FF20000
3002FF30005FF00000
0005FF10008FD00000
0008FD0000BFB00000
000BFA0001FF900000
000EF70005FF700000
002FF4000AFF500000
004FF1002EEF300000
006FE000A9FF200000
005FF108E2FF942910
001FFEDF508EFEEE10
0005DFC40008FFB200
0000000003DFF90000
000000005FEBF60000
00000001EF3AF20000
00000003FD3FC00000
00000002FFFF500000
000000005BB5000000
ENDCHAR
STARTCHAR uni0427
ENCODING 1063
SWIDTH 773 0
DWIDTH 12 0
BBX 11 15 1 0
BITMAP
04E800002E90
08FC00006FC0
09FC00008FB0
0AFA00009F90
0CF80000DF70
0EF50002FF60
2FF30008FF40
3FF2003FFF20
1FF936EDEF00
0BFFFFF5FE00
019EEB34FC00
00000006FA00
00000009F900
0000000AF800
00000007E400
ENDCHAR
STARTCHAR uni0428
ENCODING 1064
SWIDTH 1272 0
DWIDTH 20 0
BBX 23 15 0 0
BITMAP
018DE800001DB00007E30000
1CFDFF20003FF0000CF60000
9E40FF50006FE0000EF60000
E500FF40008FC0001FF40000
2002FF3000AF80004FF20000
0005FF0000DF50007FF00000
0008FC0002FF2000AFD00000
000BF90006FE0000EFA00000
000EF6000BFA0004FF800000
002FF3002FF8000AFF600000
004FF0008EF6002EDF400000
006FE003FAF500B9EF400950
005FF55DB6FB3AF2EF93AF40
002FFFFE24FFFF60AFFFF900
0006DFB2009ED6002BED7000
ENDCHAR
STARTCHAR uni0429
ENCODING 1065
SWIDTH 1272 0
DWIDTH 20 0
BBX 23 21 0 -6
BITMAP
018DE800001DB00007E30000
1CFDFF20003FF0000CF60000
9E40FF50006FE0000EF60000
E500FF40008FC0001FF40000
2002FF3000AF80004FF10000
0005FF0000DF50007FE00000
0008FC0002FF2000AFC00000
000BF90006FE0000EFA00000
000EF6000BFA0004FF800000
002FF3002FF8000AFF600000
004FF0008EF6002EDF400000
006FE003FAF500B9EF300000
005FF55DB7FB3AF2EFD94E40
002FFFFE25FFFF607EFFFD10
0006DFB200AED60007FF8100
0000000000000002CFFA0000
000000000000003EFBF70000
00000000000000DF48F40000
00000000000002FE2ED00000
00000000000001EFFF600000
000000000000004AB5000000
ENDCHAR
STARTCHAR uni042A
ENCODING 1066
SWIDTH 863 0
DWIDTH 14 0
BBX 13 14 1 0
BITMAP
1CCCCEF8000000
1DEFFFF7000000
00009FA0000000
0000EF30000000
0004FE8ABA7100
001AFFFFFFFC10
02EFF93117FF60
02CFF30000CF90
000FF20000BF90
000FF20000DF70
000DF40004FF20
0009FA002DF900
0002EFECFFB100
00003BEEC60000
ENDCHAR
STARTCHAR uni042B
ENCODING 1067
SWIDTH 1078 0
DWIDTH 17 0
BBX 17 15 0 0
BITMAP
0009E2000000005E80
000FF4000000009FB0
003FF100000000AF90
006FC000000000CF70
009F8000000000EF50
00CF99BCA50001FF20
03EFFFFFFF9003FF00
6FFF6202AFF206FD00
5CFE00001FF508FB00
04FD00000FF50AF900
04FD00002FF30CF700
02FF00008FD00FF500
00DF6005FF502FF300
006FFDDFF8003FF100
0006DFDA40001EC000
ENDCHAR
STARTCHAR uni042C
ENCODING 1068
SWIDTH 721 0
DWIDTH 12 0
BBX 12 15 0 0
BITMAP
0009E2000000
000FF4000000
003FF1000000
006FC0000000
009F80000000
00CF99BCA500
03EFFFFFFF90
6FFF6202AFF2
5CFE00001FF5
04FD00000FF5
04FD00002FF3
02FF00008FD0
00DF6005FF50
006FFDDFF800
0006DFDA4000
ENDCHAR
STARTCHAR uni042D
ENCODING 1069
SWIDTH 755 0
DWIDTH 12 0
BBX 12 15 0 0
BITMAP
0003ADFD9200
008FFDCFFE30
04FD4002DFD0
05C100003FF5
000000000DF9
000000000AFB
0000000009FB
0007FFFFFFFA
0006CCCCCEF9
000000000EF5
1B9000003FF1
4FD00000CF90
3FE2001AFD10
0CFFCCFFD200
018DEEC71000
ENDCHAR
STARTCHAR uni042E
ENCODING 1070
SWIDTH 1246 0
DWIDTH 20 0
BBX 21 15 -1 0
BITMAP
0019EE5000000009EA2000
01CFFFE00003CD28FFE300
09F62FF3001DEF502CFC00
2F700EF4009F6F4003FF30
2C000EF301FDAE1000DF70
00000FF207FEF70000CF80
00002FF10BFFA00000BF90
00004FE59FF8000000CF80
004EFFFFFFF3000000EF60
005FFFC85FF4000003FF20
0000CF600FF7000009FC00
0001FF200CFC00003FF500
0005FE0007FF9116EFA000
0008FA0000BFFFFFFA0000
0007E4000007CFEB600000
ENDCHAR
STARTCHAR uni042F
ENCODING 1071
SWIDTH 850 0
DWIDTH 14 0
BBX 16 15 0 0
BITMAP
000018DFEC9E7000
0000BFFCDFFFA000
0006FD2001BF9000
000CF70000DF7000
000FF40001FF5000
001FF30005FF3000
000EF6000AFF0000
0009FD411FFD0000
0001DFFFFFFB0000
000017BCFFF90000
0000001CF9F80000
650001BF77F70035
CE103CFA07FA03E8
9FEDFF9004FFCFD1
19EFC500009EE910
ENDCHAR
STARTCHAR uni0430
ENCODING 1072
SWIDTH 470 0
DWIDTH 8 0
BBX 10 8 0 0
BITMAP
002AE73000
02DFEFE000
0BF92FC000
2FE15F9000
5FA08F7055
6FA1DF64F7
3FFEEFEFB1
08EC28EA10
ENDCHAR
STARTCHAR uni0431
ENCODING 1073
SWIDTH 473 0
DWIDTH 8 0
BBX 10 16 0 0
BITMAP
0000005200
0006BEF700
00BFFEA200
01FD200000
00EE200000
006FC10000
0009FA0000
0000BF4000
008EEFC000
08FEEFF100
1FF38FF233
4FC04FFFFA
5FA02FEC93
4FB0AF8000
1EFDFE2000
04CEB30000
ENDCHAR
STARTCHAR uni0432
ENCODING 1074
SWIDTH 473 0
DWIDTH 8 0
BBX 10 16 0 0
BITMAP
0002CE4000
001DFFB000
006F5BD000
00DE0BB000
02FA0E8000
06F74F3000
0AF5BB0000
0CF5E20000
0FFBFB2000
1FFEDFC000
2FF48FF333
2FE04FFFFA
0FE00BFCA3
0DF31ED000
07FEEF6000
009ED70000
ENDCHAR
STARTCHAR uni0433
ENCODING 1075
SWIDTH 380 0
DWIDTH 6 0
BBX 9 8 0 0
BITMAP
07DFD50000
1FEDFD0000
0303FC0000
007ED20000
0BF7000810
5FA003CF10
4FFCDFF500
08DFEA3000
ENDCHAR
STARTCHAR uni0434
ENCODING 1076
SWIDTH 479 0
DWIDTH 8 0
BBX 10 16 0 -8
BITMAP
002AE73000
02DFEFD000
0BFA2FC000
2FE15F9000
5FA08F7193
6FA0DF8DF4
3FFEFFFE50
08EBDFC200
000AFD0000
00AFFA0000
09E8F70000
4F68F30000
BC0DD00000
E95F700000
EFFE100000
6ED3000000
ENDCHAR
STARTCHAR uni0435
ENCODING 1077
SWIDTH 393 0
DWIDTH 6 0
BBX 9 8 0 0
BITMAP
007DE70000
09FEFF1000
2FD19F2000
6F83EC0000
6FEFB20930
4FE303BF30
0DFFDFF700
02AEEB4000
ENDCHAR
STARTCHAR uni0436
ENCODING 1078
SWIDTH 717 0
DWIDTH 11 0
BBX 14 8 0 0
BITMAP
03DE43E54DE700
09FEE8F5EEEF00
0694FEF9F49F00
0003FFDED05600
3D35FCFFC00076
AF3AEAFDF205F6
AFEF6AF4FEDFB0
3DE808A05DE900
ENDCHAR
STARTCHAR uni0437
ENCODING 1079
SWIDTH 435 0
DWIDTH 7 0
BBX 10 16 -1 -8
BITMAP
002ADE9000
00BFDEF400
005405F500
00000AF200
0005CF6024
01DFB306EA
01EF92BFB2
002BFFE600
0006FF2000
007FEF2000
05F7BF1000
1EA0ED0000
6F25F90000
9E0CF20000
9FEF800000
3DE8000000
ENDCHAR
STARTCHAR uni0438
ENCODING 1080
SWIDTH 462 0
DWIDTH 7 0
BBX 10 8 0 0
BITMAP
04E508E000
0AF40ED000
0EF14FA000
1FD09F7000
2FB1EF4075
3FDCFF36F5
1FFF9FEFA0
08E62DE700
ENDCHAR
STARTCHAR uni0439
ENCODING 1081
SWIDTH 462 0
DWIDTH 7 0
BBX 10 13 0 0
BITMAP
0061007900
04F803E700
02FFDFD100
005DEA2000
0000000000
04E508E000
0AF40ED000
0EF14FA000
1FD09F7000
2FB1EF4075
3FDCFF36F5
1FFF9FEFA0
08E62DE700
ENDCHAR
STARTCHAR uni043A
ENCODING 1082
SWIDTH 465 0
DWIDTH 7 0
BBX 10 8 0 0
BITMAP
05E45DE600
0BF5FFEE00
0EEBF49E00
1FDFD06600
2FFFC00075
3FFFF206F6
2FF7FFEFB0
0CA06EE900
ENDCHAR
STARTCHAR uni043B
ENCODING 1083
SWIDTH 549 0
DWIDTH 9 0
BBX 11 8 0 0
BITMAP
00001DE30000
00007FF50000
0000DFF50000
0105FEF40000
9E0BF9F40570
EE4FA8F63E80
DFFE26FFFC10
5ED301CEA100
ENDCHAR
STARTCHAR uni043C
ENCODING 1084
SWIDTH 734 0
DWIDTH 12 0
BBX 14 8 0 0
BITMAP
00006E704EA000
0000DF91EFC000
0003FF97FEC000
0208FCADBEB000
AF0DCBEF5FB029
EE4F7AFE1FC1CA
DFFE18F90EFED2
5ED404E307EB20
ENDCHAR
STARTCHAR uni043D
ENCODING 1085
SWIDTH 475 0
DWIDTH 8 0
BBX 10 8 0 0
BITMAP
05E406E300
0BF20BF100
0EE00ED000
1FFFFFA000
2FEBCF8047
3FA06F63E8
2FA05FEEC1
0C701DE910
ENDCHAR
STARTCHAR uni043E
ENCODING 1086
SWIDTH 451 0
DWIDTH 7 0
BBX 10 8 0 0
BITMAP
008EE80000
09FEFF6000
2FE1EFC141
6F90AFFFF5
7F801FEC91
5FC05F8000
1DFEFE2000
03CEC30000
ENDCHAR
STARTCHAR uni043F
ENCODING 1087
SWIDTH 496 0
DWIDTH 8 0
BBX 10 8 0 0
BITMAP
05E42BE300
0BF3DFF500
0EE9DEF300
1FDF4DF100
2FFB1FD01A
3FF63FB1CD
2FF13FFEE4
0CA00AEB30
ENDCHAR
STARTCHAR uni0440
ENCODING 1088
SWIDTH 481 0
DWIDTH 8 0
BBX 12 16 -2 -8
BITMAP
000AD4DD4000
000FFEEFD000
000EF70EF100
000EF00EF100
001FF04FC037
007FF0CF53EA
01EFFCFFEFD2
06DFFE8CEA10
0C8FD0000000
3F4FB0000000
7D3FA0000000
AA4F70000000
C86F40000000
D9AF10000000
CFF900000000
5EC100000000
ENDCHAR
STARTCHAR uni0441
ENCODING 1089
SWIDTH 368 0
DWIDTH 6 0
BBX 8 8 0 0
BITMAP
007EE500
08FEFD00
2FE2BD00
6FA07500
7F90002A
5FD104DC
1EFEEFE3
03BEE910
ENDCHAR
STARTCHAR uni0442
ENCODING 1090
SWIDTH 744 0
DWIDTH 12 0
BBX 14 8 0 0
BITMAP
05E43CE12BE300
0BF4EFF3DFF500
0EEADFFADEF300
1FDF2EEF3EF000
2FFB1FFB1FC02A
3FF63FF53FB1CD
2FF12FF13FFEE3
0CA00CA00BEB30
ENDCHAR
STARTCHAR uni0443
ENCODING 1091
SWIDTH 479 0
DWIDTH 8 0
BBX 10 16 0 -8
BITMAP
04E508E000
0AF40EE000
0EF14FB000
1FD09F9000
2FB1EF7194
3FDCFF7DF4
1FFFBFFE40
08E6CFB100
0009FD0000
00AFF90000
08E8F60000
4F58F20000
CB0DD00000
F86F700000
FFFD100000
6EC3000000
ENDCHAR
STARTCHAR uni0444
ENCODING 1092
SWIDTH 721 0
DWIDTH 12 0
BBX 14 20 0 -6
BITMAP
00000036000000
000000EF000000
000002FC000000
000005F8000000
000008F5000000
00000AF2000000
002AEFE6EC2000
02DFBFEDBFA000
0BF72FF42FD000
2FD05FE03FD000
5F908FC07F9056
6F90DF92EF34E7
3FFDEFCEFFCFC1
08EB7FFD8DE910
00007F40000000
00008F30000000
00009F30000000
00009F30000000
00009F30000000
00002600000000
ENDCHAR
STARTCHAR uni0445
ENCODING 1093
SWIDTH 529 0
DWIDTH 8 0
BBX 11 8 0 0
BITMAP
03DE72CE6000
09FEFEEFA000
07B5FF4B5000
0003FE000000
3C25FD000650
AF3AFF206F60
AFEFEFEDFA00
3DE82BFD7000
ENDCHAR
STARTCHAR uni0446
ENCODING 1094
SWIDTH 501 0
DWIDTH 8 0
BBX 10 13 0 -5
BITMAP
04E508E000
0AF40ED000
0EF14FA000
1FD09F7000
2FB1EF4000
3FDBFF51A9
1FFF9FFDE4
08E61EFB20
0003DFC000
003E8E9000
00DA5F4000
00FEFC0000
008EB20000
ENDCHAR
STARTCHAR uni0447
ENCODING 1095
SWIDTH 555 0
DWIDTH 9 0
BBX 12 10 -1 0
BITMAP
000036000000
0001EF600000
0004FEFCDE10
0009F5EFFC00
001EB05EB100
007F56FB0000
03FB1EE1002A
0DD24FC005EC
1D302FFDEFD2
000006DFD810
ENDCHAR
STARTCHAR uni0448
ENCODING 1096
SWIDTH 693 0
DWIDTH 11 0
BBX 14 8 0 0
BITMAP
04E50AC00DA000
0AF41FC04F9000
0EF15FA08F6000
1FD0AF80DF3000
2FB1FF66FF00A1
3FDBEFBEFE0AF1
1FFF8FFCDFDF50
08E71DD36EC400
ENDCHAR
STARTCHAR uni0449
ENCODING 1097
SWIDTH 732 0
DWIDTH 12 0
BBX 14 13 0 -5
BITMAP
04E50AC00DA000
0AF41FC04F8000
0EF15FA08F5000
1FD0AF80DF2000
2FB1FF66FE0000
3FDBEFBEFE13D4
1FFF8FFBCFDFD1
08E71DD35FF810
00000006EF8000
0000007E8F4000
000002F5AE0000
000005FDF70000
000001CE800000
ENDCHAR
STARTCHAR uni044A
ENCODING 1098
SWIDTH 542 0
DWIDTH 9 0
BBX 11 8 0 0
BITMAP
3EFFF3000000
04DF70000000
05FDAEB10000
09FFDFF90000
0BF905FB0480
0AF707F94E90
05FFEFFEFC10
007DFCDEA100
ENDCHAR
STARTCHAR uni044B
ENCODING 1099
SWIDTH 702 0
DWIDTH 11 0
BBX 14 8 0 0
BITMAP
05E700002E8000
0BF500009F8000
0EF7DE62EF6000
1FFFDFECFF3000
2FF30BFFFF10A3
1FE11DF9EF19F2
0BFEEFB0BFEF70
01AED8003DE600
ENDCHAR
STARTCHAR uni044C
ENCODING 1100
SWIDTH 517 0
DWIDTH 8 0
BBX 11 8 0 0
BITMAP
05E700000000
0BF500000000
0EF7DE700000
1FFFDFF30000
2FF30BF50A30
1FE11DF39F30
0BFEEFFEF700
01AEEBED6000
ENDCHAR
STARTCHAR uni044D
ENCODING 1101
SWIDTH 466 0
DWIDTH 7 0
BBX 10 8 0 0
BITMAP
04CEEA1000
0AECEFB000
00001EF243
000EFFFFF8
2C2BCEFCA3
6F502EE100
3FFCEF8000
06DED70000
ENDCHAR
STARTCHAR uni044E
ENCODING 1102
SWIDTH 676 0
DWIDTH 11 0
BBX 13 8 0 0
BITMAP
05E402BEC40000
0BF21EFEFE1000
0EE08F95FF6230
1FFFFF32EFFFE0
2FEDFF207FEB60
3FA0BF60AF2000
2FA06FFDFA0000
0C7007EE910000
ENDCHAR
STARTCHAR uni044F
ENCODING 1103
SWIDTH 543 0
DWIDTH 9 0
BBX 11 8 0 0
BITMAP
0008EEBE2000
004FFCEF2000
007F40BE0000
005F53FB0000
8E0AFFF80370
EF11ABF82DA0
DFDEE2FEED20
4DEB209EA100
ENDCHAR
STARTCHAR uni0450
ENCODING 1104
SWIDTH 393 0
DWIDTH 6 0
BBX 9 14 0 0
BITMAP
06E3000000
07FA000000
01DF200000
002E800000
0005B00000
0000000000
007DE70000
09FEFF1000
2FD19F2000
6F83EC0000
6FEFB20930
4FE303BF30
0DFFDFF700
02AEEB4000
ENDCHAR
STARTCHAR uni0451
ENCODING 1105
SWIDTH 393 0
DWIDTH 6 0
BBX 9 12 0 0
BITMAP
01B808B100
05FE0FF400
03E90CD100
0000000000
007DE70000
09FEFF1000
2FD19F2000
6F83EC0000
6FEFB20930
4FE303BF30
0DFFDFF700
02AEEB4000
ENDCHAR
STARTCHAR uni0452
ENCODING 1106
SWIDTH 514 0
DWIDTH 8 0
BBX 10 23 0 -8
BITMAP
002E800000
007F900000
00BF600000
1EFFFFE100
09FFBB9000
05FB000000
08F8000000
0AF61BE400
0CF4CFF700
0EF8EDF500
0FEE5BF300
1FFC0DF14A
1FF70FD7FC
1FF32FFFB1
0BC04FF700
0002DF7000
002DFF4000
01DBCF1000
0AD1EC0000
2F64F70000
6F2BF10000
6FEF800000
1BE9000000
ENDCHAR
STARTCHAR uni0453
ENCODING 1107
SWIDTH 380 0
DWIDTH 6 0
BBX 9 14 0 0
BITMAP
00006E3000
0000DF4000
0005FA0000
000BD10000
000D300000
0000000000
07DFD50000
1FEDFD0000
0303FC0000
007ED20000
0BF7000810
5FA003CF10
4FFCDFF500
08DFEA3000
ENDCHAR
STARTCHAR uni0454
ENCODING 1108
SWIDTH 379 0
DWIDTH 6 0
BBX 9 8 0 0
BITMAP
009EEA0000
0AFEDF5000
2FE11C3000
6FFFC00000
7FEC901A10
4FD102CE10
0DFECFF500
02AEEA3000
ENDCHAR
STARTCHAR uni0455
ENCODING 1109
SWIDTH 427 0
DWIDTH 7 0
BBX 10 8 -1 0
BITMAP
0000BD0000
0006F90000
000CFA0000
005FEF6000
01E95FE15C
0BE45EF9FB
1E3EFFFFF3
0008EFFC40
ENDCHAR
STARTCHAR uni0456
ENCODING 1110
SWIDTH 246 0
DWIDTH 4 0
BBX 6 12 0 0
BITMAP
02DD20
07FF50
02CA10
000000
06E400
0BF400
0EF100
2FD000
3FB01A
3FB1CD
1FFEF4
07EC30
ENDCHAR
STARTCHAR uni0457
ENCODING 1111
SWIDTH 246 0
DWIDTH 4 0
BBX 6 12 0 0
BITMAP
7C23C5
EF59FA
BD16E5
000000
06E400
0BF400
0EF100
2FD000
3FB01A
3FB1CD
1FFEF4
07EC30
ENDCHAR
STARTCHAR uni0458
ENCODING 1112
SWIDTH 254 0
DWIDTH 4 0
BBX 10 20 -4 -8
BITMAP
000004C800
00000CFE00
000008E800
0000000000
000007F400
00000BF400
00000DF200
00000EF000
00001FD048
00002FB8FA
00004FFF91
00006FE600
0003DF5000
003EFF2000
02E9ED0000
0CB2F90000
4F37F50000
8F1DD00000
8FEF600000
2CE8000000
ENDCHAR
STARTCHAR uni0459
ENCODING 1113
SWIDTH 794 0
DWIDTH 13 0
BBX 15 8 0 0
BITMAP
00001DE300000000
00007FF500000000
0000DFF6AEC20000
0205FDFFDEF90000
AE0BF9F904FB0490
EE4F97F707FA3E90
DFFE23FFEFFEFD10
5ED3006DFCDEA100
ENDCHAR
STARTCHAR uni045A
ENCODING 1114
SWIDTH 751 0
DWIDTH 12 0
BBX 14 8 0 0
BITMAP
05E406E3000000
0BF20CF1000000
0EE01FD7ED4000
1FFFFFFEDFE000
2FEBCFD10EF11B
3FA03FB02FE1BE
2FA00DFDEFEEF4
0C7003BEDCEC30
ENDCHAR
STARTCHAR uni045B
ENCODING 1115
SWIDTH 502 0
DWIDTH 8 0
BBX 10 15 0 0
BITMAP
002E800000
007FA00000
00AF700000
1BEFCBA000
1CFFFFD100
05FC000000
07F9000000
0AF61BE400
0CF4CFF700
0EF8EDF500
0FEE5CF200
1FFC0EE01B
1FF71FD1BE
1FF31FFEF5
0BC009EC40
ENDCHAR
STARTCHAR uni045C
ENCODING 1116
SWIDTH 465 0
DWIDTH 7 0
BBX 10 14 0 0
BITMAP
000003E500
00000BF700
00002FC000
00008E2000
0000B50000
0000000000
05E45DE600
0BF5FFEE00
0EEBF49E00
1FDFD06600
2FFFC00075
3FFFF206F6
2FF7FFEFB0
0CA06EE900
ENDCHAR
STARTCHAR uni045D
ENCODING 1117
SWIDTH 462 0
DWIDTH 7 0
BBX 10 14 0 0
BITMAP
01D8000000
01FF200000
007F800000
000AE10000
0001D30000
0000000000
04E508E000
0AF40ED000
0EF14FA000
1FD09F7000
2FB1EF4075
3FDCFF36F5
1FFF9FEFA0
08E62DE700
ENDCHAR
STARTCHAR uni045E
ENCODING 1118
SWIDTH 479 0
DWIDTH 8 0
BBX 10 21 0 -8
BITMAP
0061007900
04F803E700
02FFDFD100
005DEA2000
0000000000
04E508E000
0AF40EE000
0EF14FB000
1FD09F9000
2FB1EF7194
3FDCFF7DF4
1FFFBFFE40
08E6CFB100
0009FD0000
00AFF90000
08E8F60000
4F58F20000
CB0DD00000
F86F700000
FFFD100000
6EC3000000
ENDCHAR
STARTCHAR uni045F
ENCODING 1119
SWIDTH 600 0
DWIDTH 10 0
BBX 10 10 0 -2
BITMAP
04E508E000
0AF40ED000
0EF14FA000
1FD09F7000
2FB1EF4075
3FDCFF36F5
1FFF9FEFA0
09F72DE700
06F3000000
04C0000000
ENDCHAR
STARTCHAR uni0462
ENCODING 1122
SWIDTH 721 0
DWIDTH 12 0
BBX 12 15 0 0
BITMAP
0009E2000000
000EF4000000
09CFFCB10000
0DFFFFD10000
007FA0000000
00BFA9BCA500
01EFFFFFFF90
4EFF6202AFF2
5CFE00001FF5
04FD00000FF5
04FD00002FF3
02FF00008FD0
00DF6005FF50
006FFDDFF800
0006DFDA4000
ENDCHAR
STARTCHAR uni0463
ENCODING 1123
SWIDTH 517 0
DWIDTH 8 0
BBX 11 11 0 0
BITMAP
00BE10000000
03FE00000000
7DFEC6000000
7FFFF8000000
0EF200000000
1FF5DE700000
3FFFDFF20000
3FF40BF50930
1FE10CF38F30
0BFEDFFDF700
01AEEBED6000
ENDCHAR
STARTCHAR uni046A
ENCODING 1130
SWIDTH 1234 0
DWIDTH 20 0
BBX 22 15 0 0
BITMAP
000AFFFFFFFFFFFFFFFD10
0009CEFFCCCCCCCDFFC900
000003FF10000009F90000
000000CF5000001EF30000
0000008F8000006FD00000
0000004FB00002EF600000
0000000DF4014DFA000000
00000003EFFFFE70000000
0000004DFEFFEF80000000
000003FF75FD1EF5000000
00000CF907FB07FC000000
03005FE109F902FF400081
7F50CF600BF700AFD108F2
6FFDFB000DF5002EFEDF70
08EEA1000BE20003CFD500
ENDCHAR
STARTCHAR uni046B
ENCODING 1131
SWIDTH 788 0
DWIDTH 13 0
BBX 15 15 0 0
BITMAP
00000000BE300000
00000005FF500000
00000009FF400000
0000000DDF300000
0000002FCF100000
0000006FAF100000
000000AE9F000000
0003ECEAAE8E8000
0004DFF6AFFD5000
00000CF1AF600000
00002FF1CF000000
3B20AFF5FF200470
AF36FEFCEF803E80
AFEFD5FF5DFDFD10
3DEA12EB03CEB200
ENDCHAR
STARTCHAR uni0472
ENCODING 1138
SWIDTH 816 0
DWIDTH 13 0
BBX 12 15 1 0
BITMAP
00018DFDA200
002EFECEFE30
02EFA101CFD1
0AFC00002FF5
2FF300000CF9
7FD000000AFB
BFDBB8301AFB
DFFFFFFFFFFA
EF8115ABAEF8
EF6000001FF4
CF8000006FE0
8FD00001EF70
2FF9002BFC00
06FFECFFC100
004BEFC70000
ENDCHAR
STARTCHAR uni0473
ENCODING 1139
SWIDTH 451 0
DWIDTH 7 0
BBX 10 8 0 0
BITMAP
008EE80000
09FEEF6000
2FD12FC251
6FE72EFFF5
7FFFFFFEB1
5FB6CF9000
1DFDFE2000
03CEC30000
ENDCHAR
STARTCHAR uni0474
ENCODING 1140
SWIDTH 797 0
DWIDTH 13 0
BBX 14 15 2 0
BITMAP
4E8000002EFFC5
9FB000007FFFFC
BF900000AFB143
DF700000DF8000
EF600001FF4000
FF500005FF1000
FF400009FB0000
FF40000DF60000
FF50003FF10000
DF60009FA00000
BF8001EF300000
8FC00AFA000000
4FF89FE2000000
0CFFFE40000000
02CEB300000000
ENDCHAR
STARTCHAR uni0475
ENCODING 1141
SWIDTH 420 0
DWIDTH 7 0
BBX 9 8 0 0
BITMAP
1E9007FE70
3FB01EEA70
3FB06F9000
2FC0CF3000
1FD5FA0000
0FECF30000
0DFF900000
06EA100000
ENDCHAR
STARTCHAR uni048A
ENCODING 1162
SWIDTH 890 0
DWIDTH 14 0
BBX 17 23 0 -3
BITMAP
00000053004D000000
000000FD23DD000000
000000CFFFF5000000
00000019BA40000000
000000000000000000
018DE8000009E20000
1CFDFF20000EF50000
9E40FF50001FF40000
E500FF40003FF20000
2002FF30005FF00000
0005FF00008FD00000
0008FC0000CFA00000
000BF90001FF800000
000EF60006FF600000
002FF3000CFF400000
004FF0004DEF300000
006FE001D8FF200B30
005FF54CD2FF83BE20
001FFFFF40DFFFF400
0005DFC3003CFF5000
000000000006F80000
00000000003FD00000
00000000006E400000
ENDCHAR
STARTCHAR uni048B
ENCODING 1163
SWIDTH 462 0
DWIDTH 7 0
BBX 10 16 0 -3
BITMAP
0061007900
04F915F700
01EFFFC100
003AB71000
0000000000
04E508E000
0AF40ED000
0EF14FA000
1FD09F7000
2FB1EF4075
3FDCFF36F5
1FFF9FEFA0
08E63EFB00
00001ED100
0000AF5000
0000C90000
ENDCHAR
STARTCHAR uni048C
ENCODING 1164
SWIDTH 721 0
DWIDTH 12 0
BBX 12 15 0 0
BITMAP
0009E2000000
000EF4000000
09CFFCB10000
0DFFFFD10000
007FA0000000
00BFA9BCA500
01EFFFFFFF90
4EFF6202AFF2
5CFE00001FF5
04FD00000FF5
04FD00002FF3
02FF00008FD0
00DF6005FF50
006FFDDFF800
0006DFDA4000
ENDCHAR
STARTCHAR uni048D
ENCODING 1165
SWIDTH 517 0
DWIDTH 8 0
BBX 11 11 0 0
BITMAP
00BE10000000
03FE00000000
7DFEC6000000
7FFFF8000000
0EF200000000
1FF5DE700000
3FFFDFF20000
3FF40BF50930
1FE10CF38F30
0BFEDFFDF700
01AEEBED6000
ENDCHAR
STARTCHAR uni048E
ENCODING 1166
SWIDTH 805 0
DWIDTH 13 0
BBX 15 17 0 -2
BITMAP
000005AEFD920000
0001BFFCDFFE2000
000CF91003EFB000
008F8000007FF100
02FD01CD004FF200
07F604FF099FF100
0CF107FC09FFE200
0FC009FA05FFEF20
2FA2AEFDDFF60400
3F93EFFFD9300000
4F802FF200000000
3F905FE000000000
1FC07FC000000000
0CF4BF9000000000
05FFFF5000000000
006EFB0000000000
0000100000000000
ENDCHAR
STARTCHAR uni048F
ENCODING 1167
SWIDTH 481 0
DWIDTH 8 0
BBX 12 16 -2 -8
BITMAP
000BD4DD4000
000FFEDFD000
000EF60EF100
000EF00FF100
001FF7AFC05A
008FF7FF53E9
01EFFCFFDFD1
07DFFE9CEA10
0D8FD0000000
3F4FB0000000
7E3FA0000000
BA4F70000000
C86F40000000
D9AF10000000
CEF900000000
4EC100000000
ENDCHAR
STARTCHAR uni0490
ENCODING 1168
SWIDTH 645 0
DWIDTH 10 0
BBX 15 19 0 0
BITMAP
0000000000002600
0000000000009F30
000000000000BF20
000000000000EF00
0028BDEFFFFFFC00
06FFFFFDCCCB9300
2FE61FF400000000
6F803FF200000000
6F905FE000000000
2FB08FC000000000
0100AF9000000000
0000CF7000000000
0000EF5000000000
0001FF3000000000
0004FF1000000000
0006FE0000000000
0008FC0000000000
0009FB0000000000
0006E60000000000
ENDCHAR
STARTCHAR uni0491
ENCODING 1169
SWIDTH 394 0
DWIDTH 6 0
BBX 7 11 0 0
BITMAP
00000440
00000BC0
00012EB0
05EFFF70
0BFCB810
0EE00000
1FC00000
2FB00000
3FA00000
2FA00000
0C700000
ENDCHAR
STARTCHAR uni0492
ENCODING 1170
SWIDTH 635 0
DWIDTH 10 0
BBX 14 16 0 0
BITMAP
00000000000110
0027BDEFFFFFFA
05EFFFFDCCCBA4
1EF61EF4000000
5F902FF2000000
6F805FF0000000
4FC07FC0000000
06409FA0000000
006FFFFF800000
005CFFDB500000
0000FF40000000
0003FF20000000
0005FF00000000
0007FD00000000
0009FB00000000
0007E700000000
ENDCHAR
STARTCHAR uni0493
ENCODING 1171
SWIDTH 380 0
DWIDTH 6 0
BBX 9 8 0 0
BITMAP
07DFD50000
1FEDFD0000
0303FC0000
788EE30000
3FFFA01910
5FB343CF10
4FFCDFF500
08DFDA2000
ENDCHAR
STARTCHAR uni0494
ENCODING 1172
SWIDTH 884 0
DWIDTH 14 0
BBX 16 24 0 -8
BITMAP
0000000000011000
0017BDEFFFFFFA00
04EFFFFDCCCBA400
1EF83EF400000000
5F902FF200000000
6F805FF000000000
4FB08FD000000000
0A70AFA000000000
0000CF82AEEB2000
0000EF9EECFFC000
0001FFF9104FF100
0004FF90002FF202
0006FF10004FF2BC
0008FC00005FFDFA
0009FB00007FFF80
0006E60000BFE500
000000001BFF6000
00000001CFFF3000
0000000BFBFE0000
0000006FA6FA0000
000000CF1AF40000
000000FC2FD00000
000000EFEF400000
0000006ED5000000
ENDCHAR
STARTCHAR uni0495
ENCODING 1173
SWIDTH 441 0
DWIDTH 7 0
BBX 9 13 0 -5
BITMAP
07DFD50000
1FEDFD0000
0303FC0000
007ED20000
0BF7000000
5FA0021A90
5FFCDFDF50
0AEEFFC200
003DFD0000
03E8E90000
0CA4F50000
0EEEC00000
07EB200000
ENDCHAR
STARTCHAR uni0496
ENCODING 1174
SWIDTH 1234 0
DWIDTH 20 0
BBX 22 21 0 -6
BITMAP
0008DE80001DB0002CFD40
007FDFF6005FE000DFDFD0
005505FD006FD006F90880
000000DF307FB00CF30000
0000008F709F904FD00000
0000005FA0BF71DF600000
0000000DF3CF8CFB000000
00000003EFFFFE70000000
0000004EFEFFEF80000000
000004FF75FD1EF6000000
00000CF907FB07FD000000
04005FE109F902FF600000
7F50CF600BF7009FE54299
6FFDFB000DF5001DFFFFF6
08EEA1000BE20001BFFD40
0000000000000007FFF100
00000000000000BFBEE000
00000000000007FA2FA000
0000000000000BF5AF5000
00000000000009FFFC0000
000000000000019B910000
ENDCHAR
STARTCHAR uni0497
ENCODING 1175
SWIDTH 803 0
DWIDTH 13 0
BBX 15 13 0 -5
BITMAP
03DE43E54DE70000
09FEE8F5EEEF0000
0694FEF9F49F0000
0003FFDED0560000
3D35FCFFC0000000
AF3AEAFEF2012C60
AFEF6AF5FEDEEE30
3DE808A07EFFA100
000000004DFA0000
00000005E8F60000
0000001E77F20000
0000002FDF900000
0000000AEA100000
ENDCHAR
STARTCHAR uni0498
ENCODING 1176
SWIDTH 725 0
DWIDTH 12 0
BBX 11 21 0 -6
BITMAP
00017CEEB300
001DFFCEFE10
008FC102EF50
00CF3000BF60
00CF2000CF40
00490002FE00
0000001CF500
00007EFFF800
00009B84CF90
012000005FF0
0DF100005FF0
1FF20000BFD0
0EF80018FF60
07FFDCEFF900
005BEFFF8000
00007FFF5000
0008FAAF2000
003FD0DE0000
006FA6F90000
005FFFE20000
0007BA300000
ENDCHAR
STARTCHAR uni0499
ENCODING 1177
SWIDTH 445 0
DWIDTH 7 0
BBX 9 13 0 -5
BITMAP
02BEEA1000
0DFDEF7000
0E607F7000
0018EA1000
003BFB1020
5C109F7CC0
6FEDFFEE50
0AEEFFB200
002CFB0000
02E9F80000
0AC4F40000
0CEED00000
05EC300000
ENDCHAR
STARTCHAR uni049A
ENCODING 1178
SWIDTH 937 0
DWIDTH 15 0
BBX 17 21 0 -6
BITMAP
0017CEFD910008E300
01DFECEFF6001FF400
09F8008FB0006FE000
0DF100AF8000CF8000
0DF100CF7005FE1000
0AF400EF501DF60000
038101FF34DF800000
00002CFFEFE6000000
00004FFFFF70000000
000007FB5FF7000000
000009F909FE100000
5D000CF602FF600020
8F704FF200AFD74AE0
2FFDFF90002EFFFF80
03CEE8000005FFD400
00000000006EFF4000
0000000008FDCF2000
000000004FD1DD0000
000000007F96F80000
000000005FFFE10000
0000000007BA200000
ENDCHAR
STARTCHAR uni049B
ENCODING 1179
SWIDTH 531 0
DWIDTH 9 0
BBX 11 13 0 -5
BITMAP
05E45DE60000
0BF5FEEE0000
0EEBF39E0000
1FCFD0660000
2FFFC0000000
3FFFE1014D10
2FF8FDDDFB00
0CB07EFE6000
00008FF50000
000ADAF10000
005F2CB00000
008FDF400000
002DD6000000
ENDCHAR
STARTCHAR uni049C
ENCODING 1180
SWIDTH 937 0
DWIDTH 15 0
BBX 17 15 0 0
BITMAP
0017CEFD910008E300
01DFECEFF6001FF400
09F8008FB0006FE000
0DF100AF8000CF8000
0DF100CF7A14FE1000
0AF400EF7F5DF60000
038101FF6FEF800000
00002CFFEFE6000000
00004FFFFF60000000
000007FCAFF6000000
000009F9BFFE000000
5B000CF6CCFF6002C0
8F704FF294BFE32CE0
3FFDFF90003FFFFF40
04CFE8000004DEC300
ENDCHAR
STARTCHAR uni049D
ENCODING 1181
SWIDTH 485 0
DWIDTH 8 0
BBX 10 8 0 0
BITMAP
05E41CEA00
0BF29FDF40
0EE9E85F40
1FEDF31500
2FFFF2004B
3FFFF703EA
2FCBFFDFD1
0C705DEB20
ENDCHAR
STARTCHAR uni049E
ENCODING 1182
SWIDTH 937 0
DWIDTH 15 0
BBX 17 15 0 0
BITMAP
0017CEFD910008E300
01DFECEFF6001FF400
08F9008FB0006FE000
0DF100AF9000CF8000
0DF19FFFFE15FE1000
0BF48CFFD92DF60000
04A100FF34DF800000
00002CFFEFE6000000
00004FFFFF60000000
000007FB5FF6000000
000009F909FE000000
5B000CF602FF6002C0
8F704FF200AFE32CE0
3FFDFF90002EFFFF40
04CFE8000004DEC300
ENDCHAR
STARTCHAR uni049F
ENCODING 1183
SWIDTH 473 0
DWIDTH 8 0
BBX 10 15 0 0
BITMAP
002E800000
007FA00000
00AF700000
1BEFDCB000
1CFFFFD100
04FC000000
07F9000000
0AF64CE800
0CF5EFEF10
0EF9F57F10
0FDEE05700
1FFFD00056
1FFFF304F8
0FF8FFCFC1
0AC05DEA10
ENDCHAR
STARTCHAR uni04A0
ENCODING 1184
SWIDTH 937 0
DWIDTH 15 0
BBX 17 15 0 0
BITMAP
00100135610008E300
07FFFFFFF5001FF500
05EFFFFFC1006FE100
000000AF9000CF9000
000000CF7005FF2000
000000EF501DF70000
000001FF34DF800000
00002CFFEFE6000000
00004FFFFF60000000
000007FB5FF6000000
000009F909FE000000
5B000CF602FF6002C0
8F704FF200AFE32CE0
3FFDFF90002EFFFF40
04CFE8000004DEC300
ENDCHAR
STARTCHAR uni04A1
ENCODING 1185
SWIDTH 555 0
DWIDTH 9 0
BBX 11 8 0 0
BITMAP
3EFFB1AEB100
19DF9BFDF600
007F9FA2F600
00AFCF42B100
00BFFF300180
00BFFF801CD0
00AF9EFDEE30
005E32CFC300
ENDCHAR
STARTCHAR uni04A2
ENCODING 1186
SWIDTH 907 0
DWIDTH 15 0
BBX 18 21 -1 -6
BITMAP
0029EE5000001BE800
03EEDFE10000CFEF10
0DC21FF30006F93F30
3E200EF4000DF24F10
02000FF3003FC09D00
00001FF2007F87F600
00003FF000AFFFA000
003BDFFCCCFFE70000
005FFFFECAFF300000
0000CF7001FF200000
0000FF4001FF300000
0003FF1000EF500011
0006FD0000BFE754D7
0009F900004FFFFFD2
0007E3000004DFF910
00000000001BFFC000
0000000002DFAFA000
000000000BF66F6000
000000000EF3CF2000
000000000DFFF80000
0000000003AB700000
ENDCHAR
STARTCHAR uni04A3
ENCODING 1187
SWIDTH 515 0
DWIDTH 8 0
BBX 10 13 0 -5
BITMAP
05E406E300
0BF20BF100
0EE00ED000
1FFFFFA000
2FEBDF7000
3FA06F807C
2FA04FFDF7
0C700CFD40
0001BFF100
001DBCC000
009D2F7000
00CFEE1000
005EC30000
ENDCHAR
STARTCHAR uni04A4
ENCODING 1188
SWIDTH 873 0
DWIDTH 14 0
BBX 19 15 -1 0
BITMAP
0019EE5000002BFFEC60
02DEDFE10000CFDCCC70
0DD21FF30006FD000000
3E200EF4000DF6000000
03000FF3003FF1000000
00001FF2007FB0000000
00003FF000AF80000000
003BDFFCCDFF50000000
005FFFFECAFF30000000
0000CF7001FF20000000
0000FF4000FF20000000
0003FF1000EF4001B000
0006FD0000AFA01BE000
0009F900003FFDEF4000
0007E3000005DEB30000
ENDCHAR
STARTCHAR uni04A5
ENCODING 1189
SWIDTH 475 0
DWIDTH 8 0
BBX 10 9 0 0
BITMAP
0000001630
05E405FF80
0BF20BF400
0EE00ED000
1FFFFFB000
2FEBCF8047
3FA06F63E8
2FA05FEEC1
0C701DE910
ENDCHAR
STARTCHAR uni04A8
ENCODING 1192
SWIDTH 997 0
DWIDTH 16 0
BBX 17 15 1 0
BITMAP
0002AEC00000000000
004EFFD00000000000
02EFC5106CFE910000
0AFC100AFFFFFD1000
3FF4007FE515EF8000
7FD000EF70008FD000
BF9004FF10004FF100
DF7006FD00004FF100
EF6007FC00005FE000
DF7006FD0000AFA000
BFA003FF2003FF3000
7FF200CFB04EF80010
1DFD414FFDFF937DE0
03EFFFFFFFFFFFFF70
0018CEEDA8CEEC8200
ENDCHAR
STARTCHAR uni04A9
ENCODING 1193
SWIDTH 574 0
DWIDTH 9 0
BBX 12 8 0 0
BITMAP
008E90000000
09FC68ED3000
2FE16FCFB000
6F90CD0BC000
7F80EB0D9092
5FB0DDAF4BF2
1DFCEFFEFF60
03BEECEEA300
ENDCHAR
STARTCHAR uni04AA
ENCODING 1194
SWIDTH 781 0
DWIDTH 13 0
BBX 14 23 1 -8
BITMAP
00018DFD810000
002DFFCEFA0000
01EFA102FF1000
0AFB0000EF3000
2FF30000FF2000
7FC00000BA0000
BF900000000000
DF700000000000
EF600000000000
DF700000000000
CF900000000000
8FD000002C22C2
2EF91004DF5DE1
05FFECEFFFEC20
003AEFD9FF8000
0000000AFB0000
000000BFF70000
00000AEAF40000
00006F4BF10000
0000DA1EA00000
0002F67F500000
0002FEFC000000
00008EB2000000
ENDCHAR
STARTCHAR uni04AB
ENCODING 1195
SWIDTH 431 0
DWIDTH 7 0
BBX 9 13 0 -5
BITMAP
007EE50000
08FEFD0000
1FE1BD0000
5FA0750000
7F90000000
6FC0022B70
1EFEDEEE30
04DFFFA100
003DFB0000
04F8F70000
0E86F20000
2FEFA00000
0AEA100000
ENDCHAR
STARTCHAR uni04AC
ENCODING 1196
SWIDTH 697 0
DWIDTH 11 0
BBX 15 20 0 -5
BITMAP
0016ACEFFFFFEC30
05EFECDFECCCDD40
2FD4008FB0000000
6F8000BF80000000
5FA000EF60000000
1C8002FF30000000
000004FF10000000
000007FD00000000
000009FB00000000
00000BF900000000
00000DF700000000
00000FF500000000
00002FF930000000
00002FFF90000000
00002DFF70000000
0003EDAF40000000
001EF3AF10000000
004FB2FB00000000
004FFEF400000000
0009ED6000000000
ENDCHAR
STARTCHAR uni04AD
ENCODING 1197
SWIDTH 784 0
DWIDTH 13 0
BBX 15 13 0 -5
BITMAP
05E43CE12BE30000
0BF4EFF3DFF50000
0EEADFFADEF30000
1FDF2EEF3EF00000
2FFB1FFB1FC00000
3FF63FF53FC14E20
2FF12FF12FFDFB00
0CA00CA008FE7000
000000008FF50000
0000000AD9F20000
0000005F3CC00000
0000007FDF500000
0000002DE7000000
ENDCHAR
STARTCHAR uni04AE
ENCODING 1198
SWIDTH 677 0
DWIDTH 11 0
BBX 10 15 2 0
BITMAP
8E400004EA
AFC0000DF8
5FF2007FE1
0EF701EF60
08FD08FC00
03FF5EF400
00CFEFA000
007FFF2000
001FF80000
000CF40000
000DF30000
000EF20000
000FF20000
001FF10000
000DD00000
ENDCHAR
STARTCHAR uni04AF
ENCODING 1199
SWIDTH 472 0
DWIDTH 8 0
BBX 10 14 0 -6
BITMAP
1D8009E200
2FC04FF500
0FE07FF311
0DF15FFDFA
0BF2AFDEC4
0AF6F90000
08FEE10000
07FF400000
06FA000000
05FB000000
04FC000000
03FD000000
01FD000000
0064000000
ENDCHAR
STARTCHAR uni04B0
ENCODING 1200
SWIDTH 677 0
DWIDTH 11 0
BBX 10 15 2 0
BITMAP
8E400004EA
AFB0000DF8
5FF2006FE1
0EF701EF70
09FC07FD00
03FF4EF500
00DFEFB000
007FFF3000
002FFA0000
0BFFFFE300
09CFFCB100
000EF30000
000FF20000
000FF10000
000DD00000
ENDCHAR
STARTCHAR uni04B1
ENCODING 1201
SWIDTH 472 0
DWIDTH 8 0
BBX 10 14 0 -6
BITMAP
1D8009E200
2FC04FF500
0FE07FF311
0DF15FFDFA
0CF29FDEC4
0AF5FA0000
09FDF20000
08FF700000
9FFFF90000
6CFEB50000
04FB000000
03FC000000
02FD000000
0064000000
ENDCHAR
STARTCHAR uni04B2
ENCODING 1202
SWIDTH 716 0
DWIDTH 11 0
BBX 15 21 -1 -6
BITMAP
003BED50001BE300
04FEEFF200AFD100
0DA11DF907FF3000
040006FE4FF60000
000002FFEF900000
000000DFFB000000
000000AFE1000000
000004FFE0000000
00002EFFF3000000
0000CFADF6000000
0009FD19FA000000
006FF406FE000110
03FF8001FF955E60
1DFC00009FFFFD20
2ED200001DFF8000
00000001AFFC0000
0000002DFAF90000
000000BF67F60000
000000FF2DE10000
000000EFFF700000
0000003AB6000000
ENDCHAR
STARTCHAR uni04B3
ENCODING 1203
SWIDTH 601 0
DWIDTH 10 0
BBX 12 13 0 -5
BITMAP
03DE73CE6000
09FEFEEFA000
07B4FF3B5000
0003FE000000
3B25FD000000
AF39FF1003C3
AFDFFFDCDFD1
3DE95EFFF800
000005EF7000
00008E9F3000
0003F4AD0000
0006FDF60000
0001CE700000
ENDCHAR
STARTCHAR uni04B4
ENCODING 1204
SWIDTH 1040 0
DWIDTH 17 0
BBX 19 21 0 -6
BITMAP
0016ADEFFED903E70000
05EFFDDFFCC908FB0000
1FE5005FF0000AFA0000
5F80008FB0000CF80000
6F9000BF80000EF60000
2FB000EF50002FF40000
042003FF20005FF10000
000005FE00009FE00000
000008FC0000DFC00000
00000BF90004FFB00000
00000DF7000BDF900000
00000FF5004EAF800000
00000EF703E6AFD70760
00000AFFCFA04DFFDF70
000002BED80004DFE500
0000000000019FFE1000
00000000001CFAFC0000
00000000009F94F80000
0000000000DF4BF30000
0000000000BFFFA00000
000000000029B8100000
ENDCHAR
STARTCHAR uni04B5
ENCODING 1205
SWIDTH 501 0
DWIDTH 8 0
BBX 10 16 0 -5
BITMAP
006FFFF600
005CCCB400
0000000000
04E508E000
0AF40ED000
0EF14FA000
1FD09F7000
2FB1EF4000
3FDBFF51A9
1FFF9FFDE4
08E61EFB20
0003DFC000
003E8E9000
00DA5F4000
00FEFC0000
008EB20000
ENDCHAR
STARTCHAR uni04B6
ENCODING 1206
SWIDTH 804 0
DWIDTH 13 0
BBX 14 21 1 -6
BITMAP
04E800002E9000
08FC00006FC000
09FC00008FB000
0AFA00009F9000
0CF80000DF8000
0EF50002FF6000
2FF30008FF4000
3FF2003FFF2000
1FF936EDEF1000
0BFFFFF5FE0000
019EEB34FC0000
00000006FB0000
00000006FFB49B
00000001CFFFF8
000000002CFD40
00000007FFF200
000000AFBDF000
000005FB1FB000
000009F78F6000
000007FFFD1000
0000018B920000
ENDCHAR
STARTCHAR uni04B7
ENCODING 1207
SWIDTH 631 0
DWIDTH 10 0
BBX 13 14 -1 -5
BITMAP
0000AE40000000
0002FEECDE1000
0007F5EFFC0000
000DB05EB10000
005F55FB000000
01EB1EE1000000
0BE23FC0021AA0
1E302FFDDFEE50
000008EEFFB200
0000003DFD0000
000003E9DA0000
00000BB4F50000
00000EEED00000
000007EB200000
ENDCHAR
STARTCHAR uni04B8
ENCODING 1208
SWIDTH 773 0
DWIDTH 12 0
BBX 11 15 1 0
BITMAP
04E800002E90
08FC00006FC0
09FC00008FB0
0AFA0000AF90
0CF81700DF70
0EF55F12FF60
2FF36E08FF40
3FF28C3FFF20
1FFABDEDEF00
0BFFFFE4FE00
01AEFC34FC00
0000F506FA00
0000C209F900
0000000AF800
00000007E400
ENDCHAR
STARTCHAR uni04B9
ENCODING 1209
SWIDTH 575 0
DWIDTH 9 0
BBX 13 10 -1 0
BITMAP
00000005000000
0000AE6D000000
0003FFFC9D5000
0007F9FFFE2000
000DD79CD30000
006F61CD200000
02EC09F4000920
0CE20EF204CF20
1C300CFFEFF600
000003CEEA3000
ENDCHAR
STARTCHAR uni04BA
ENCODING 1210
SWIDTH 755 0
DWIDTH 12 0
BBX 14 15 1 0
BITMAP
00CE1000000000
02FF3000000000
03FF1000000000
05FE0000000000
07FC0000000000
09FA0000000000
0BF70000000000
0EF54BEEA10000
1FF9FECFFA0000
3FFF7006FF0000
5FF70004FF0000
8FE00006FD0091
AFA00008FB09F1
BF900009FFDF50
8E400003DEB400
ENDCHAR
STARTCHAR uni04BB
ENCODING 1211
SWIDTH 502 0
DWIDTH 8 0
BBX 10 16 0 0
BITMAP
0002CE4000
000DFFB000
005F5BD000
00BE0BB000
01FB0E7000
05F75F2000
09F5D90000
0BFAD10000
0DFF5BE400
0FF7CFF700
1FD7EDF500
1FDE5CF200
2FFC0EE01B
2FF71FD1BE
2FF31FFEF5
1EA009EC40
ENDCHAR
STARTCHAR uni04BC
ENCODING 1212
SWIDTH 808 0
DWIDTH 13 0
BBX 15 15 0 0
BITMAP
00000028DFD70000
000003EFEDFF6000
00002EF9106FD000
0000AFB0001FF100
0002FF30000FF200
0217FD00000FF100
1FABF900003FE000
1FFFFFFFFFFFB000
06BFFDCCCCCA3000
000FF60000000000
000DF80000000000
0009FE1000000000
0002EFC300015BD0
00004EFFDCDFFF90
0000017CEFDC8300
ENDCHAR
STARTCHAR uni04BD
ENCODING 1213
SWIDTH 483 0
DWIDTH 8 0
BBX 10 8 0 0
BITMAP
0003CEB100
002EFDF800
00AF62F800
74EF19F400
BEFFEE6048
27EF9106EA
007FFDEFC1
0007DFD710
ENDCHAR
STARTCHAR uni04BE
ENCODING 1214
SWIDTH 808 0
DWIDTH 13 0
BBX 15 19 0 -4
BITMAP
00000028DFD70000
000003EFEDFF6000
00002EF9106FD000
0000AFB0001FF100
0002FF30000FF200
0217FD00000FF100
1FABF900003FE000
1FFFFFFFFFFFB000
06BFFDCCCCCA3000
000FF60000000000
000DF80000000000
0009FE1000000000
0002EFC300015BD0
00004EFFDCDFFF90
000002EFFFDC8300
000007F300000000
00000CE000000000
00000BFDC4000000
000002CFD2000000
ENDCHAR
STARTCHAR uni04BF
ENCODING 1215
SWIDTH 483 0
DWIDTH 8 0
BBX 10 13 0 -5
BITMAP
0003BEB100
002EFDF700
009F62F900
53EF08F500
CDFFCFA026
4BFFB402DB
009FC79FF4
001CFFFC30
0000AE4000
0000F90000
0001FB1000
0000BFFF10
0000168400
ENDCHAR
STARTCHAR uni04C0
ENCODING 1216
SWIDTH 495 0
DWIDTH 8 0
BBX 10 15 -1 0
BITMAP
003DFFFFFB
003CDFFDD7
00002FF200
00004FF000
00006FD000
00008FB000
0000AF9000
0000CF7000
0000EF4000
0001FF3000
0003FF1000
0005FE0000
0007FC0000
19CEFEDA00
2EFFFFFC00
ENDCHAR
STARTCHAR uni04C1
ENCODING 1217
SWIDTH 1234 0
DWIDTH 20 0
BBX 22 19 0 0
BITMAP
0000000000000052000000
0000000006E305F6000000
0000000007FFDFE1000000
00000000019EEB20000000
0008DE80001DB0002CFD40
007FDFF6005FE000DFDFD0
005505FD006FD006F90880
000000DF307FB00CF30000
0000008F709F904FD00000
0000005FA0BF71DF600000
0000000DF3CF8CFB000000
00000003EFFFFE80000000
0000004DFEFFEF80000000
000003FF75FD1EF5000000
00000CF907FB07FC000000
03005FE109F902FF400081
7F50CF600BF700AFD108F2
6FFDFB000DF5002EFEDF70
08EEA1000BE20003CFD500
ENDCHAR
STARTCHAR uni04C2
ENCODING 1218
SWIDTH 717 0
DWIDTH 11 0
BBX 14 13 0 0
BITMAP
000053003C0000
0001FC01CB0000
0000DFDEF30000
00002CFC400000
00000000000000
03DE43E54DE700
09FEE8F5EEEF00
0694FEF9F49F00
0003FFDED05600
3D35FCFFC00076
AF3AEAFDF205F6
AFEF6AF4FEDFB0
3DE808A05DE900
ENDCHAR
STARTCHAR uni04C3
ENCODING 1219
SWIDTH 937 0
DWIDTH 15 0
BBX 17 21 0 -6
BITMAP
0017CEFD910008E300
01DFECEFF6001FF400
09F8008FB0006FE000
0DF100AF8000CF8000
0DF100CF7005FE1000
0AF400EF501DF60000
038101FF34DF800000
00002CFFEFE6000000
00004FFFFF70000000
000007FB5FF7000000
000009F909FE100000
5D000CF602FF600020
8F704FF200AFD74AE0
2FFDFF90002EFFFF80
03CEE8000005FFD400
00000000006EFF4000
0000000008FDCF2000
000000004FD1DD0000
000000007F96F80000
000000005FFFE10000
0000000007BA200000
ENDCHAR
STARTCHAR uni04C4
ENCODING 1220
SWIDTH 531 0
DWIDTH 9 0
BBX 11 13 0 -5
BITMAP
05E45DE60000
0BF5FEEE0000
0EEBF39E0000
1FCFD0660000
2FFFC0000000
3FFFE1014D10
2FF8FDDDFB00
0CB07EFE6000
00008FF50000
000ADAF10000
005F2CB00000
008FDF400000
002DD6000000
ENDCHAR
STARTCHAR uni04C5
ENCODING 1221
SWIDTH 861 0
DWIDTH 14 0
BBX 16 18 0 -3
BITMAP
000000001BE40000
000000006FF60000
00000000AFF60000
00000000EFF50000
00000004FFF40000
00000009FFF40000
0000000DEDF30000
0000003FBDF30000
0000009F6EF30000
000001EF1DF40000
000007FA0CF60000
9B001EF30AF8003A
CF30BFA006FD02D9
6FEDFD1001EFDEB1
07DEB200003DFC10
00000000001DE200
00000000009F7000
0000000000DB0000
ENDCHAR
STARTCHAR uni04C6
ENCODING 1222
SWIDTH 549 0
DWIDTH 9 0
BBX 11 11 0 -3
BITMAP
00001DE30000
00007FF50000
0000DFF50000
0104FEF40000
9E0BF9F40570
EE4FA8F63E80
DFFE26FFFD10
5ED301DFD200
000000BF3000
000006F90000
000008C10000
ENDCHAR
STARTCHAR uni04C7
ENCODING 1223
SWIDTH 907 0
DWIDTH 15 0
BBX 18 21 -1 -6
BITMAP
0029EE5000001BE800
03EEDFE10000CFEF10
0DC21FF30006F93F30
3E200EF4000DF24F10
02000FF3003FC09D00
00001FF2007F87F600
00003FF000AFFFA000
003BDFFCCCFFE70000
005FFFFECAFF300000
0000CF7001FF200000
0000FF4001FF300000
0003FF1000EF500011
0006FD0000BFE754D7
0009F900004FFFFFD2
0007E3000004DFF910
00000000001BFFC000
0000000002DFAFA000
000000000BF66F6000
000000000EF3CF2000
000000000DFFF80000
0000000003AB700000
ENDCHAR
STARTCHAR uni04C8
ENCODING 1224
SWIDTH 515 0
DWIDTH 8 0
BBX 10 13 0 -5
BITMAP
05E406E300
0BF20BF100
0EE00ED000
1FFFFFA000
2FEBDF7000
3FA06F807C
2FA04FFDF7
0C700CFD40
0001BFF100
001DBCC000
009D2F7000
00CFEE1000
005EC30000
ENDCHAR
STARTCHAR uni04C9
ENCODING 1225
SWIDTH 873 0
DWIDTH 14 0
BBX 17 19 -1 -4
BITMAP
0029EE5000001BE800
03EEDFE10000CFEF10
0DC21FF30006F93F30
3E200EF4000DF24F10
02000FF3003FC09D00
00001FF2007F87F700
00003FF000AFFFA000
003BDFFCCCFFE70000
005FFFFECAFF300000
0000CF7001FF200000
0000FF4000FF300000
0003FF1000EF5002D0
0006FD0000AFC35DC0
0009F900003FFFFE20
0007E3000005DFF300
000000000000AF6000
000000000005FC0000
00000000000CF30000
000000000004500000
ENDCHAR
STARTCHAR uni04CA
ENCODING 1226
SWIDTH 475 0
DWIDTH 8 0
BBX 10 11 0 -3
BITMAP
05E406E300
0BF20BF100
0EE00ED000
1FFFFFA000
2FEBCF8047
3FA06F73E8
2FA05FEFC1
0C701DFD20
00000CF300
00007F8000
00009B0000
ENDCHAR
STARTCHAR uni04CB
ENCODING 1227
SWIDTH 773 0
DWIDTH 12 0
BBX 11 21 1 -6
BITMAP
04E800002E90
08FC00006FC0
09FC00008FB0
0AFA00009F90
0CF80000DF70
0EF50002FF60
2FF30008FF40
3FF2003FFF20
1FF936EDEF00
0BFFFFF5FE00
019EEB34FC00
00000006FA00
00000008F900
000000AEF800
000007FFE400
0002CFFB0000
002EE6F80000
00BF57F50000
00FF2DE10000
00DFFF700000
003AB6000000
ENDCHAR
STARTCHAR uni04CC
ENCODING 1228
SWIDTH 555 0
DWIDTH 9 0
BBX 12 12 -1 -2
BITMAP
000036000000
0001EF600000
0004FEFCDE10
0009F5EFFC00
001EB05EB100
007F56FB0000
03FB1EE1002A
0DD24FC005EC
1D302FFDEFE3
000006DFFE20
00000000CC00
00000000A700
ENDCHAR
STARTCHAR uni04CD
ENCODING 1229
SWIDTH 1133 0
DWIDTH 18 0
BBX 21 18 0 -3
BITMAP
0000000AE80003EC100000
0000002FFC000BFF200000
0000005FFB002FFF100000
0000008FFB008FFF000000
000000AFFB00DEFE000000
000000DEFB04FBFD000000
000001FCFC09F8FC000000
000005F9FC0DE5FC000000
000008F6ED3FA5FC000000
00000CF2DE7F55FC000000
00001FD0CFBF14FD000000
78006F80AFFB02FF000910
CF21DF208FF600EF408E10
8FEDF8005FF1008FEDF400
19EE80001DA0001AFF4000
0000000000000009F70000
000000000000005FC00000
000000000000008D200000
ENDCHAR
STARTCHAR uni04CE
ENCODING 1230
SWIDTH 734 0
DWIDTH 12 0
BBX 14 11 0 -3
BITMAP
00006E704EA000
0000DF91EFC000
0003FF97FEC000
0208FCADBEB000
AF0DCBEF5FB029
EE4F7AFE1FC1CA
DFFE18F90EFEE2
5ED404E308FE30
0000000009F600
000000003FB000
000000006D2000
ENDCHAR
STARTCHAR uni04CF
ENCODING 1231
SWIDTH 222 0
DWIDTH 4 0
BBX 5 14 0 0
BITMAP
001720
009F70
00CF40
00FF10
03FE00
05FB00
08F800
0AF600
0DF300
0FF100
2FE000
4FC000
6FA000
5F6000
ENDCHAR
STARTCHAR uni04D0
ENCODING 1232
SWIDTH 786 0
DWIDTH 13 0
BBX 15 19 0 0
BITMAP
0000000000016000
0000000CB01AF000
0000000DFEEF9000
00000003CFD80000
0000006ADFED9200
00003DFFFFFFF500
0004EFC510146000
002FFA0006E80000
00BFB0000AF90000
04FF30000DF60000
09FC00001FF30000
0DF800005FF00000
0FF500008FD00000
1FF40000DFB00000
1FF50003FF900000
0EF8000BFF900670
09FE318FDFC15F80
02EFFFF95FFFFC10
003BED8008EE9100
ENDCHAR
STARTCHAR uni04D1
ENCODING 1233
SWIDTH 470 0
DWIDTH 8 0
BBX 10 13 0 0
BITMAP
0053004C00
01FB01CB00
00DFDEF300
002CFC4000
0000000000
002AE73000
02DFEFE000
0BF92FC000
2FE15F9000
5FA08F7055
6FA1DF64F7
3FFEEFEFB1
08EC28EA10
ENDCHAR
STARTCHAR uni04D2
ENCODING 1234
SWIDTH 786 0
DWIDTH 13 0
BBX 15 18 0 0
BITMAP
00000008B14C4000
0000001FF4BF9000
0000000CD17E4000
0000006ADFED9200
00003DFFFFFFF500
0004EFC510146000
002FFA0006E80000
00BFB0000AF90000
04FF30000DF60000
09FC00001FF30000
0DF800005FF00000
0FF500008FD00000
1FF40000DFB00000
1FF50003FF900000
0EF8000BFF900670
09FE318FDFC15F80
02EFFFF95FFFFC10
003BED8008EE9100
ENDCHAR
STARTCHAR uni04D3
ENCODING 1235
SWIDTH 470 0
DWIDTH 8 0
BBX 10 12 0 0
BITMAP
004C41B800
00AF95FE00
007E43E900
0000000000
002AE73000
02DFEFE000
0BF92FC000
2FE15F9000
5FA08F7055
6FA1DF64F7
3FFEEFEFB1
08EC28EA10
ENDCHAR
STARTCHAR uni04D4
ENCODING 1236
SWIDTH 1015 0
DWIDTH 16 0
BBX 19 15 0 0
BITMAP
0000018DF52CFFFFE200
00005EFFF6BFEDDDB100
0005FFD621FF20000000
003FFB1004FE00000000
00BFC10008FC00000000
04FF40000BF900000000
09FC00000FF700000000
0DF800004FFFFFFE1000
0FF500008FFDDDDB0000
1FF40000CFD000000000
1FF50002FFD000000000
0EF70009FFE100000000
09FD205FAEFA10028E30
02EFFEFD16FFFDEFFC00
002AEEA2004BEFEA5000
ENDCHAR
STARTCHAR uni04D5
ENCODING 1237
SWIDTH 653 0
DWIDTH 10 0
BBX 13 8 0 0
BITMAP
0029DE6DE90000
02EFFEFFFF4000
0CF91DF26F4000
3FD03FB2CD1000
5F907FEFC30750
5FA0CFF502AF60
2FFEFBFFDFF900
06ED519EEC5000
ENDCHAR
STARTCHAR uni04D6
ENCODING 1238
SWIDTH 686 0
DWIDTH 11 0
BBX 13 19 0 0
BITMAP
00000000016000
00000CB01BF000
00000EFEEF8000
000004CFD70000
00005BEFD91000
000AFFEDFFC000
007FF6002EF400
00DF90000BF600
00EF70000CF300
00AFD200057000
001AFFE7000000
006DFFF7000000
08FE7200000000
3FF40000000000
6FE00000000000
7FF10000000020
2FFB2000038DE0
06FFFEDDFFFF80
0029CEFEDB7300
ENDCHAR
STARTCHAR uni04D7
ENCODING 1239
SWIDTH 393 0
DWIDTH 6 0
BBX 9 13 0 0
BITMAP
035000C300
0BF208F100
08FEDF8000
00AFD70000
0000000000
007DE70000
09FEFF1000
2FD19F2000
6F83EC0000
6FEFB20930
4FE303BF30
0DFFDFF700
02AEEB4000
ENDCHAR
STARTCHAR uni04D8
ENCODING 1240
SWIDTH 792 0
DWIDTH 13 0
BBX 12 15 1 0
BITMAP
0017CEEC6000
02DFFDEFFB00
0BF92006FF70
0B6000008FE0
000000003FF3
000000000FF5
000000000FF5
7DDDDDDDDFF4
FFFFFFFFFFF2
FF5000006FE0
EF600000BF90
AFB00005FF20
4FF7004EF800
08FFEDFF9000
005CEEB50000
ENDCHAR
STARTCHAR uni04D9
ENCODING 1241
SWIDTH 455 0
DWIDTH 7 0
BBX 10 8 0 0
BITMAP
06DFD80000
0DECFF8000
00003FE152
3EFFFFFFF6
7FCCCFFCA1
9F204FC000
6FECFF5000
08DEC50000
ENDCHAR
STARTCHAR uni04DA
ENCODING 1242
SWIDTH 792 0
DWIDTH 13 0
BBX 12 18 1 0
BITMAP
0001B808B100
0006FE1FF400
0003E90CD100
0017CEEC6000
02DFFDEFFB00
0BF92006FF70
0B6000008FE0
000000003FF3
000000000FF5
000000000FF5
7DDDDDDDDFF4
FFFFFFFFFFF2
FF5000006FE0
EF600000BF90
AFB00005FF20
4FF7004EF800
08FFEDFF9000
005CEEB50000
ENDCHAR
STARTCHAR uni04DB
ENCODING 1243
SWIDTH 455 0
DWIDTH 7 0
BBX 10 12 0 0
BITMAP
02B709B100
06FD1FF300
04E80DC000
0000000000
06DFD80000
0DECFF8000
00003FE152
3EFFFFFFF6
7FCCCFFCA1
9F204FC000
6FECFF5000
08DEC50000
ENDCHAR
STARTCHAR uni04DC
ENCODING 1244
SWIDTH 1234 0
DWIDTH 20 0
BBX 22 18 0 0
BITMAP
0000000004C51B90000000
000000000AFA5FF0000000
0000000007E52EA0000000
0008DE80001DB0002CFD40
007FDFF6005FE000DFDFD0
005505FD006FD006F90880
000000DF307FB00CF30000
0000008F709F904FD00000
0000005FA0BF71DF600000
0000000DF3CF8CFB000000
00000003EFFFFE80000000
0000004DFEFFEF80000000
000003FF75FD1EF5000000
00000CF907FB07FC000000
03005FE109F902FF400081
7F50CF600BF700AFD108F2
6FFDFB000DF5002EFEDF70
08EEA1000BE20003CFD500
ENDCHAR
STARTCHAR uni04DD
ENCODING 1245
SWIDTH 717 0
DWIDTH 11 0
BBX 14 12 0 0
BITMAP
00004C41B80000
0000AF95FE0000
00007E43E90000
00000000000000
03DE43E54DE700
09FEE8F5EEEF00
0694FEF9F49F00
0003FFDED05600
3D35FCFFC00076
AF3AEAFDF205F6
AFEF6AF4FEDFB0
3DE808A05DE900
ENDCHAR
STARTCHAR uni04DE
ENCODING 1246
SWIDTH 725 0
DWIDTH 12 0
BBX 11 18 0 0
BITMAP
00002B809B10
00006FE1FF40
00003E90CD10
00017CEEB300
001DFFCEFE10
008FC102EF50
00CF3000BF60
00CF2000CF40
00490002FE00
0000001CF500
00007EFFF800
00009B84CF90
012000005FF0
0DF100005FF0
1FF20000BFC0
0EF80018FF50
06FFDCEFF700
004BEFD93000
ENDCHAR
STARTCHAR uni04DF
ENCODING 1247
SWIDTH 435 0
DWIDTH 7 0
BBX 10 20 -1 -8
BITMAP
007C23C500
00EF59FA00
00AD26E500
0000000000
002ADE9000
00BFDEF400
005405F500
00000AF200
0005CF6024
01DFB306EA
01EF92BFB2
002BFFE600
0006FF2000
007FEF2000
05F7BF1000
1EA0ED0000
6F25F90000
9E0CF20000
9FEF800000
3DE8000000
ENDCHAR
STARTCHAR uni04E0
ENCODING 1248
SWIDTH 744 0
DWIDTH 12 0
BBX 13 15 0 0
BITMAP
00039DEEDB8400
004FFDCDFFFF30
00BF70001FF910
00DF20006FE000
00AF4000DF7000
00281007FE1000
0000003FF40000
00008EFFF90000
00009B83CF9000
012000005FF000
0DF100005FF000
1FF20000BFC000
0EF80018FF5000
06FFDCEFF70000
004BEFD9300000
ENDCHAR
STARTCHAR uni04E1
ENCODING 1249
SWIDTH 435 0
DWIDTH 7 0
BBX 10 16 -1 -8
BITMAP
01EFFFFF50
01BCCFFF50
0001AFD500
001CF80000
009F800078
01FE002BF8
00CFD6EF70
0007FFC200
0009FF1000
00AFEF2000
07F6BF1000
1E90ED0000
7F25F80000
9E0CF20000
9FEF700000
3DE7000000
ENDCHAR
STARTCHAR uni04E2
ENCODING 1250
SWIDTH 890 0
DWIDTH 14 0
BBX 17 17 0 0
BITMAP
0000009DDDC1000000
000000CFFFE1000000
018DE8000009E20000
1CFEFF20000EF50000
9F50FF50001FF40000
E600FF40003FF20000
2002FF30005FF00000
0005FF00008FD00000
0008FC0000CFA00000
000BF90001FF800000
000EF60006FF600000
002FF3000CFF400000
004FF0004DEF300000
006FE001D8FF200B30
005FF54CE2FF83BF20
001FFFFF40CFFFF700
0005DFC3003CED5000
ENDCHAR
STARTCHAR uni04E3
ENCODING 1251
SWIDTH 462 0
DWIDTH 7 0
BBX 10 11 0 0
BITMAP
008DDDC200
00AFFFE200
0000000000
04E508E000
0AF40ED000
0EF14FA000
1FD09F7000
2FB1EF4075
3FDCFF36F5
1FFF9FEFA0
08E62DE700
ENDCHAR
STARTCHAR uni04E4
ENCODING 1252
SWIDTH 890 0
DWIDTH 14 0
BBX 17 18 0 0
BITMAP
0000009B15C4000000
000001FF4BF9000000
000000CD18E4000000
018DE8000009E20000
1CFEFF20000EF50000
9F50FF50001FF40000
E600FF40003FF20000
2002FF30005FF00000
0005FF00008FD00000
0008FC0000CFA00000
000BF90001FF800000
000EF60006FF600000
002FF3000CFF400000
004FF0004DEF300000
006FE001D8FF200B30
005FF54CE2FF83BF20
001FFFFF40CFFFF700
0005DFC3003CED5000
ENDCHAR
STARTCHAR uni04E5
ENCODING 1253
SWIDTH 462 0
DWIDTH 7 0
BBX 10 12 0 0
BITMAP
007C23C500
00EF59FA00
00AD26E500
0000000000
04E508E000
0AF40ED000
0EF14FA000
1FD09F7000
2FB1EF4075
3FDCFF36F5
1FFF9FEFA0
08E62DE700
ENDCHAR
STARTCHAR uni04E6
ENCODING 1254
SWIDTH 816 0
DWIDTH 13 0
BBX 12 18 1 0
BITMAP
00006C32C700
0000CF87FD00
00009E34E700
00018DFDA200
002EFFDFFE30
02EFA101CFD1
0AFB00002FF5
2FF300000CF9
7FC0000009FB
BF90000009FB
DF7000000AFA
EF6000000CF8
EF6000001FF4
CF8000006FE0
8FD00001DF70
2FF9002CFC00
06FFEEFFC100
004BEFC70000
ENDCHAR
STARTCHAR uni04E7
ENCODING 1255
SWIDTH 451 0
DWIDTH 7 0
BBX 10 12 0 0
BITMAP
02B709B000
06FD2FF300
04E80DC000
0000000000
008EE80000
09FEFF6000
2FE1EFC141
6F90AFFFF5
7F801FEC91
5FC05F8000
1DFEFE2000
03CEC30000
ENDCHAR
STARTCHAR uni04E8
ENCODING 1256
SWIDTH 816 0
DWIDTH 13 0
BBX 12 15 1 0
BITMAP
00018DFDA200
002EFECEFE30
02EFA101CFD1
0AFD00003FF5
2FF500000CF9
7FE000000AFB
BFA0000009FB
DFFFFFFFFFFA
EFDCCCCCCEF8
EF6000000EF4
CF8000004FE0
8FD00000DF70
2FF8001AFC00
06FFECFFC100
004BEFC70000
ENDCHAR
STARTCHAR uni04E9
ENCODING 1257
SWIDTH 451 0
DWIDTH 7 0
BBX 10 8 0 0
BITMAP
008EE80000
09FEEF7000
2FD12FC351
6FFFFFFFF5
7FECCFEB81
5FC05F8000
1DFDFE2000
03CEC30000
ENDCHAR
STARTCHAR uni04EA
ENCODING 1258
SWIDTH 816 0
DWIDTH 13 0
BBX 12 18 1 0
BITMAP
00006C32C700
0000CF87FD00
00009E34E700
00018DFDA200
002EFECEFE30
02EFA101CFD1
0AFD00003FF5
2FF500000CF9
7FE000000AFB
BFA0000009FB
DFFFFFFFFFFA
EFDCCCCCCEF8
EF6000000EF4
CF8000004FE0
8FD00000DF70
2FF8001AFC00
06FFECFFC100
004BEFC70000
ENDCHAR
STARTCHAR uni04EB
ENCODING 1259
SWIDTH 451 0
DWIDTH 7 0
BBX 10 12 0 0
BITMAP
02B709B000
07FC2FF200
04E71DC000
0000000000
008EE80000
09FEEF7000
2FD12FC351
6FFFFFFFF5
7FECCFEB81
5FC05F8000
1DFDFE2000
03CEC30000
ENDCHAR
STARTCHAR uni04EC
ENCODING 1260
SWIDTH 755 0
DWIDTH 12 0
BBX 12 18 0 0
BITMAP
00002B709B10
00007FD2FF30
00004E81DC10
0003ADFD9200
008FFDCFFE30
04FD4002DFD0
05C100003FF5
000000000DF9
000000000AFB
0000000009FB
0007FFFFFFFA
0006CCCCCEF9
000000000EF5
1B9000003FF1
4FD00000CF90
3FE2001AFD10
0CFFCCFFD200
018DEEC71000
ENDCHAR
STARTCHAR uni04ED
ENCODING 1261
SWIDTH 466 0
DWIDTH 7 0
BBX 10 12 0 0
BITMAP
00AA06C300
02FF2DF700
01DB09E300
0000000000
04CEEA1000
0AECEFB000
00001EF243
000EFFFFF8
2C2BCEFCA3
6F502EE100
3FFCEF8000
06DED70000
ENDCHAR
STARTCHAR uni04EE
ENCODING 1262
SWIDTH 824 0
DWIDTH 13 0
BBX 16 21 0 -4
BITMAP
000000BDDDA00000
000001EFFFC00000
019EE700000AE200
1DFDFF20000FF400
6E31FF30003FF200
1102FF20007FF000
0005FE0000CFD000
0009FB0004FFA000
000BF8001DFF8000
000AF901BEBF5000
0006FFCEE4DF3000
00009EEA30FF68A1
0000000004FFFFF2
00000006DFFEA620
000003DFFFFA0000
00003EFB48F70000
0000CF700BF30000
0002FD002FC00000
0002FD13DF500000
0000CFFFF8000000
000029BA40000000
ENDCHAR
STARTCHAR uni04EF
ENCODING 1263
SWIDTH 479 0
DWIDTH 8 0
BBX 10 19 0 -8
BITMAP
008DDDC200
00AFFFE200
0000000000
04E508E000
0AF40EE000
0EF14FB000
1FD09F9000
2FB1EF7194
3FDCFF7DF4
1FFFBFFE40
08E6CFB100
0009FD0000
00AFF90000
08E8F60000
4F58F20000
CB0DD00000
F86F700000
FFFD100000
6EC3000000
ENDCHAR
STARTCHAR uni04F0
ENCODING 1264
SWIDTH 824 0
DWIDTH 13 0
BBX 16 22 0 -4
BITMAP
000000AA07C20000
000004FF1EF60000
000002EB0AD20000
019EE700000AE200
1DFDFF20000FF400
6E31FF30003FF200
1102FF20007FF000
0005FE0000CFD000
0009FB0004FFA000
000BF8001DFF8000
000AF901BEBF5000
0006FFCEE4DF3000
00009EEA30FF68A1
0000000004FFFFF2
00000006DFFEA620
000003DFFFFA0000
00003EFB48F70000
0000CF700BF30000
0002FD002FC00000
0002FD13DF500000
0000CFFFF8000000
000029BA40000000
ENDCHAR
STARTCHAR uni04F1
ENCODING 1265
SWIDTH 479 0
DWIDTH 8 0
BBX 10 20 0 -8
BITMAP
007C23C500
00EF59FA00
00AD26E500
0000000000
04E508E000
0AF40EE000
0EF14FB000
1FD09F9000
2FB1EF7194
3FDCFF7DF4
1FFFBFFE40
08E6CFB100
0009FD0000
00AFF90000
08E8F60000
4F58F20000
CB0DD00000
F86F700000
FFFD100000
6EC3000000
ENDCHAR
STARTCHAR uni04F2
ENCODING 1266
SWIDTH 824 0
DWIDTH 13 0
BBX 16 23 0 -4
BITMAP
0000000BA0C80000
0000002FC4FA0000
0000006F48F30000
0000008A09800000
019EE700000AE200
1DFDFF20000FF400
6E31FF30003FF200
1102FF20007FF000
0005FE0000CFD000
0009FB0004FFA000
000BF8001DFF8000
000AF901BEBF5000
0006FFCEE4DF3000
00009EEA30FF68A1
0000000004FFFFF2
00000006DFFEA620
000003DFFFFA0000
00003EFB48F70000
0000CF700BF30000
0002FD002FC00000
0002FD13DF500000
0000CFFFF8000000
000029BA40000000
ENDCHAR
STARTCHAR uni04F3
ENCODING 1267
SWIDTH 479 0
DWIDTH 8 0
BBX 10 22 0 -8
BITMAP
0002E73E60
0007F98F70
000BF2DE10
001F82F600
003D14C000
0000000000
04E508E000
0AF40EE000
0EF14FB000
1FD09F9000
2FB1EF7194
3FDCFF7DF4
1FFFBFFE40
08E6CFB100
0009FD0000
00AFF90000
08E8F60000
4F58F20000
CB0DD00000
F86F700000
FFFD100000
6EC3000000
ENDCHAR
STARTCHAR uni04F4
ENCODING 1268
SWIDTH 773 0
DWIDTH 12 0
BBX 11 18 1 0
BITMAP
0001B809B100
0006FE1FF400
0003E90CD100
04E800002E90
08FC00006FC0
09FC00008FB0
0AFA00009F90
0CF80000DF70
0EF50002FF60
2FF30008FF40
3FF2003FFF20
1FF936EDEF00
0BFFFFF5FE00
019EEB34FC00
00000006FA00
00000009F900
0000000AF800
00000007E400
ENDCHAR
STARTCHAR uni04F5
ENCODING 1269
SWIDTH 555 0
DWIDTH 9 0
BBX 12 12 -1 0
BITMAP
000005C42B70
00000BF86FD0
00003EE44E80
0001EF600000
0004FEFCDE10
0009F5EFFC00
001EB05EB100
007F56FB0000
03FB1EE1002A
0DD24FC005EC
1D302FFDEFD2
000006DFD810
ENDCHAR
STARTCHAR uni04F6
ENCODING 1270
SWIDTH 600 0
DWIDTH 10 0
BBX 14 21 0 -5
BITMAP
00000000000110
0028BDEFFFFFFA
07FFFFFDCCCBA4
2FE62FF4000000
6F803FF1000000
5FA05FE0000000
1C908FB0000000
0000BF90000000
0000DF60000000
0000FF40000000
0002FF20000000
0005FF00000000
0007FD00000000
0009FD70000000
0009FFF2000000
0006FFF0000000
008FAED0000000
05FB2FA0000000
0BF58F50000000
0AFEFD00000000
03CEB200000000
ENDCHAR
STARTCHAR uni04F7
ENCODING 1271
SWIDTH 441 0
DWIDTH 7 0
BBX 9 13 0 -5
BITMAP
07DFD50000
1FEDFD0000
0303FC0000
007ED20000
0BF7000000
5FA0021A90
5FFCDFDF50
0AEEFFC200
003DFD0000
03E8E90000
0CA4F50000
0EEEC00000
07EB200000
ENDCHAR
STARTCHAR uni04F8
ENCODING 1272
SWIDTH 1078 0
DWIDTH 17 0
BBX 17 18 0 0
BITMAP
00000001B809B10000
00000006FE1FF40000
00000003E90CD10000
0009E2000000005E80
000FF4000000009FB0
003FF100000000AF90
006FC000000000CF70
009F8000000000EF50
00CF99BCA50001FF20
03EFFFFFFF9003FF00
6FFF6202AFF206FD00
5CFE00001FF508FB00
04FD00000FF50AF900
04FD00002FF30CF700
02FF00008FD00FF500
00DF6005FF502FF300
006FFDDFF8003FF100
0006DFDA40001EC000
ENDCHAR
STARTCHAR uni04F9
ENCODING 1273
SWIDTH 702 0
DWIDTH 11 0
BBX 14 12 0 0
BITMAP
00007C23C50000
0000EF59FA0000
0000BD16E50000
00000000000000
05E700002E8000
0BF500009F8000
0EF7DE62EF6000
1FFFDFECFF3000
2FF30BFFFF10A3
1FE11DF9EF19F2
0BFEEFB0BFEF70
01AED8003DE600
ENDCHAR
STARTCHAR uni04FA
ENCODING 1274
SWIDTH 635 0
DWIDTH 10 0
BBX 15 22 -1 -6
BITMAP
0000000000001100
00027BDEFFFFFFA0
005EFFFFDCCCBA40
01EF61EF40000000
05F902FF20000000
06F805FF00000000
04FC07FC00000000
006409FA00000000
0006FFFFF8000000
0005CFFDB5000000
00001FF400000000
00002FF200000000
00004FF000000000
00007FD000000000
00009FB000000000
0000BF8000000000
0000EF5000000000
0003FF1000000000
1107FC0000000000
DD0DF60000000000
EFEFC00000000000
5DEA200000000000
ENDCHAR
STARTCHAR uni04FB
ENCODING 1275
SWIDTH 441 0
DWIDTH 7 0
BBX 9 13 0 -5
BITMAP
07DFD50000
1FEDFD0000
0303FC0000
788EE30000
3FFFA00000
5FB3421A90
5FFCDFEF50
0AEEFFC200
003DFD0000
03E8E90000
0CA4F50000
0EEEC00000
07EB200000
ENDCHAR
STARTCHAR uni04FC
ENCODING 1276
SWIDTH 716 0
DWIDTH 11 0
BBX 15 21 -1 -6
BITMAP
003BED50001BE300
04FEEFF200AFD100
0DA11DF907FF3000
040006FE4FF60000
000002FFEF900000
000000DFFB000000
000000AFE1000000
000004FFE0000000
00002EFFF3000000
0000CFADF6000000
0009FD19FA000000
006FF406FE000110
03FF8001FF955E60
1DFC00009FFFFD20
2ED200001DFF8000
00000001AFFC0000
0000002DFAF90000
000000BF67F60000
000000FF2DE10000
000000EFFF700000
0000003AB6000000
ENDCHAR
STARTCHAR uni04FD
ENCODING 1277
SWIDTH 601 0
DWIDTH 10 0
BBX 12 13 0 -5
BITMAP
03DE73CE6000
09FEFEEFA000
07B4FF3B5000
0003FE000000
3B25FD000000
AF39FF1003C3
AFDFFFDCDFD1
3DE95EFFF800
000005EF7000
00008E9F3000
0003F4AD0000
0006FDF60000
0001CE700000
ENDCHAR
STARTCHAR uni04FE
ENCODING 1278
SWIDTH 712 0
DWIDTH 11 0
BBX 15 15 -1 0
BITMAP
003BED40000AE300
03EEEFE2008FF200
0CC11EF704FF6000
092008FC1DFB0000
000003FFBFE10000
000000FFFF500000
000000CFF9000000
0006FFFFFFF50000
0005CDFFFCB20000
00002EFFF2000000
0002DF8CF7000000
001DFA08FB000320
01CFC103FF304E60
0BFD2000BFFDFC10
2ED300001AEE8000
ENDCHAR
STARTCHAR uni04FF
ENCODING 1279
SWIDTH 529 0
DWIDTH 8 0
BBX 11 8 0 0
BITMAP
03DE73CE6000
09FEFEEFA000
07B4FF3B5000
002EFFE20000
3D4CFFA10760
AF3AFE106F60
AFEFEFEDFA00
3DE82BFD7000
ENDCHAR
STARTCHAR uni0510
ENCODING 1296
SWIDTH 706 0
DWIDTH 11 0
BBX 11 15 0 0
BITMAP
00007DFE9200
000BFECEFE20
004FE201CF80
008F90006FA0
008F80006F80
006FB0002710
001DF4000000
005DFFEB0000
07FD48BA0000
1EF500000210
3FF300003FB0
2FF600007FB0
0CFE3003EF60
03EFFDDFFB00
0029DFEB6000
ENDCHAR
STARTCHAR uni0511
ENCODING 1297
SWIDTH 392 0
DWIDTH 6 0
BBX 9 8 0 0
BITMAP
02BFD50000
0CFDED0000
0DB0130000
07FF500000
3DFC401910
9F7004CF10
7FECEFE500
19EFD92000
ENDCHAR
STARTCHAR uni0512
ENCODING 1298
SWIDTH 884 0
DWIDTH 14 0
BBX 17 21 0 -6
BITMAP
000000001BE4000000
000000006FF6000000
00000000AFF6000000
00000000EFF5000000
00000004FFF4000000
00000009FFF3000000
0000000DEDF3000000
0000003FADF3000000
0000009F6EF4000000
000001EF1DF4000000
000007FA0CF6000000
9A001EF30AF8000000
CF30BFA007FD445E30
7FEDFD1002FFFFFD10
07DEA200005EFF8000
0000000003CFF90000
000000004EEAF60000
00000000EF39F30000
00000003FD3ED00000
00000001FFFF500000
000000005BB5000000
ENDCHAR
STARTCHAR uni0513
ENCODING 1299
SWIDTH 631 0
DWIDTH 10 0
BBX 12 13 0 -5
BITMAP
00001DE30000
00007FF50000
0000DFF40000
0004FEF30000
8E0BFAF30000
EE3FA9F40089
DFEE28FDECF6
5ED403EFFD30
000001AFE000
00002D9FA000
0000A96F5000
0000EEFD0000
00007EB20000
ENDCHAR
STARTCHAR uni051A
ENCODING 1306
SWIDTH 816 0
DWIDTH 13 0
BBX 14 20 1 -5
BITMAP
00018DFEA20000
003EFFDFFE4000
02EFA101BFD100
0BFB00002FF600
3FF200000BF900
8FC000000AFB00
CF80000009FB00
DF7000000AFA00
EF6000000DF700
EF8000003FF300
BFB00000AFC000
6FF40007FF4000
0CFF98CFF70000
01BFFFFE600000
00039FF6000000
00000AFE100000
000002FF7000B1
000000BFE31AD0
0000003EFFFF40
00000003ACA300
ENDCHAR
STARTCHAR uni051B
ENCODING 1307
SWIDTH 500 0
DWIDTH 8 0
BBX 11 16 0 -7
BITMAP
000001730000
002AEEF80000
02DFEFF50000
0BFA1FF10000
2FE14FC00000
5FA08F800000
6FA1EF7EFF10
3FFEFF5FDA00
08EBFE3F1000
0003FC3F1000
0004FA3F0000
0005FA4E0000
0005FA6C0000
0004FCB90000
0001FFF40000
00007E900000
ENDCHAR
STARTCHAR uni051C
ENCODING 1308
SWIDTH 1217 0
DWIDTH 19 0
BBX 21 15 1 0
BITMAP
04E700000BE1001AEC2000
09FA00003FF200AFEFA000
0BF800006FF001F92FE000
0DF700009FE003F61FD000
0EF50000BFC003F72FC000
0FF40000EFC001FC6F9000
1FF30004FFB000AFEF5000
1FF30008FFB0001CFFED80
0FF3000DFFB00007FEEF80
0EF4003FBFB0000EF20000
0DF5009F4FD0007FA00000
0AF903FC0EF102EE200000
06FE6DF40BFA6DF5000000
01EFFF8005FFFF80000000
004DE800008ED500000000
ENDCHAR
STARTCHAR uni051D
ENCODING 1309
SWIDTH 700 0
DWIDTH 11 0
BBX 14 8 0 0
BITMAP
1E900C902DC000
3FB05FB0AFF000
3FB0BFC0CFC141
2FC2FFC0BFFFF4
1FD8FED3FDBB80
0FEDADECF30000
0DFF4BFF800000
06E805EA000000
ENDCHAR
STARTCHAR uni0524
ENCODING 1316
SWIDTH 892 0
DWIDTH 14 0
BBX 17 21 0 -6
BITMAP
00159CDEFFEEDBA810
04DFFFFECCCEFFFF40
1EF61CF7000CF72300
5F800FF4000EF50000
5F903FF2001FF30000
1EA05FE0004FF00000
01008FC0007FC00000
0000AFA0009FA00000
0000CF7000CF700000
0000EF5000EF400000
0001FF3001FF200000
0003FF1002FF200100
0005FF0001FFFA6E40
0007FD00007EFFFC10
0004E9000006FF7000
0000000002CFF90000
000000003EFBF70000
00000000DF49F30000
00000002FE2ED00000
00000001EFFF500000
000000004BB5000000
ENDCHAR
STARTCHAR uni0525
ENCODING 1317
SWIDTH 536 0
DWIDTH 9 0
BBX 11 13 0 -5
BITMAP
05E42BE30000
0BF3DFF50000
0EE9DEF30000
1FDF4DF00000
2FFB1FC00000
3FF63FC14E20
2FF11FFDFC10
0CA007FE7000
00008FF60000
0009D9F20000
004F3BC00000
006FDF500000
002DE7000000
ENDCHAR
STARTCHAR uni0526
ENCODING 1318
SWIDTH 818 0
DWIDTH 13 0
BBX 14 21 1 -6
BITMAP
007E3000000000
00DF6000000000
01FF4000000000
04FF2000000000
06FE0000000000
09FB0000000000
0BF90000000000
0EF63AEEB20000
1FF8FECFFB0000
3FFF8106FF0000
5FF80004FF0000
7FF10005FE0000
9FB00007FFA44C
BFA00007FFFEFC
8E600004EEFF80
000000019FF600
0000003EDCF300
000001EE2CE000
000006FA5FA000
000004FFFE2000
0000007BA30000
ENDCHAR
STARTCHAR uni0527
ENCODING 1319
SWIDTH 542 0
DWIDTH 9 0
BBX 11 21 0 -5
BITMAP
0002CE400000
000DEFB00000
005F5BD00000
00BE0BB00000
01FA0E700000
05F75F200000
09F5D9000000
0BFAD1000000
0DFF5BE40000
0FF7CFF60000
1FD7EDF40000
1FDE5CF20000
2FFC0EE00000
2FF71FD13D40
2FF31EFDFC10
1EA006FF8000
00007FF70000
0008E8F40000
003F4AE00000
005FDF700000
001CE8000000
ENDCHAR
STARTCHAR uni0528
ENCODING 1320
SWIDTH 873 0
DWIDTH 14 0
BBX 18 21 -2 -6
BITMAP
00029EE5000001BE80
003EEDFE10000CFEF1
00DC21FF30006F93F3
03E200EF4000DF24F2
002000FF3003FC09E0
000001FF2007F87F80
000003FF000AFFFC10
0003BDFFCCCFFFB100
0005FFFFECAFF50000
00000CF7001FF20000
00000EF5000FF20000
00001FF2000EF4001B
00004FF0000AFA01BE
00007FC00003FFDEF4
0000AF9000005DEB30
0000DF600000000000
0002FF200000000000
1406FC000000000000
BF3CF6000000000000
AFFFC0000000000000
2AC910000000000000
ENDCHAR
STARTCHAR uni0529
ENCODING 1321
SWIDTH 475 0
DWIDTH 8 0
BBX 12 13 -2 -5
BITMAP
0005E406E300
000BF20BF100
000EE00ED000
001FFFFFA000
002FEBCF8047
003FA06F63E8
002FA05FEEC1
001FB01DE910
001FC0000000
001FC0000000
7B2FA0000000
AFEF60000000
3CE900000000
ENDCHAR
STARTCHAR uni052E
ENCODING 1326
SWIDTH 884 0
DWIDTH 14 0
BBX 17 21 0 -6
BITMAP
000000001BE4000000
000000006FF6000000
00000000AFF6000000
00000000EFF5000000
00000004FFF4000000
00000009FFF3000000
0000000DEDF3000000
0000003FADF3000000
0000009F6EF4000000
000001EF1DF4000000
000007FA0CF6000000
9A001EF30AF8000000
CF30BFA007FD445E30
7FEDFD1002FFFFFD10
07DEA200005EFF8000
0000000003CFF90000
000000004EEAF60000
00000000EF39F30000
00000003FD3ED00000
00000001FFFF500000
000000005BB5000000
ENDCHAR
STARTCHAR uni052F
ENCODING 1327
SWIDTH 631 0
DWIDTH 10 0
BBX 12 13 0 -5
BITMAP
00001DE30000
00007FF50000
0000DFF40000
0004FEF30000
8E0BFAF30000
EE3FA9F40089
DFEE28FDECF6
5ED403EFFD30
000001AFE000
00002D9FA000
0000A96F5000
0000EEFD0000
00007EB20000
ENDCHAR
STARTCHAR Wgrave
ENCODING 7808
SWIDTH 1217 0
DWIDTH 19 0
BBX 21 19 1 0
BITMAP
000000CC10000000000000
000000DFD2000000000000
0000002AFE300000000000
000000003C900000000000
04E700000BE1001AEC2000
09FA00003FF200AFEFA000
0BF800006FF001F92FE000
0DF700009FE003F61FD000
0EF50000BFC003F72FC000
0FF40000EFC001FC6F9000
1FF30004FFB000AFEF5000
1FF30008FFB0001CFFED80
0FF3000DFFB00007FEEF80
0EF4003FBFB0000EF20000
0DF5009F4FD0007FA00000
0AF903FC0EF102EE200000
06FE6DF40BFA6DF5000000
01EFFF8005FFFF80000000
004DE800008ED500000000
ENDCHAR
STARTCHAR wgrave
ENCODING 7809
SWIDTH 700 0
DWIDTH 11 0
BBX 14 14 0 0
BITMAP
0009D100000000
000AF700000000
0002ED00000000
00005F50000000
00000880000000
00000000000000
1E900C902DC000
3FB05FB0AFF000
3FB0BFC0CFC141
2FC2FFC0BFFFF4
1FD8FED3FDBB80
0FEDADECF30000
0DFF4BFF800000
06E805EA000000
ENDCHAR
STARTCHAR Wacute
ENCODING 7810
SWIDTH 1217 0
DWIDTH 19 0
BBX 21 19 1 0
BITMAP
0000000000007E40000000
000000000009FF50000000
0000000000AFD500000000
0000000003E70000000000
04E700000BE1001AEC2000
09FA00003FF200AFEFA000
0BF800006FF001F92FE000
0DF700009FE003F61FD000
0EF50000BFC003F72FC000
0FF40000EFC001FC6F9000
1FF30004FFB000AFEF5000
1FF30008FFB0001CFFED80
0FF3000DFFB00007FEEF80
0EF4003FBFB0000EF20000
0DF5009F4FD0007FA00000
0AF903FC0EF102EE200000
06FE6DF40BFA6DF5000000
01EFFF8005FFFF80000000
004DE800008ED500000000
ENDCHAR
STARTCHAR wacute
ENCODING 7811
SWIDTH 700 0
DWIDTH 11 0
BBX 14 14 0 0
BITMAP
0000000BB00000
0000004FD00000
000000BF400000
000002F8000000
000005B0000000
00000000000000
1E900C902DC000
3FB05FB0AFF000
3FB0BFC0CFC141
2FC2FFC0BFFFF4
1FD8FED3FDBB80
0FEDADECF30000
0DFF4BFF800000
06E805EA000000
ENDCHAR
STARTCHAR Wdieresis
ENCODING 7812
SWIDTH 1217 0
DWIDTH 19 0
BBX 21 18 1 0
BITMAP
00000001B908B100000000
00000005FF0FF500000000
00000003E90CD100000000
04E700000BE1001AEC2000
09FA00003FF200AFEFA000
0BF800006FF001F92FE000
0DF700009FE003F61FD000
0EF50000BFC003F72FC000
0FF40000EFC001FC6F9000
1FF30004FFB000AFEF5000
1FF30008FFB0001CFFED80
0FF3000DFFB00007FEEF80
0EF4003FBFB0000EF20000
0DF5009F4FD0007FA00000
0AF903FC0EF102EE200000
06FE6DF40BFA6DF5000000
01EFFF8005FFFF80000000
004DE800008ED500000000
ENDCHAR
STARTCHAR wdieresis
ENCODING 7813
SWIDTH 700 0
DWIDTH 11 0
BBX 14 12 0 0
BITMAP
0003C60AA00000
0008FB3FF10000
0005E61EB00000
00000000000000
1E900C902DC000
3FB05FB0AFF000
3FB0BFC0CFC141
2FC2FFC0BFFFF4
1FD8FED3FDBB80
0FEDADECF30000
0DFF4BFF800000
06E805EA000000
ENDCHAR
STARTCHAR uni1E9E
ENCODING 7838
SWIDTH 843 0
DWIDTH 13 0
BBX 12 16 1 -1
BITMAP
00AE204BEE91
01FF27FEEFF9
04FE5F910AFE
07FBDA0007FD
0AFCE1001DF8
0CFF8004CFB0
0EFF22EFE600
1FFC05FFFD40
3FF80024BFF2
4FF400000EF8
6FF100000BFA
7FE000000EF7
8FB000009FE2
9F90015CFF50
7E400EFFC400
000005630000
ENDCHAR
STARTCHAR uni1EA0
ENCODING 7840
SWIDTH 786 0
DWIDTH 13 0
BBX 15 19 0 -4
BITMAP
0000006ADFED9200
00003DFFFFFFF500
0004EFC510146000
002FFA0006E80000
00BFB0000AF90000
04FF30000DF60000
09FC00001FF30000
0DF800005FF00000
0FF500008FD00000
1FF40000DFB00000
1FF50003FF900000
0EF8000BFF900670
09FE318FDFC15F80
02EFFFF95FFFFC10
003BED8008EE9100
0000000000000000
00002BA100000000
00009FF400000000
00005EB100000000
ENDCHAR
STARTCHAR uni1EA1
ENCODING 7841
SWIDTH 470 0
DWIDTH 8 0
BBX 10 12 0 -4
BITMAP
002AE73000
02DFEFE000
0BF92FC000
2FE15F9000
5FA08F7055
6FA1DF64F7
3FFEEFEFB1
08EC28EA10
0000000000
00AC200000
05FF700000
02DD200000
ENDCHAR
STARTCHAR uni1EA2
ENCODING 7842
SWIDTH 786 0
DWIDTH 13 0
BBX 15 19 0 0
BITMAP
000000008EE60000
000000009DEE0000
000000001CED0000
000000002ED40000
0000006ADFED9200
00003DFFFFFFF500
0004EFC510146000
002FFA0006E80000
00BFB0000AF90000
04FF30000DF60000
09FC00001FF30000
0DF800005FF00000
0FF500008FD00000
1FF40000DFB00000
1FF50003FF900000
0EF8000BFF900670
09FE318FDFC15F80
02EFFFF95FFFFC10
003BED8008EE9100
ENDCHAR
STARTCHAR uni1EA3
ENCODING 7843
SWIDTH 470 0
DWIDTH 8 0
BBX 10 14 0 0
BITMAP
0003EE8000
0005DEF300
000004F400
00009FE100
0000CE5000
0000000000
002AE73000
02DFEFE000
0BF92FC000
2FE15F9000
5FA08F7055
6FA1DF64F7
3FFEEFEFB1
08EC28EA10
ENDCHAR
STARTCHAR uni1EA4
ENCODING 7844
SWIDTH 786 0
DWIDTH 13 0
BBX 15 24 0 0
BITMAP
0000000000008E30
000000000009FF40
0000000000BFD400
0000000004D60000
0000000005600000
000000008FF70000
00000003FBED0000
0000000CF39F3000
0000001E804E3000
0000006ADFED9200
00003DFFFFFFF500
0004EFC510146000
002FFA0006E80000
00BFB0000AF90000
04FF30000DF60000
09FC00001FF30000
0DF800005FF00000
0FF500008FD00000
1FF40000DFB00000
1FF50003FF900000
0EF8000BFF900670
09FE318FDFC15F80
02EFFFF95FFFFC10
003BED8008EE9100
ENDCHAR
STARTCHAR uni1EA5
ENCODING 7845
SWIDTH 470 0
DWIDTH 8 0
BBX 10 15 0 0
BITMAP
00000001AB
0000000BF9
0000372620
0005FED000
003EA6F600
009D11D700
0000000000
002AE73000
02DFEFE000
0BF92FC000
2FE15F9000
5FA08F7055
6FA1DF64F7
3FFEEFEFB1
08EC28EA10
ENDCHAR
STARTCHAR uni1EA6
ENCODING 7846
SWIDTH 786 0
DWIDTH 13 0
BBX 15 24 0 0
BITMAP
000001DB10000000
000001EFC2000000
0000002BFD200000
000000004C800000
0000000005600000
000000008FF70000
00000003FBED0000
0000000CF39F3000
0000001E804E3000
0000006ADFED9200
00003DFFFFFFF500
0004EFC510146000
002FFA0006E80000
00BFB0000AF90000
04FF30000DF60000
09FC00001FF30000
0DF800005FF00000
0FF500008FD00000
1FF40000DFB00000
1FF50003FF900000
0EF8000BFF900670
09FE318FDFC15F80
02EFFFF95FFFFC10
003BED8008EE9100
ENDCHAR
STARTCHAR uni1EA7
ENCODING 7847
SWIDTH 470 0
DWIDTH 8 0
BBX 10 15 0 0
BITMAP
1D80000000
0CF7000000
0035372000
0005FED000
003EA6F600
009D11D700
0000000000
002AE73000
02DFEFE000
0BF92FC000
2FE15F9000
5FA08F7055
6FA1DF64F7
3FFEEFEFB1
08EC28EA10
ENDCHAR
STARTCHAR uni1EA8
ENCODING 7848
SWIDTH 786 0
DWIDTH 13 0
BBX 15 24 0 0
BITMAP
000000001CFC2000
000000001CDF9000
0000000005DF7000
0000000007EA1000
0000000005600000
000000008FF70000
00000003FBED0000
0000000CF39F3000
0000001E804E3000
0000006ADFED9200
00003DFFFFFFF500
0004EFC510146000
002FFA0006E80000
00BFB0000AF90000
04FF30000DF60000
09FC00001FF30000
0DF800005FF00000
0FF500008FD00000
1FF40000DFB00000
1FF50003FF900000
0EF8000BFF900670
09FE318FDFC15F80
02EFFFF95FFFFC10
003BED8008EE9100
ENDCHAR
STARTCHAR uni1EA9
ENCODING 7849
SWIDTH 470 0
DWIDTH 8 0
BBX 11 15 0 0
BITMAP
0000001EEA00
000000006F10
0001AE88E800
000BEAF20000
008F53F80000
004500620000
000000000000
002AE7300000
02DFEFE00000
0BF92FC00000
2FE15F900000
5FA08F705500
6FA1DF64F700
3FFEEFEFB100
08EC28EA1000
ENDCHAR
STARTCHAR uni1EAA
ENCODING 7850
SWIDTH 786 0
DWIDTH 13 0
BBX 15 24 0 0
BITMAP
0000000056000000
00000006FFB18D00
0000000ED8FEFA00
00000006205DC100
0000000005600000
000000008FF70000
00000003FBED0000
0000000CF39F3000
0000001E804E3000
0000006ADFED9200
00003DFFFFFFF500
0004EFC510146000
002FFA0006E80000
00BFB0000AF90000
04FF30000DF60000
09FC00001FF30000
0DF800005FF00000
0FF500008FD00000
1FF40000DFB00000
1FF50003FF900000
0EF8000BFF900670
09FE318FDFC15F80
02EFFFF95FFFFC10
003BED8008EE9100
ENDCHAR
STARTCHAR uni1EAB
ENCODING 7851
SWIDTH 470 0
DWIDTH 8 0
BBX 10 15 0 0
BITMAP
0009E70B60
005F7DEE20
0024256200
0004EFC000
003EC8F500
009D21E700
0000000000
002AE73000
02DFEFE000
0BF92FC000
2FE15F9000
5FA08F7055
6FA1DF64F7
3FFEEFEFB1
08EC28EA10
ENDCHAR
STARTCHAR uni1EAC
ENCODING 7852
SWIDTH 786 0
DWIDTH 13 0
BBX 15 24 0 -4
BITMAP
0000000005600000
000000008FF70000
00000003FBED0000
0000000CF39F3000
0000001E804E3000
0000006ADFED9200
00003DFFFFFFF500
0004EFC510146000
002FFA0006E80000
00BFB0000AF90000
04FF30000DF60000
09FC00001FF30000
0DF800005FF00000
0FF500008FD00000
1FF40000DFB00000
1FF50003FF900000
0EF8000BFF900670
09FE318FDFC15F80
02EFFFF95FFFFC10
003BED8008EE9100
0000000000000000
00002BA100000000
00009FF400000000
00005EB100000000
ENDCHAR
STARTCHAR uni1EAD
ENCODING 7853
SWIDTH 470 0
DWIDTH 8 0
BBX 10 19 0 -4
BITMAP
0000172000
0000BFC000
0005FCF100
000DD5F400
006F63F800
009C01D700
0000000000
002AE73000
02DFEFE000
0BF92FC000
2FE15F9000
5FA08F7055
6FA1DF64F7
3FFEEFEFB1
08EC28EA10
0000000000
00AC200000
05FF700000
02DD200000
ENDCHAR
STARTCHAR uni1EAE
ENCODING 7854
SWIDTH 786 0
DWIDTH 13 0
BBX 15 21 0 0
BITMAP
00000000004E4000
0000000003EE3000
0000002714737000
0000007F913CF100
0000002EFFFF9000
00000003ACB60000
0000006ADFED9200
00003DFFFFFFF500
0004EFC510146000
002FFA0006E80000
00BFB0000AF90000
04FF30000DF60000
09FC00001FF30000
0DF800005FF00000
0FF500008FD00000
1FF40000DFB00000
1FF50003FF900000
0EF8000BFF900670
09FE318FDFC15F80
02EFFFF95FFFFC10
003BED8008EE9100
ENDCHAR
STARTCHAR uni1EAF
ENCODING 7855
SWIDTH 470 0
DWIDTH 8 0
BBX 10 15 0 0
BITMAP
000001C900
00000CF700
0063193620
02FD219F60
00BFFFFD10
0018CC8100
0000000000
002AE73000
02DFEFE000
0BF92FC000
2FE15F9000
5FA08F7055
6FA1DF64F7
3FFEEFEFB1
08EC28EA10
ENDCHAR
STARTCHAR uni1EB0
ENCODING 7856
SWIDTH 786 0
DWIDTH 13 0
BBX 15 21 0 0
BITMAP
00000003E5000000
00000003EF300000
0000002727527000
0000007F913CF100
0000001DFFFF7000
0000000179830000
0000006ADFED9200
00003DFFFFFFF500
0004EFC510146000
002FFA0006E80000
00BFB0000AF90000
04FF30000DF60000
09FC00001FF30000
0DF800005FF00000
0FF500008FD00000
1FF40000DFB00000
1FF50003FF900000
0EF8000BFF900670
09FE318FDFC15F80
02EFFFF95FFFFC10
003BED8008EE9100
ENDCHAR
STARTCHAR uni1EB1
ENCODING 7857
SWIDTH 470 0
DWIDTH 8 0
BBX 10 15 0 0
BITMAP
000D900000
000CF80000
0063580620
01FD219F60
00AFFFFC10
0005996000
0000000000
002AE73000
02DFEFE000
0BF92FC000
2FE15F9000
5FA08F7055
6FA1DF64F7
3FFEEFEFB1
08EC28EA10
ENDCHAR
STARTCHAR uni1EB2
ENCODING 7858
SWIDTH 786 0
DWIDTH 13 0
BBX 15 21 0 0
BITMAP
000000007FD40000
0000000001D80000
000000041EC33000
0000007F701BF100
0000003FFDFFB000
00000005CFE91000
0000006ADFED9200
00003DFFFFFFF500
0004EFC510146000
002FFA0006E80000
00BFB0000AF90000
04FF30000DF60000
09FC00001FF30000
0DF800005FF00000
0FF500008FD00000
1FF40000DFB00000
1FF50003FF900000
0EF8000BFF900670
09FE318FDFC15F80
02EFFFF95FFFFC10
003BED8008EE9100
ENDCHAR
STARTCHAR uni1EB3
ENCODING 7859
SWIDTH 470 0
DWIDTH 8 0
BBX 10 15 0 0
BITMAP
0002EE8000
000008D000
0031AE6310
02FB006F60
00DFEEFE20
002AEEB300
0000000000
002AE73000
02DFEFE000
0BF92FC000
2FE15F9000
5FA08F7055
6FA1DF64F7
3FFEEFEFB1
08EC28EA10
ENDCHAR
STARTCHAR uni1EB4
ENCODING 7860
SWIDTH 786 0
DWIDTH 13 0
BBX 15 22 0 0
BITMAP
0000000064006100
00000007FF84F400
0000000EB8FFC000
0000000610371000
0000005E4007E100
0000004FEACFC000
00000005CFE91000
0000006ADFED9200
00003DFFFFFFF500
0004EFC510146000
002FFA0006E80000
00BFB0000AF90000
04FF30000DF60000
09FC00001FF30000
0DF800005FF00000
0FF500008FD00000
1FF40000DFB00000
1FF50003FF900000
0EF8000BFF900670
09FE318FDFC15F80
02EFFFF95FFFFC10
003BED8008EE9100
ENDCHAR
STARTCHAR uni1EB5
ENCODING 7861
SWIDTH 470 0
DWIDTH 8 0
BBX 10 16 0 0
BITMAP
0003600330
002EFC2E90
009E5DFF20
0034016300
01D8003E50
00DFBBEF30
002BEEB300
0000000000
002AE73000
02DFEFE000
0BF92FC000
2FE15F9000
5FA08F7055
6FA1DF64F7
3FFEEFEFB1
08EC28EA10
ENDCHAR
STARTCHAR uni1EB6
ENCODING 7862
SWIDTH 786 0
DWIDTH 13 0
BBX 15 22 0 -4
BITMAP
0000005E5008E100
0000004FFDEFC000
00000005CFE91000
0000006ADFED9200
00003DFFFFFFF500
0004EFC510146000
002FFA0006E80000
00BFB0000AF90000
04FF30000DF60000
09FC00001FF30000
0DF800005FF00000
0FF500008FD00000
1FF40000DFB00000
1FF50003FF900000
0EF8000BFF900670
09FE318FDFC15F80
02EFFFF95FFFFC10
003BED8008EE9100
0000000000000000
00002BA100000000
00009FF400000000
00005EB100000000
ENDCHAR
STARTCHAR uni1EB7
ENCODING 7863
SWIDTH 470 0
DWIDTH 8 0
BBX 10 17 0 -4
BITMAP
00D7001D50
01FE20AF50
00AFEEFD00
0019EEA100
0000000000
002AE73000
02DFEFE000
0BF92FC000
2FE15F9000
5FA08F7055
6FA1DF64F7
3FFEEFEFB1
08EC28EA10
0000000000
00AC200000
05FF700000
02DD200000
ENDCHAR
STARTCHAR uni1EB8
ENCODING 7864
SWIDTH 686 0
DWIDTH 11 0
BBX 13 19 0 -4
BITMAP
00005BEFD91000
000AFFEDFFC000
007FF6002EF400
00DF90000BF600
00EF70000CF300
00AFD200057000
001AFFE7000000
006DFFF7000000
08FE7200000000
3FF40000000000
6FE00000000000
7FF10000000020
2FFB2000038DE0
06FFFEDDFFFF80
0029CEFEDB7300
00000000000000
00004C90000000
0000CFF1000000
00007E90000000
ENDCHAR
STARTCHAR uni1EB9
ENCODING 7865
SWIDTH 393 0
DWIDTH 6 0
BBX 9 12 0 -4
BITMAP
007DE70000
09FEFF1000
2FD19F2000
6F83EC0000
6FEFB20930
4FE303BF30
0DFFDFF700
02AEEB4000
0000000000
006C600000
00EFC00000
00AE600000
ENDCHAR
STARTCHAR uni1EBA
ENCODING 7866
SWIDTH 686 0
DWIDTH 11 0
BBX 13 19 0 0
BITMAP
0000008EE60000
0000009DEE0000
0000001CED0000
0000002ED40000
00005BEFD91000
000AFFEDFFC000
007FF6002EF400
00DF90000BF600
00EF70000CF300
00AFD200057000
001AFFE7000000
006DFFF7000000
08FE7200000000
3FF40000000000
6FE00000000000
7FF10000000020
2FFB2000038DE0
06FFFEDDFFFF80
0029CEFEDB7300
ENDCHAR
STARTCHAR uni1EBB
ENCODING 7867
SWIDTH 393 0
DWIDTH 6 0
BBX 9 14 0 0
BITMAP
000CEB1000
001CDF8000
00000E9000
0005EF6000
0007F90000
0000000000
007DE70000
09FEFF1000
2FD19F2000
6F83EC0000
6FEFB20930
4FE303BF30
0DFFDFF700
02AEEB4000
ENDCHAR
STARTCHAR uni1EBC
ENCODING 7868
SWIDTH 686 0
DWIDTH 11 0
BBX 13 19 0 0
BITMAP
00000371000000
00002EFE44E300
00009F7EFEE100
00004402BE5000
00005BEFD91000
000AFFEDFFC000
007FF6002EF400
00DF90000BF600
00EF70000CF300
00AFD200057000
001AFFE7000000
006DFFF7000000
08FE7200000000
3FF40000000000
6FE00000000000
7FF10000000020
2FFB2000038DE0
06FFFEDDFFFF80
0029CEFEDB7300
ENDCHAR
STARTCHAR uni1EBD
ENCODING 7869
SWIDTH 393 0
DWIDTH 6 0
BBX 9 13 0 0
BITMAP
0046000000
05FFB18C00
0DD8FEF900
05204DC100
0000000000
007DE70000
09FEFF1000
2FD19F2000
6F83EC0000
6FEFB20930
4FE303BF30
0DFFDFF700
02AEEB4000
ENDCHAR
ENDFONT
